G04 #@! TF.FileFunction,Copper,L1,Top,Signal*
%FSLAX46Y46*%
G04 Gerber Fmt 4.6, Leading zero omitted, Abs format (unit mm)*
G04 Created by KiCad (PCBNEW no-vcs-found-product) date Tue 21 Jul 2015 10:22:54 PM EEST*
%MOMM*%
G01*
G04 APERTURE LIST*
%ADD10C,0.100000*%
%ADD11C,1.524000*%
%ADD12R,1.000000X0.800000*%
%ADD13R,0.550000X1.600000*%
%ADD14R,1.600000X0.550000*%
%ADD15O,3.014980X1.506220*%
%ADD16R,0.300000X0.600000*%
%ADD17R,2.032000X2.032000*%
%ADD18O,2.032000X2.032000*%
%ADD19R,1.350000X0.400000*%
%ADD20O,0.950000X1.250000*%
%ADD21O,1.550000X1.000000*%
%ADD22R,0.800000X1.000000*%
%ADD23C,0.250000*%
%ADD24C,0.500000*%
%ADD25C,0.700000*%
%ADD26C,0.300000*%
%ADD27C,0.254000*%
G04 APERTURE END LIST*
D10*
D11*
X144780000Y-92710000D03*
X142240000Y-92710000D03*
X144780000Y-95250000D03*
X142240000Y-95250000D03*
X144780000Y-97790000D03*
X142240000Y-97790000D03*
X144780000Y-100330000D03*
X142240000Y-100330000D03*
X144780000Y-102870000D03*
X142240000Y-102870000D03*
X144780000Y-105410000D03*
X142240000Y-105410000D03*
X144780000Y-107950000D03*
X142240000Y-107950000D03*
D12*
X158242000Y-107812000D03*
X158242000Y-109612000D03*
X148590000Y-93080000D03*
X148590000Y-94880000D03*
X147320000Y-93080000D03*
X147320000Y-94880000D03*
D13*
X155950000Y-104580000D03*
X156750000Y-104580000D03*
X157550000Y-104580000D03*
X158350000Y-104580000D03*
X159150000Y-104580000D03*
X159950000Y-104580000D03*
X160750000Y-104580000D03*
X161550000Y-104580000D03*
D14*
X163000000Y-103130000D03*
X163000000Y-102330000D03*
X163000000Y-101530000D03*
X163000000Y-100730000D03*
X163000000Y-99930000D03*
X163000000Y-99130000D03*
X163000000Y-98330000D03*
X163000000Y-97530000D03*
D13*
X161550000Y-96080000D03*
X160750000Y-96080000D03*
X159950000Y-96080000D03*
X159150000Y-96080000D03*
X158350000Y-96080000D03*
X157550000Y-96080000D03*
X156750000Y-96080000D03*
X155950000Y-96080000D03*
D14*
X154500000Y-97530000D03*
X154500000Y-98330000D03*
X154500000Y-99130000D03*
X154500000Y-99930000D03*
X154500000Y-100730000D03*
X154500000Y-101530000D03*
X154500000Y-102330000D03*
X154500000Y-103130000D03*
D15*
X171450000Y-104394000D03*
X171450000Y-101854000D03*
X171450000Y-99314000D03*
X171450000Y-96774000D03*
X171450000Y-94234000D03*
X171450000Y-91694000D03*
D12*
X191770000Y-111390000D03*
X191770000Y-109590000D03*
D16*
X187960000Y-105410000D03*
X187460000Y-105410000D03*
X186960000Y-105410000D03*
X186460000Y-105410000D03*
X186460000Y-107610000D03*
X186960000Y-107610000D03*
X187460000Y-107610000D03*
X187960000Y-107610000D03*
D17*
X194310000Y-96520000D03*
D18*
X194310000Y-93980000D03*
D19*
X192747460Y-105440900D03*
X192747460Y-104790900D03*
X192747460Y-104140900D03*
X192747460Y-103490900D03*
X192747460Y-102840900D03*
D20*
X192747460Y-106640900D03*
X192747460Y-101640900D03*
D21*
X195447460Y-107640900D03*
X195447460Y-100640900D03*
D22*
X186425000Y-103505000D03*
X188225000Y-103505000D03*
X188225000Y-102235000D03*
X186425000Y-102235000D03*
D23*
X186960000Y-107610000D02*
X186960000Y-107860000D01*
X186960000Y-107860000D02*
X187460000Y-108360000D01*
X187460000Y-107610000D02*
X187460000Y-108360000D01*
X187960000Y-108460000D02*
X188000000Y-108500000D01*
X187960000Y-108460000D02*
X187960000Y-107610000D01*
X187600000Y-108500000D02*
X188000000Y-108500000D01*
X187460000Y-108360000D02*
X187600000Y-108500000D01*
X186960000Y-107610000D02*
X187460000Y-107610000D01*
D24*
X148590000Y-94980000D02*
X147320000Y-94980000D01*
X147320000Y-94980000D02*
X147304000Y-94996000D01*
X147304000Y-94996000D02*
X145034000Y-94996000D01*
X145034000Y-94996000D02*
X144780000Y-95250000D01*
X142240000Y-92710000D02*
X140970000Y-93980000D01*
X155178000Y-107712000D02*
X158242000Y-107712000D01*
X152400000Y-110490000D02*
X155178000Y-107712000D01*
X142240000Y-110490000D02*
X152400000Y-110490000D01*
X140970000Y-109220000D02*
X142240000Y-110490000D01*
X140970000Y-93980000D02*
X140970000Y-109220000D01*
X185547000Y-106553000D02*
X185293000Y-106553000D01*
X186960000Y-106156000D02*
X186563000Y-106553000D01*
X186563000Y-106553000D02*
X185547000Y-106553000D01*
D23*
X186960000Y-105410000D02*
X186960000Y-106156000D01*
D24*
X180975000Y-102235000D02*
X180340000Y-102870000D01*
X185293000Y-106553000D02*
X180975000Y-102235000D01*
D25*
X194310000Y-96520000D02*
X186690000Y-96520000D01*
X178816000Y-104394000D02*
X171450000Y-104394000D01*
X186690000Y-96520000D02*
X180340000Y-102870000D01*
X180340000Y-102870000D02*
X178816000Y-104394000D01*
D24*
X158242000Y-107712000D02*
X168132000Y-107712000D01*
X168132000Y-107712000D02*
X171450000Y-104394000D01*
X158350000Y-104580000D02*
X158350000Y-107604000D01*
X158350000Y-107604000D02*
X158242000Y-107712000D01*
X147320000Y-92980000D02*
X147050000Y-92980000D01*
X147050000Y-92980000D02*
X146050000Y-93980000D01*
X146050000Y-93980000D02*
X143510000Y-93980000D01*
X143510000Y-93980000D02*
X142240000Y-92710000D01*
X147320000Y-92980000D02*
X147304000Y-92980000D01*
X144780000Y-96520000D02*
X146050000Y-96520000D01*
X143510000Y-96520000D02*
X144780000Y-96520000D01*
X142240000Y-95250000D02*
X143510000Y-96520000D01*
X146490000Y-96080000D02*
X155950000Y-96080000D01*
X146050000Y-96520000D02*
X146490000Y-96080000D01*
X144780000Y-97790000D02*
X146050000Y-97790000D01*
X146310000Y-97530000D02*
X154500000Y-97530000D01*
X146050000Y-97790000D02*
X146310000Y-97530000D01*
X144780000Y-99060000D02*
X146050000Y-99060000D01*
X143510000Y-99060000D02*
X144780000Y-99060000D01*
X142240000Y-97790000D02*
X143510000Y-99060000D01*
X146780000Y-98330000D02*
X154500000Y-98330000D01*
X146050000Y-99060000D02*
X146780000Y-98330000D01*
X144780000Y-105410000D02*
X146050000Y-105410000D01*
X149930000Y-101530000D02*
X154500000Y-101530000D01*
X146050000Y-105410000D02*
X149930000Y-101530000D01*
X144780000Y-106680000D02*
X146050000Y-106680000D01*
X143510000Y-106680000D02*
X144780000Y-106680000D01*
X142240000Y-105410000D02*
X143510000Y-106680000D01*
X150400000Y-102330000D02*
X154500000Y-102330000D01*
X146050000Y-106680000D02*
X150400000Y-102330000D01*
X144780000Y-107950000D02*
X146050000Y-107950000D01*
X150870000Y-103130000D02*
X154500000Y-103130000D01*
X146050000Y-107950000D02*
X150870000Y-103130000D01*
X144780000Y-109220000D02*
X146050000Y-109220000D01*
X143510000Y-109220000D02*
X144780000Y-109220000D01*
X142240000Y-107950000D02*
X143510000Y-109220000D01*
X150690000Y-104580000D02*
X155950000Y-104580000D01*
X146050000Y-109220000D02*
X150690000Y-104580000D01*
X171450000Y-99314000D02*
X169926000Y-99314000D01*
X168942000Y-98330000D02*
X163000000Y-98330000D01*
X169926000Y-99314000D02*
X168942000Y-98330000D01*
X171450000Y-96774000D02*
X169926000Y-96774000D01*
X169170000Y-97530000D02*
X163000000Y-97530000D01*
X169926000Y-96774000D02*
X169170000Y-97530000D01*
X171450000Y-94234000D02*
X169926000Y-94234000D01*
X168080000Y-96080000D02*
X161550000Y-96080000D01*
X169926000Y-94234000D02*
X168080000Y-96080000D01*
X171450000Y-101854000D02*
X169926000Y-101854000D01*
X169602000Y-101530000D02*
X163000000Y-101530000D01*
X169926000Y-101854000D02*
X169602000Y-101530000D01*
X154500000Y-100730000D02*
X158388000Y-100730000D01*
X159188000Y-101530000D02*
X163000000Y-101530000D01*
X158388000Y-100730000D02*
X159188000Y-101530000D01*
D23*
X186460000Y-107610000D02*
X186460000Y-108434000D01*
D24*
X189516000Y-111490000D02*
X191770000Y-111490000D01*
X186460000Y-108434000D02*
X189516000Y-111490000D01*
D26*
X192747460Y-105440900D02*
X188752900Y-105440900D01*
D23*
X188722000Y-105410000D02*
X187960000Y-105410000D01*
X188752900Y-105440900D02*
X188722000Y-105410000D01*
D26*
X188325000Y-102235000D02*
X187706000Y-102235000D01*
D23*
X187960000Y-104775000D02*
X187960000Y-105410000D01*
D26*
X187325000Y-104140000D02*
X187960000Y-104775000D01*
X187325000Y-102616000D02*
X187325000Y-104140000D01*
X187706000Y-102235000D02*
X187325000Y-102616000D01*
D23*
X187460000Y-105410000D02*
X187460000Y-104946754D01*
X186690000Y-104176754D02*
X186690000Y-103870000D01*
X187460000Y-104946754D02*
X186690000Y-104176754D01*
X186690000Y-103870000D02*
X186325000Y-103505000D01*
D26*
X186325000Y-102235000D02*
X185801000Y-102235000D01*
D23*
X186055000Y-105410000D02*
X186460000Y-105410000D01*
D26*
X185420000Y-104775000D02*
X186055000Y-105410000D01*
X185420000Y-102616000D02*
X185420000Y-104775000D01*
X185801000Y-102235000D02*
X185420000Y-102616000D01*
D27*
G36*
X198273000Y-116073000D02*
X140727000Y-116073000D01*
X140727000Y-109934422D01*
X141761289Y-110968711D01*
X141980923Y-111115466D01*
X142240000Y-111167000D01*
X152400000Y-111167000D01*
X152659077Y-111115466D01*
X152878711Y-110968711D01*
X153949672Y-109897750D01*
X157107000Y-109897750D01*
X157107000Y-110138309D01*
X157203673Y-110371698D01*
X157382301Y-110550327D01*
X157615690Y-110647000D01*
X157956250Y-110647000D01*
X158115000Y-110488250D01*
X158115000Y-109739000D01*
X158369000Y-109739000D01*
X158369000Y-110488250D01*
X158527750Y-110647000D01*
X158868310Y-110647000D01*
X159101699Y-110550327D01*
X159280327Y-110371698D01*
X159377000Y-110138309D01*
X159377000Y-109897750D01*
X159218250Y-109739000D01*
X158369000Y-109739000D01*
X158115000Y-109739000D01*
X158115000Y-109739000D01*
X157265750Y-109739000D01*
X157107000Y-109897750D01*
X153949672Y-109897750D01*
X155458422Y-108389000D01*
X157347543Y-108389000D01*
X157432224Y-108517912D01*
X157556242Y-108601624D01*
X157382301Y-108673673D01*
X157203673Y-108852302D01*
X157107000Y-109085691D01*
X157107000Y-109326250D01*
X157265750Y-109485000D01*
X158115000Y-109485000D01*
X158115000Y-109465000D01*
X158369000Y-109465000D01*
X158369000Y-109485000D01*
X159218250Y-109485000D01*
X159377000Y-109326250D01*
X159377000Y-109085691D01*
X159280327Y-108852302D01*
X159101699Y-108673673D01*
X158926899Y-108601268D01*
X159047912Y-108521776D01*
X159137536Y-108389000D01*
X168132000Y-108389000D01*
X168391077Y-108337466D01*
X168610711Y-108190711D01*
X171227313Y-105574110D01*
X172242279Y-105574110D01*
X172693888Y-105484279D01*
X173076743Y-105228464D01*
X173115139Y-105171000D01*
X178816000Y-105171000D01*
X179113345Y-105111854D01*
X179365422Y-104943422D01*
X181045711Y-103263133D01*
X184814289Y-107031711D01*
X185033923Y-107178466D01*
X185293000Y-107230000D01*
X185890679Y-107230000D01*
X185874635Y-107310000D01*
X185874635Y-107910000D01*
X185905445Y-108068798D01*
X185834534Y-108174924D01*
X185783000Y-108434000D01*
X185834534Y-108693076D01*
X185981289Y-108912711D01*
X189037289Y-111968712D01*
X189256924Y-112115467D01*
X189516000Y-112167000D01*
X191065539Y-112167000D01*
X191102132Y-112191700D01*
X191270000Y-112225365D01*
X192270000Y-112225365D01*
X192432814Y-112193776D01*
X192575912Y-112099776D01*
X192671700Y-111957868D01*
X192705365Y-111790000D01*
X192705365Y-110990000D01*
X192673776Y-110827186D01*
X192579776Y-110684088D01*
X192437868Y-110588300D01*
X192270000Y-110554635D01*
X191270000Y-110554635D01*
X191107186Y-110586224D01*
X190964088Y-110680224D01*
X190874464Y-110813000D01*
X189796423Y-110813000D01*
X188173423Y-109190000D01*
X190834635Y-109190000D01*
X190834635Y-109990000D01*
X190866224Y-110152814D01*
X190960224Y-110295912D01*
X191102132Y-110391700D01*
X191270000Y-110425365D01*
X192270000Y-110425365D01*
X192432814Y-110393776D01*
X192575912Y-110299776D01*
X192671700Y-110157868D01*
X192705365Y-109990000D01*
X192705365Y-109190000D01*
X192673776Y-109027186D01*
X192579776Y-108884088D01*
X192437868Y-108788300D01*
X192270000Y-108754635D01*
X191270000Y-108754635D01*
X191107186Y-108786224D01*
X190964088Y-108880224D01*
X190868300Y-109022132D01*
X190834635Y-109190000D01*
X188173423Y-109190000D01*
X187528422Y-108545000D01*
X187587002Y-108545000D01*
X187587002Y-108504950D01*
X187683691Y-108545000D01*
X187736309Y-108545000D01*
X187969698Y-108448327D01*
X188035000Y-108383025D01*
X188035000Y-108386250D01*
X188193750Y-108545000D01*
X188236309Y-108545000D01*
X188469698Y-108448327D01*
X188648327Y-108269699D01*
X188745000Y-108036310D01*
X188745000Y-107942774D01*
X194078341Y-107942774D01*
X194280092Y-108353663D01*
X194620782Y-108640902D01*
X195045460Y-108775900D01*
X195320460Y-108775900D01*
X195320460Y-107767900D01*
X195574460Y-107767900D01*
X195574460Y-108775900D01*
X195849460Y-108775900D01*
X196274138Y-108640902D01*
X196614828Y-108353663D01*
X196816579Y-107942774D01*
X196690414Y-107767900D01*
X195574460Y-107767900D01*
X195320460Y-107767900D01*
X195320460Y-107767900D01*
X194204506Y-107767900D01*
X194078341Y-107942774D01*
X188745000Y-107942774D01*
X188745000Y-107895750D01*
X188586250Y-107737000D01*
X187313000Y-107737000D01*
X187313000Y-107483000D01*
X188586250Y-107483000D01*
X188745000Y-107324250D01*
X188745000Y-107183690D01*
X188648327Y-106950301D01*
X188640057Y-106942031D01*
X191646231Y-106942031D01*
X191787892Y-107351949D01*
X192075639Y-107676452D01*
X192449522Y-107860168D01*
X192620460Y-107733634D01*
X192620460Y-106767900D01*
X192874460Y-106767900D01*
X192874460Y-107733634D01*
X193045398Y-107860168D01*
X193419281Y-107676452D01*
X193707028Y-107351949D01*
X193711493Y-107339026D01*
X194078341Y-107339026D01*
X194204506Y-107513900D01*
X195320460Y-107513900D01*
X195320460Y-106505900D01*
X195574460Y-106505900D01*
X195574460Y-107513900D01*
X196690414Y-107513900D01*
X196816579Y-107339026D01*
X196614828Y-106928137D01*
X196274138Y-106640898D01*
X195849460Y-106505900D01*
X195574460Y-106505900D01*
X195320460Y-106505900D01*
X195320460Y-106505900D01*
X195045460Y-106505900D01*
X194620782Y-106640898D01*
X194280092Y-106928137D01*
X194078341Y-107339026D01*
X193711493Y-107339026D01*
X193848689Y-106942031D01*
X193700023Y-106767900D01*
X192874460Y-106767900D01*
X192620460Y-106767900D01*
X192620460Y-106767900D01*
X191794897Y-106767900D01*
X191646231Y-106942031D01*
X188640057Y-106942031D01*
X188627000Y-106928974D01*
X188627000Y-105992857D01*
X188752900Y-106017900D01*
X191757464Y-106017900D01*
X191646231Y-106339769D01*
X191794897Y-106513900D01*
X192620460Y-106513900D01*
X192620460Y-106493900D01*
X192874460Y-106493900D01*
X192874460Y-106513900D01*
X193700023Y-106513900D01*
X193848689Y-106339769D01*
X193716842Y-105958250D01*
X193728372Y-105950676D01*
X193824160Y-105808768D01*
X193857825Y-105640900D01*
X193857825Y-105240900D01*
X193833172Y-105113833D01*
X193857825Y-104990900D01*
X193857825Y-104590900D01*
X193833172Y-104463833D01*
X193857825Y-104340900D01*
X193857825Y-103940900D01*
X193833172Y-103813833D01*
X193857825Y-103690900D01*
X193857825Y-103503560D01*
X193960787Y-103400599D01*
X194057460Y-103167210D01*
X194057460Y-103099650D01*
X193898710Y-102940900D01*
X193666921Y-102940900D01*
X193590328Y-102889200D01*
X193422460Y-102855535D01*
X193054827Y-102855535D01*
X193288122Y-102740900D01*
X193898710Y-102740900D01*
X194057460Y-102582150D01*
X194057460Y-102514590D01*
X193960787Y-102281201D01*
X193790370Y-102110785D01*
X193848689Y-101942031D01*
X193700023Y-101767900D01*
X192874460Y-101767900D01*
X192874460Y-101787900D01*
X192620460Y-101787900D01*
X192620460Y-101767900D01*
X191794897Y-101767900D01*
X191646231Y-101942031D01*
X191704550Y-102110785D01*
X191534133Y-102281201D01*
X191437460Y-102514590D01*
X191437460Y-102582150D01*
X191596210Y-102740900D01*
X192206798Y-102740900D01*
X192440093Y-102855535D01*
X192072460Y-102855535D01*
X191909646Y-102887124D01*
X191827782Y-102940900D01*
X191596210Y-102940900D01*
X191437460Y-103099650D01*
X191437460Y-103167210D01*
X191534133Y-103400599D01*
X191637095Y-103503560D01*
X191637095Y-103690900D01*
X191661748Y-103817967D01*
X191637095Y-103940900D01*
X191637095Y-104340900D01*
X191661748Y-104467967D01*
X191637095Y-104590900D01*
X191637095Y-104863900D01*
X188752900Y-104863900D01*
X188752281Y-104864023D01*
X188722000Y-104858000D01*
X188520491Y-104858000D01*
X188537001Y-104775000D01*
X188509997Y-104639247D01*
X188510750Y-104640000D01*
X188751309Y-104640000D01*
X188984698Y-104543327D01*
X189163327Y-104364699D01*
X189260000Y-104131310D01*
X189260000Y-103790750D01*
X189101250Y-103632000D01*
X188352000Y-103632000D01*
X188352000Y-103652000D01*
X188098000Y-103652000D01*
X188098000Y-103632000D01*
X188078000Y-103632000D01*
X188078000Y-103378000D01*
X188098000Y-103378000D01*
X188098000Y-103358000D01*
X188352000Y-103358000D01*
X188352000Y-103378000D01*
X189101250Y-103378000D01*
X189260000Y-103219250D01*
X189260000Y-102878690D01*
X189163327Y-102645301D01*
X189060365Y-102542340D01*
X189060365Y-101735000D01*
X189028776Y-101572186D01*
X188934776Y-101429088D01*
X188802452Y-101339769D01*
X191646231Y-101339769D01*
X191794897Y-101513900D01*
X192620460Y-101513900D01*
X192620460Y-100548166D01*
X192874460Y-100548166D01*
X192874460Y-101513900D01*
X193700023Y-101513900D01*
X193848689Y-101339769D01*
X193711494Y-100942774D01*
X194078341Y-100942774D01*
X194280092Y-101353663D01*
X194620782Y-101640902D01*
X195045460Y-101775900D01*
X195320460Y-101775900D01*
X195320460Y-100767900D01*
X195574460Y-100767900D01*
X195574460Y-101775900D01*
X195849460Y-101775900D01*
X196274138Y-101640902D01*
X196614828Y-101353663D01*
X196816579Y-100942774D01*
X196690414Y-100767900D01*
X195574460Y-100767900D01*
X195320460Y-100767900D01*
X195320460Y-100767900D01*
X194204506Y-100767900D01*
X194078341Y-100942774D01*
X193711494Y-100942774D01*
X193707028Y-100929851D01*
X193419281Y-100605348D01*
X193045398Y-100421632D01*
X192874460Y-100548166D01*
X192620460Y-100548166D01*
X192620460Y-100548166D01*
X192449522Y-100421632D01*
X192075639Y-100605348D01*
X191787892Y-100929851D01*
X191646231Y-101339769D01*
X188802452Y-101339769D01*
X188792868Y-101333300D01*
X188625000Y-101299635D01*
X187825000Y-101299635D01*
X187662186Y-101331224D01*
X187519088Y-101425224D01*
X187423300Y-101567132D01*
X187389635Y-101735000D01*
X187389635Y-101765770D01*
X187297999Y-101826999D01*
X187297997Y-101827002D01*
X187260365Y-101864634D01*
X187260365Y-101735000D01*
X187228776Y-101572186D01*
X187134776Y-101429088D01*
X186992868Y-101333300D01*
X186825000Y-101299635D01*
X186025000Y-101299635D01*
X185862186Y-101331224D01*
X185719088Y-101425224D01*
X185623300Y-101567132D01*
X185596937Y-101698591D01*
X185580192Y-101701922D01*
X185392999Y-101826999D01*
X185392997Y-101827002D01*
X185011999Y-102207999D01*
X184886922Y-102395192D01*
X184842999Y-102616000D01*
X184843000Y-102616005D01*
X184843000Y-104774995D01*
X184842999Y-104775000D01*
X184886922Y-104995808D01*
X185011999Y-105183001D01*
X185647000Y-105818001D01*
X185733802Y-105876000D01*
X185573422Y-105876000D01*
X182003133Y-102305711D01*
X183969818Y-100339026D01*
X194078341Y-100339026D01*
X194204506Y-100513900D01*
X195320460Y-100513900D01*
X195320460Y-99505900D01*
X195574460Y-99505900D01*
X195574460Y-100513900D01*
X196690414Y-100513900D01*
X196816579Y-100339026D01*
X196614828Y-99928137D01*
X196274138Y-99640898D01*
X195849460Y-99505900D01*
X195574460Y-99505900D01*
X195320460Y-99505900D01*
X195320460Y-99505900D01*
X195045460Y-99505900D01*
X194620782Y-99640898D01*
X194280092Y-99928137D01*
X194078341Y-100339026D01*
X183969818Y-100339026D01*
X187011844Y-97297000D01*
X192858635Y-97297000D01*
X192858635Y-97536000D01*
X192890224Y-97698814D01*
X192984224Y-97841912D01*
X193126132Y-97937700D01*
X193294000Y-97971365D01*
X195326000Y-97971365D01*
X195488814Y-97939776D01*
X195631912Y-97845776D01*
X195727700Y-97703868D01*
X195761365Y-97536000D01*
X195761365Y-95504000D01*
X195729776Y-95341186D01*
X195635776Y-95198088D01*
X195493868Y-95102300D01*
X195480180Y-95099555D01*
X195716385Y-94844818D01*
X195915975Y-94362944D01*
X195796836Y-94107000D01*
X194437000Y-94107000D01*
X194437000Y-94127000D01*
X194183000Y-94127000D01*
X194183000Y-94107000D01*
X192823164Y-94107000D01*
X192704025Y-94362944D01*
X192903615Y-94844818D01*
X193139030Y-95098702D01*
X193131186Y-95100224D01*
X192988088Y-95194224D01*
X192892300Y-95336132D01*
X192858635Y-95504000D01*
X192858635Y-95743000D01*
X186690000Y-95743000D01*
X186392655Y-95802146D01*
X186140578Y-95970578D01*
X178494156Y-103617000D01*
X173115139Y-103617000D01*
X173076743Y-103559536D01*
X172693888Y-103303721D01*
X172242279Y-103213890D01*
X170657721Y-103213890D01*
X170206112Y-103303721D01*
X169823257Y-103559536D01*
X169567442Y-103942391D01*
X169477611Y-104394000D01*
X169567442Y-104845609D01*
X169757110Y-105129468D01*
X167851578Y-107035000D01*
X159027000Y-107035000D01*
X159027000Y-105546372D01*
X159060365Y-105380000D01*
X159060365Y-103780000D01*
X159028776Y-103617186D01*
X159023000Y-103608393D01*
X159023000Y-103303750D01*
X158864250Y-103145000D01*
X158748690Y-103145000D01*
X158515301Y-103241673D01*
X158412340Y-103344635D01*
X158075000Y-103344635D01*
X157947933Y-103369288D01*
X157825000Y-103344635D01*
X157275000Y-103344635D01*
X157147933Y-103369288D01*
X157025000Y-103344635D01*
X156475000Y-103344635D01*
X156347933Y-103369288D01*
X156225000Y-103344635D01*
X155735365Y-103344635D01*
X155735365Y-102855000D01*
X155710712Y-102727933D01*
X155735365Y-102605000D01*
X155735365Y-102055000D01*
X155710712Y-101927933D01*
X155735365Y-101805000D01*
X155735365Y-101407000D01*
X158107578Y-101407000D01*
X158709289Y-102008711D01*
X158928923Y-102155466D01*
X159188000Y-102207000D01*
X161764635Y-102207000D01*
X161764635Y-102605000D01*
X161789288Y-102732067D01*
X161764635Y-102855000D01*
X161764635Y-103344635D01*
X161275000Y-103344635D01*
X161147933Y-103369288D01*
X161025000Y-103344635D01*
X160475000Y-103344635D01*
X160347933Y-103369288D01*
X160225000Y-103344635D01*
X159887660Y-103344635D01*
X159784699Y-103241673D01*
X159551310Y-103145000D01*
X159435750Y-103145000D01*
X159277000Y-103303750D01*
X159277000Y-103606651D01*
X159273300Y-103612132D01*
X159239635Y-103780000D01*
X159239635Y-105380000D01*
X159271224Y-105542814D01*
X159277000Y-105551607D01*
X159277000Y-105856250D01*
X159435750Y-106015000D01*
X159551310Y-106015000D01*
X159784699Y-105918327D01*
X159887660Y-105815365D01*
X160225000Y-105815365D01*
X160352067Y-105790712D01*
X160475000Y-105815365D01*
X161025000Y-105815365D01*
X161152067Y-105790712D01*
X161275000Y-105815365D01*
X161825000Y-105815365D01*
X161987814Y-105783776D01*
X162130912Y-105689776D01*
X162226700Y-105547868D01*
X162260365Y-105380000D01*
X162260365Y-103840365D01*
X163800000Y-103840365D01*
X163962814Y-103808776D01*
X164105912Y-103714776D01*
X164201700Y-103572868D01*
X164235365Y-103405000D01*
X164235365Y-102855000D01*
X164210712Y-102727933D01*
X164235365Y-102605000D01*
X164235365Y-102207000D01*
X169321578Y-102207000D01*
X169447289Y-102332711D01*
X169666923Y-102479466D01*
X169686167Y-102483294D01*
X169823257Y-102688464D01*
X170206112Y-102944279D01*
X170657721Y-103034110D01*
X172242279Y-103034110D01*
X172693888Y-102944279D01*
X173076743Y-102688464D01*
X173332558Y-102305609D01*
X173422389Y-101854000D01*
X173332558Y-101402391D01*
X173076743Y-101019536D01*
X172693888Y-100763721D01*
X172242279Y-100673890D01*
X170657721Y-100673890D01*
X170206112Y-100763721D01*
X169928223Y-100949400D01*
X169861077Y-100904534D01*
X169602000Y-100853000D01*
X164235365Y-100853000D01*
X164235365Y-100455000D01*
X164210712Y-100327933D01*
X164235365Y-100205000D01*
X164235365Y-99655000D01*
X164210712Y-99527933D01*
X164235365Y-99405000D01*
X164235365Y-99007000D01*
X168661578Y-99007000D01*
X169447289Y-99792711D01*
X169666923Y-99939466D01*
X169686167Y-99943294D01*
X169823257Y-100148464D01*
X170206112Y-100404279D01*
X170657721Y-100494110D01*
X172242279Y-100494110D01*
X172693888Y-100404279D01*
X173076743Y-100148464D01*
X173332558Y-99765609D01*
X173422389Y-99314000D01*
X173332558Y-98862391D01*
X173076743Y-98479536D01*
X172693888Y-98223721D01*
X172242279Y-98133890D01*
X170657721Y-98133890D01*
X170206112Y-98223721D01*
X169958555Y-98389133D01*
X169606403Y-98036981D01*
X169648711Y-98008711D01*
X169958555Y-97698867D01*
X170206112Y-97864279D01*
X170657721Y-97954110D01*
X172242279Y-97954110D01*
X172693888Y-97864279D01*
X173076743Y-97608464D01*
X173332558Y-97225609D01*
X173422389Y-96774000D01*
X173332558Y-96322391D01*
X173076743Y-95939536D01*
X172693888Y-95683721D01*
X172242279Y-95593890D01*
X170657721Y-95593890D01*
X170206112Y-95683721D01*
X169823257Y-95939536D01*
X169686167Y-96144706D01*
X169666923Y-96148534D01*
X169579423Y-96207000D01*
X169447288Y-96295289D01*
X168889578Y-96853000D01*
X163966372Y-96853000D01*
X163800000Y-96819635D01*
X162260365Y-96819635D01*
X162260365Y-96757000D01*
X168080000Y-96757000D01*
X168339077Y-96705466D01*
X168558711Y-96558711D01*
X169958555Y-95158867D01*
X170206112Y-95324279D01*
X170657721Y-95414110D01*
X172242279Y-95414110D01*
X172693888Y-95324279D01*
X173076743Y-95068464D01*
X173332558Y-94685609D01*
X173422389Y-94234000D01*
X173332558Y-93782391D01*
X173208722Y-93597056D01*
X192704025Y-93597056D01*
X192823164Y-93853000D01*
X194183000Y-93853000D01*
X194183000Y-92492633D01*
X194437000Y-92492633D01*
X194437000Y-93853000D01*
X195796836Y-93853000D01*
X195915975Y-93597056D01*
X195716385Y-93115182D01*
X195278379Y-92642812D01*
X194692946Y-92374017D01*
X194437000Y-92492633D01*
X194183000Y-92492633D01*
X194183000Y-92492633D01*
X193927054Y-92374017D01*
X193341621Y-92642812D01*
X192903615Y-93115182D01*
X192704025Y-93597056D01*
X173208722Y-93597056D01*
X173076743Y-93399536D01*
X172693888Y-93143721D01*
X172352598Y-93075834D01*
X172852919Y-92927846D01*
X173275724Y-92585740D01*
X173535427Y-92107875D01*
X173549783Y-92035674D01*
X173427162Y-91821000D01*
X171577000Y-91821000D01*
X171577000Y-91841000D01*
X171323000Y-91841000D01*
X171323000Y-91821000D01*
X169472838Y-91821000D01*
X169350217Y-92035674D01*
X169364573Y-92107875D01*
X169624276Y-92585740D01*
X170047081Y-92927846D01*
X170547402Y-93075834D01*
X170206112Y-93143721D01*
X169823257Y-93399536D01*
X169686167Y-93604706D01*
X169666923Y-93608534D01*
X169498721Y-93720923D01*
X169447289Y-93755289D01*
X167799578Y-95403000D01*
X162260365Y-95403000D01*
X162260365Y-95280000D01*
X162228776Y-95117186D01*
X162134776Y-94974088D01*
X161992868Y-94878300D01*
X161825000Y-94844635D01*
X161275000Y-94844635D01*
X161147933Y-94869288D01*
X161025000Y-94844635D01*
X160475000Y-94844635D01*
X160347933Y-94869288D01*
X160225000Y-94844635D01*
X159675000Y-94844635D01*
X159547933Y-94869288D01*
X159425000Y-94844635D01*
X159087660Y-94844635D01*
X158984699Y-94741673D01*
X158751310Y-94645000D01*
X158635750Y-94645000D01*
X158477000Y-94803750D01*
X158477000Y-95106651D01*
X158473300Y-95112132D01*
X158439635Y-95280000D01*
X158439635Y-96880000D01*
X158471224Y-97042814D01*
X158477000Y-97051607D01*
X158477000Y-97356250D01*
X158635750Y-97515000D01*
X158751310Y-97515000D01*
X158984699Y-97418327D01*
X159087660Y-97315365D01*
X159425000Y-97315365D01*
X159552067Y-97290712D01*
X159675000Y-97315365D01*
X160225000Y-97315365D01*
X160352067Y-97290712D01*
X160475000Y-97315365D01*
X161025000Y-97315365D01*
X161152067Y-97290712D01*
X161275000Y-97315365D01*
X161764635Y-97315365D01*
X161764635Y-97805000D01*
X161789288Y-97932067D01*
X161764635Y-98055000D01*
X161764635Y-98605000D01*
X161789288Y-98732067D01*
X161764635Y-98855000D01*
X161764635Y-99405000D01*
X161789288Y-99532067D01*
X161764635Y-99655000D01*
X161764635Y-100205000D01*
X161789288Y-100332067D01*
X161764635Y-100455000D01*
X161764635Y-100853000D01*
X159468422Y-100853000D01*
X158866711Y-100251289D01*
X158647077Y-100104534D01*
X158388000Y-100053000D01*
X155735365Y-100053000D01*
X155735365Y-99655000D01*
X155710712Y-99527933D01*
X155735365Y-99405000D01*
X155735365Y-98855000D01*
X155710712Y-98727933D01*
X155735365Y-98605000D01*
X155735365Y-98055000D01*
X155710712Y-97927933D01*
X155735365Y-97805000D01*
X155735365Y-97315365D01*
X156225000Y-97315365D01*
X156352067Y-97290712D01*
X156475000Y-97315365D01*
X157025000Y-97315365D01*
X157152067Y-97290712D01*
X157275000Y-97315365D01*
X157612340Y-97315365D01*
X157715301Y-97418327D01*
X157948690Y-97515000D01*
X158064250Y-97515000D01*
X158223000Y-97356250D01*
X158223000Y-97053349D01*
X158226700Y-97047868D01*
X158260365Y-96880000D01*
X158260365Y-95280000D01*
X158228776Y-95117186D01*
X158223000Y-95108393D01*
X158223000Y-94803750D01*
X158064250Y-94645000D01*
X157948690Y-94645000D01*
X157715301Y-94741673D01*
X157612340Y-94844635D01*
X157275000Y-94844635D01*
X157147933Y-94869288D01*
X157025000Y-94844635D01*
X156475000Y-94844635D01*
X156347933Y-94869288D01*
X156225000Y-94844635D01*
X155675000Y-94844635D01*
X155512186Y-94876224D01*
X155369088Y-94970224D01*
X155273300Y-95112132D01*
X155239635Y-95280000D01*
X155239635Y-95403000D01*
X149500698Y-95403000D01*
X149525365Y-95280000D01*
X149525365Y-94480000D01*
X149493776Y-94317186D01*
X149399776Y-94174088D01*
X149275758Y-94090376D01*
X149449699Y-94018327D01*
X149628327Y-93839698D01*
X149725000Y-93606309D01*
X149725000Y-93365750D01*
X149566250Y-93207000D01*
X148717000Y-93207000D01*
X148717000Y-93227000D01*
X148463000Y-93227000D01*
X148463000Y-93207000D01*
X148443000Y-93207000D01*
X148443000Y-92953000D01*
X148463000Y-92953000D01*
X148463000Y-92203750D01*
X148717000Y-92203750D01*
X148717000Y-92953000D01*
X149566250Y-92953000D01*
X149725000Y-92794250D01*
X149725000Y-92553691D01*
X149628327Y-92320302D01*
X149449699Y-92141673D01*
X149216310Y-92045000D01*
X148875750Y-92045000D01*
X148717000Y-92203750D01*
X148463000Y-92203750D01*
X148463000Y-92203750D01*
X148304250Y-92045000D01*
X147963690Y-92045000D01*
X147730301Y-92141673D01*
X147627340Y-92244635D01*
X146820000Y-92244635D01*
X146657186Y-92276224D01*
X146514088Y-92370224D01*
X146418300Y-92512132D01*
X146384635Y-92680000D01*
X146384635Y-92687942D01*
X146187511Y-92885067D01*
X146161362Y-92362632D01*
X146002397Y-91978857D01*
X145760213Y-91909392D01*
X144959605Y-92710000D01*
X144973748Y-92724143D01*
X144794143Y-92903748D01*
X144780000Y-92889605D01*
X144765858Y-92903748D01*
X144586253Y-92724143D01*
X144600395Y-92710000D01*
X143799787Y-91909392D01*
X143557603Y-91978857D01*
X143403210Y-92411615D01*
X143248573Y-92037365D01*
X142941531Y-91729787D01*
X143979392Y-91729787D01*
X144780000Y-92530395D01*
X145580608Y-91729787D01*
X145511143Y-91487603D01*
X145131967Y-91352326D01*
X169350217Y-91352326D01*
X169472838Y-91567000D01*
X171323000Y-91567000D01*
X171323000Y-90305890D01*
X171577000Y-90305890D01*
X171577000Y-91567000D01*
X173427162Y-91567000D01*
X173549783Y-91352326D01*
X173535427Y-91280125D01*
X173275724Y-90802260D01*
X172852919Y-90460154D01*
X172331380Y-90305890D01*
X171577000Y-90305890D01*
X171323000Y-90305890D01*
X171323000Y-90305890D01*
X170568620Y-90305890D01*
X170047081Y-90460154D01*
X169624276Y-90802260D01*
X169364573Y-91280125D01*
X169350217Y-91352326D01*
X145131967Y-91352326D01*
X144987698Y-91300856D01*
X144432632Y-91328638D01*
X144048857Y-91487603D01*
X143979392Y-91729787D01*
X142941531Y-91729787D01*
X142914394Y-91702603D01*
X142477544Y-91521207D01*
X142004531Y-91520794D01*
X141567365Y-91701427D01*
X141232603Y-92035606D01*
X141051207Y-92472456D01*
X141050797Y-92941781D01*
X140727000Y-93265578D01*
X140727000Y-84627000D01*
X198273000Y-84627000D01*
X198273000Y-116073000D01*
X198273000Y-116073000D01*
G37*
X198273000Y-116073000D02*
X140727000Y-116073000D01*
X140727000Y-109934422D01*
X141761289Y-110968711D01*
X141980923Y-111115466D01*
X142240000Y-111167000D01*
X152400000Y-111167000D01*
X152659077Y-111115466D01*
X152878711Y-110968711D01*
X153949672Y-109897750D01*
X157107000Y-109897750D01*
X157107000Y-110138309D01*
X157203673Y-110371698D01*
X157382301Y-110550327D01*
X157615690Y-110647000D01*
X157956250Y-110647000D01*
X158115000Y-110488250D01*
X158115000Y-109739000D01*
X158369000Y-109739000D01*
X158369000Y-110488250D01*
X158527750Y-110647000D01*
X158868310Y-110647000D01*
X159101699Y-110550327D01*
X159280327Y-110371698D01*
X159377000Y-110138309D01*
X159377000Y-109897750D01*
X159218250Y-109739000D01*
X158369000Y-109739000D01*
X158115000Y-109739000D01*
X158115000Y-109739000D01*
X157265750Y-109739000D01*
X157107000Y-109897750D01*
X153949672Y-109897750D01*
X155458422Y-108389000D01*
X157347543Y-108389000D01*
X157432224Y-108517912D01*
X157556242Y-108601624D01*
X157382301Y-108673673D01*
X157203673Y-108852302D01*
X157107000Y-109085691D01*
X157107000Y-109326250D01*
X157265750Y-109485000D01*
X158115000Y-109485000D01*
X158115000Y-109465000D01*
X158369000Y-109465000D01*
X158369000Y-109485000D01*
X159218250Y-109485000D01*
X159377000Y-109326250D01*
X159377000Y-109085691D01*
X159280327Y-108852302D01*
X159101699Y-108673673D01*
X158926899Y-108601268D01*
X159047912Y-108521776D01*
X159137536Y-108389000D01*
X168132000Y-108389000D01*
X168391077Y-108337466D01*
X168610711Y-108190711D01*
X171227313Y-105574110D01*
X172242279Y-105574110D01*
X172693888Y-105484279D01*
X173076743Y-105228464D01*
X173115139Y-105171000D01*
X178816000Y-105171000D01*
X179113345Y-105111854D01*
X179365422Y-104943422D01*
X181045711Y-103263133D01*
X184814289Y-107031711D01*
X185033923Y-107178466D01*
X185293000Y-107230000D01*
X185890679Y-107230000D01*
X185874635Y-107310000D01*
X185874635Y-107910000D01*
X185905445Y-108068798D01*
X185834534Y-108174924D01*
X185783000Y-108434000D01*
X185834534Y-108693076D01*
X185981289Y-108912711D01*
X189037289Y-111968712D01*
X189256924Y-112115467D01*
X189516000Y-112167000D01*
X191065539Y-112167000D01*
X191102132Y-112191700D01*
X191270000Y-112225365D01*
X192270000Y-112225365D01*
X192432814Y-112193776D01*
X192575912Y-112099776D01*
X192671700Y-111957868D01*
X192705365Y-111790000D01*
X192705365Y-110990000D01*
X192673776Y-110827186D01*
X192579776Y-110684088D01*
X192437868Y-110588300D01*
X192270000Y-110554635D01*
X191270000Y-110554635D01*
X191107186Y-110586224D01*
X190964088Y-110680224D01*
X190874464Y-110813000D01*
X189796423Y-110813000D01*
X188173423Y-109190000D01*
X190834635Y-109190000D01*
X190834635Y-109990000D01*
X190866224Y-110152814D01*
X190960224Y-110295912D01*
X191102132Y-110391700D01*
X191270000Y-110425365D01*
X192270000Y-110425365D01*
X192432814Y-110393776D01*
X192575912Y-110299776D01*
X192671700Y-110157868D01*
X192705365Y-109990000D01*
X192705365Y-109190000D01*
X192673776Y-109027186D01*
X192579776Y-108884088D01*
X192437868Y-108788300D01*
X192270000Y-108754635D01*
X191270000Y-108754635D01*
X191107186Y-108786224D01*
X190964088Y-108880224D01*
X190868300Y-109022132D01*
X190834635Y-109190000D01*
X188173423Y-109190000D01*
X187528422Y-108545000D01*
X187587002Y-108545000D01*
X187587002Y-108504950D01*
X187683691Y-108545000D01*
X187736309Y-108545000D01*
X187969698Y-108448327D01*
X188035000Y-108383025D01*
X188035000Y-108386250D01*
X188193750Y-108545000D01*
X188236309Y-108545000D01*
X188469698Y-108448327D01*
X188648327Y-108269699D01*
X188745000Y-108036310D01*
X188745000Y-107942774D01*
X194078341Y-107942774D01*
X194280092Y-108353663D01*
X194620782Y-108640902D01*
X195045460Y-108775900D01*
X195320460Y-108775900D01*
X195320460Y-107767900D01*
X195574460Y-107767900D01*
X195574460Y-108775900D01*
X195849460Y-108775900D01*
X196274138Y-108640902D01*
X196614828Y-108353663D01*
X196816579Y-107942774D01*
X196690414Y-107767900D01*
X195574460Y-107767900D01*
X195320460Y-107767900D01*
X195320460Y-107767900D01*
X194204506Y-107767900D01*
X194078341Y-107942774D01*
X188745000Y-107942774D01*
X188745000Y-107895750D01*
X188586250Y-107737000D01*
X187313000Y-107737000D01*
X187313000Y-107483000D01*
X188586250Y-107483000D01*
X188745000Y-107324250D01*
X188745000Y-107183690D01*
X188648327Y-106950301D01*
X188640057Y-106942031D01*
X191646231Y-106942031D01*
X191787892Y-107351949D01*
X192075639Y-107676452D01*
X192449522Y-107860168D01*
X192620460Y-107733634D01*
X192620460Y-106767900D01*
X192874460Y-106767900D01*
X192874460Y-107733634D01*
X193045398Y-107860168D01*
X193419281Y-107676452D01*
X193707028Y-107351949D01*
X193711493Y-107339026D01*
X194078341Y-107339026D01*
X194204506Y-107513900D01*
X195320460Y-107513900D01*
X195320460Y-106505900D01*
X195574460Y-106505900D01*
X195574460Y-107513900D01*
X196690414Y-107513900D01*
X196816579Y-107339026D01*
X196614828Y-106928137D01*
X196274138Y-106640898D01*
X195849460Y-106505900D01*
X195574460Y-106505900D01*
X195320460Y-106505900D01*
X195320460Y-106505900D01*
X195045460Y-106505900D01*
X194620782Y-106640898D01*
X194280092Y-106928137D01*
X194078341Y-107339026D01*
X193711493Y-107339026D01*
X193848689Y-106942031D01*
X193700023Y-106767900D01*
X192874460Y-106767900D01*
X192620460Y-106767900D01*
X192620460Y-106767900D01*
X191794897Y-106767900D01*
X191646231Y-106942031D01*
X188640057Y-106942031D01*
X188627000Y-106928974D01*
X188627000Y-105992857D01*
X188752900Y-106017900D01*
X191757464Y-106017900D01*
X191646231Y-106339769D01*
X191794897Y-106513900D01*
X192620460Y-106513900D01*
X192620460Y-106493900D01*
X192874460Y-106493900D01*
X192874460Y-106513900D01*
X193700023Y-106513900D01*
X193848689Y-106339769D01*
X193716842Y-105958250D01*
X193728372Y-105950676D01*
X193824160Y-105808768D01*
X193857825Y-105640900D01*
X193857825Y-105240900D01*
X193833172Y-105113833D01*
X193857825Y-104990900D01*
X193857825Y-104590900D01*
X193833172Y-104463833D01*
X193857825Y-104340900D01*
X193857825Y-103940900D01*
X193833172Y-103813833D01*
X193857825Y-103690900D01*
X193857825Y-103503560D01*
X193960787Y-103400599D01*
X194057460Y-103167210D01*
X194057460Y-103099650D01*
X193898710Y-102940900D01*
X193666921Y-102940900D01*
X193590328Y-102889200D01*
X193422460Y-102855535D01*
X193054827Y-102855535D01*
X193288122Y-102740900D01*
X193898710Y-102740900D01*
X194057460Y-102582150D01*
X194057460Y-102514590D01*
X193960787Y-102281201D01*
X193790370Y-102110785D01*
X193848689Y-101942031D01*
X193700023Y-101767900D01*
X192874460Y-101767900D01*
X192874460Y-101787900D01*
X192620460Y-101787900D01*
X192620460Y-101767900D01*
X191794897Y-101767900D01*
X191646231Y-101942031D01*
X191704550Y-102110785D01*
X191534133Y-102281201D01*
X191437460Y-102514590D01*
X191437460Y-102582150D01*
X191596210Y-102740900D01*
X192206798Y-102740900D01*
X192440093Y-102855535D01*
X192072460Y-102855535D01*
X191909646Y-102887124D01*
X191827782Y-102940900D01*
X191596210Y-102940900D01*
X191437460Y-103099650D01*
X191437460Y-103167210D01*
X191534133Y-103400599D01*
X191637095Y-103503560D01*
X191637095Y-103690900D01*
X191661748Y-103817967D01*
X191637095Y-103940900D01*
X191637095Y-104340900D01*
X191661748Y-104467967D01*
X191637095Y-104590900D01*
X191637095Y-104863900D01*
X188752900Y-104863900D01*
X188752281Y-104864023D01*
X188722000Y-104858000D01*
X188520491Y-104858000D01*
X188537001Y-104775000D01*
X188509997Y-104639247D01*
X188510750Y-104640000D01*
X188751309Y-104640000D01*
X188984698Y-104543327D01*
X189163327Y-104364699D01*
X189260000Y-104131310D01*
X189260000Y-103790750D01*
X189101250Y-103632000D01*
X188352000Y-103632000D01*
X188352000Y-103652000D01*
X188098000Y-103652000D01*
X188098000Y-103632000D01*
X188078000Y-103632000D01*
X188078000Y-103378000D01*
X188098000Y-103378000D01*
X188098000Y-103358000D01*
X188352000Y-103358000D01*
X188352000Y-103378000D01*
X189101250Y-103378000D01*
X189260000Y-103219250D01*
X189260000Y-102878690D01*
X189163327Y-102645301D01*
X189060365Y-102542340D01*
X189060365Y-101735000D01*
X189028776Y-101572186D01*
X188934776Y-101429088D01*
X188802452Y-101339769D01*
X191646231Y-101339769D01*
X191794897Y-101513900D01*
X192620460Y-101513900D01*
X192620460Y-100548166D01*
X192874460Y-100548166D01*
X192874460Y-101513900D01*
X193700023Y-101513900D01*
X193848689Y-101339769D01*
X193711494Y-100942774D01*
X194078341Y-100942774D01*
X194280092Y-101353663D01*
X194620782Y-101640902D01*
X195045460Y-101775900D01*
X195320460Y-101775900D01*
X195320460Y-100767900D01*
X195574460Y-100767900D01*
X195574460Y-101775900D01*
X195849460Y-101775900D01*
X196274138Y-101640902D01*
X196614828Y-101353663D01*
X196816579Y-100942774D01*
X196690414Y-100767900D01*
X195574460Y-100767900D01*
X195320460Y-100767900D01*
X195320460Y-100767900D01*
X194204506Y-100767900D01*
X194078341Y-100942774D01*
X193711494Y-100942774D01*
X193707028Y-100929851D01*
X193419281Y-100605348D01*
X193045398Y-100421632D01*
X192874460Y-100548166D01*
X192620460Y-100548166D01*
X192620460Y-100548166D01*
X192449522Y-100421632D01*
X192075639Y-100605348D01*
X191787892Y-100929851D01*
X191646231Y-101339769D01*
X188802452Y-101339769D01*
X188792868Y-101333300D01*
X188625000Y-101299635D01*
X187825000Y-101299635D01*
X187662186Y-101331224D01*
X187519088Y-101425224D01*
X187423300Y-101567132D01*
X187389635Y-101735000D01*
X187389635Y-101765770D01*
X187297999Y-101826999D01*
X187297997Y-101827002D01*
X187260365Y-101864634D01*
X187260365Y-101735000D01*
X187228776Y-101572186D01*
X187134776Y-101429088D01*
X186992868Y-101333300D01*
X186825000Y-101299635D01*
X186025000Y-101299635D01*
X185862186Y-101331224D01*
X185719088Y-101425224D01*
X185623300Y-101567132D01*
X185596937Y-101698591D01*
X185580192Y-101701922D01*
X185392999Y-101826999D01*
X185392997Y-101827002D01*
X185011999Y-102207999D01*
X184886922Y-102395192D01*
X184842999Y-102616000D01*
X184843000Y-102616005D01*
X184843000Y-104774995D01*
X184842999Y-104775000D01*
X184886922Y-104995808D01*
X185011999Y-105183001D01*
X185647000Y-105818001D01*
X185733802Y-105876000D01*
X185573422Y-105876000D01*
X182003133Y-102305711D01*
X183969818Y-100339026D01*
X194078341Y-100339026D01*
X194204506Y-100513900D01*
X195320460Y-100513900D01*
X195320460Y-99505900D01*
X195574460Y-99505900D01*
X195574460Y-100513900D01*
X196690414Y-100513900D01*
X196816579Y-100339026D01*
X196614828Y-99928137D01*
X196274138Y-99640898D01*
X195849460Y-99505900D01*
X195574460Y-99505900D01*
X195320460Y-99505900D01*
X195320460Y-99505900D01*
X195045460Y-99505900D01*
X194620782Y-99640898D01*
X194280092Y-99928137D01*
X194078341Y-100339026D01*
X183969818Y-100339026D01*
X187011844Y-97297000D01*
X192858635Y-97297000D01*
X192858635Y-97536000D01*
X192890224Y-97698814D01*
X192984224Y-97841912D01*
X193126132Y-97937700D01*
X193294000Y-97971365D01*
X195326000Y-97971365D01*
X195488814Y-97939776D01*
X195631912Y-97845776D01*
X195727700Y-97703868D01*
X195761365Y-97536000D01*
X195761365Y-95504000D01*
X195729776Y-95341186D01*
X195635776Y-95198088D01*
X195493868Y-95102300D01*
X195480180Y-95099555D01*
X195716385Y-94844818D01*
X195915975Y-94362944D01*
X195796836Y-94107000D01*
X194437000Y-94107000D01*
X194437000Y-94127000D01*
X194183000Y-94127000D01*
X194183000Y-94107000D01*
X192823164Y-94107000D01*
X192704025Y-94362944D01*
X192903615Y-94844818D01*
X193139030Y-95098702D01*
X193131186Y-95100224D01*
X192988088Y-95194224D01*
X192892300Y-95336132D01*
X192858635Y-95504000D01*
X192858635Y-95743000D01*
X186690000Y-95743000D01*
X186392655Y-95802146D01*
X186140578Y-95970578D01*
X178494156Y-103617000D01*
X173115139Y-103617000D01*
X173076743Y-103559536D01*
X172693888Y-103303721D01*
X172242279Y-103213890D01*
X170657721Y-103213890D01*
X170206112Y-103303721D01*
X169823257Y-103559536D01*
X169567442Y-103942391D01*
X169477611Y-104394000D01*
X169567442Y-104845609D01*
X169757110Y-105129468D01*
X167851578Y-107035000D01*
X159027000Y-107035000D01*
X159027000Y-105546372D01*
X159060365Y-105380000D01*
X159060365Y-103780000D01*
X159028776Y-103617186D01*
X159023000Y-103608393D01*
X159023000Y-103303750D01*
X158864250Y-103145000D01*
X158748690Y-103145000D01*
X158515301Y-103241673D01*
X158412340Y-103344635D01*
X158075000Y-103344635D01*
X157947933Y-103369288D01*
X157825000Y-103344635D01*
X157275000Y-103344635D01*
X157147933Y-103369288D01*
X157025000Y-103344635D01*
X156475000Y-103344635D01*
X156347933Y-103369288D01*
X156225000Y-103344635D01*
X155735365Y-103344635D01*
X155735365Y-102855000D01*
X155710712Y-102727933D01*
X155735365Y-102605000D01*
X155735365Y-102055000D01*
X155710712Y-101927933D01*
X155735365Y-101805000D01*
X155735365Y-101407000D01*
X158107578Y-101407000D01*
X158709289Y-102008711D01*
X158928923Y-102155466D01*
X159188000Y-102207000D01*
X161764635Y-102207000D01*
X161764635Y-102605000D01*
X161789288Y-102732067D01*
X161764635Y-102855000D01*
X161764635Y-103344635D01*
X161275000Y-103344635D01*
X161147933Y-103369288D01*
X161025000Y-103344635D01*
X160475000Y-103344635D01*
X160347933Y-103369288D01*
X160225000Y-103344635D01*
X159887660Y-103344635D01*
X159784699Y-103241673D01*
X159551310Y-103145000D01*
X159435750Y-103145000D01*
X159277000Y-103303750D01*
X159277000Y-103606651D01*
X159273300Y-103612132D01*
X159239635Y-103780000D01*
X159239635Y-105380000D01*
X159271224Y-105542814D01*
X159277000Y-105551607D01*
X159277000Y-105856250D01*
X159435750Y-106015000D01*
X159551310Y-106015000D01*
X159784699Y-105918327D01*
X159887660Y-105815365D01*
X160225000Y-105815365D01*
X160352067Y-105790712D01*
X160475000Y-105815365D01*
X161025000Y-105815365D01*
X161152067Y-105790712D01*
X161275000Y-105815365D01*
X161825000Y-105815365D01*
X161987814Y-105783776D01*
X162130912Y-105689776D01*
X162226700Y-105547868D01*
X162260365Y-105380000D01*
X162260365Y-103840365D01*
X163800000Y-103840365D01*
X163962814Y-103808776D01*
X164105912Y-103714776D01*
X164201700Y-103572868D01*
X164235365Y-103405000D01*
X164235365Y-102855000D01*
X164210712Y-102727933D01*
X164235365Y-102605000D01*
X164235365Y-102207000D01*
X169321578Y-102207000D01*
X169447289Y-102332711D01*
X169666923Y-102479466D01*
X169686167Y-102483294D01*
X169823257Y-102688464D01*
X170206112Y-102944279D01*
X170657721Y-103034110D01*
X172242279Y-103034110D01*
X172693888Y-102944279D01*
X173076743Y-102688464D01*
X173332558Y-102305609D01*
X173422389Y-101854000D01*
X173332558Y-101402391D01*
X173076743Y-101019536D01*
X172693888Y-100763721D01*
X172242279Y-100673890D01*
X170657721Y-100673890D01*
X170206112Y-100763721D01*
X169928223Y-100949400D01*
X169861077Y-100904534D01*
X169602000Y-100853000D01*
X164235365Y-100853000D01*
X164235365Y-100455000D01*
X164210712Y-100327933D01*
X164235365Y-100205000D01*
X164235365Y-99655000D01*
X164210712Y-99527933D01*
X164235365Y-99405000D01*
X164235365Y-99007000D01*
X168661578Y-99007000D01*
X169447289Y-99792711D01*
X169666923Y-99939466D01*
X169686167Y-99943294D01*
X169823257Y-100148464D01*
X170206112Y-100404279D01*
X170657721Y-100494110D01*
X172242279Y-100494110D01*
X172693888Y-100404279D01*
X173076743Y-100148464D01*
X173332558Y-99765609D01*
X173422389Y-99314000D01*
X173332558Y-98862391D01*
X173076743Y-98479536D01*
X172693888Y-98223721D01*
X172242279Y-98133890D01*
X170657721Y-98133890D01*
X170206112Y-98223721D01*
X169958555Y-98389133D01*
X169606403Y-98036981D01*
X169648711Y-98008711D01*
X169958555Y-97698867D01*
X170206112Y-97864279D01*
X170657721Y-97954110D01*
X172242279Y-97954110D01*
X172693888Y-97864279D01*
X173076743Y-97608464D01*
X173332558Y-97225609D01*
X173422389Y-96774000D01*
X173332558Y-96322391D01*
X173076743Y-95939536D01*
X172693888Y-95683721D01*
X172242279Y-95593890D01*
X170657721Y-95593890D01*
X170206112Y-95683721D01*
X169823257Y-95939536D01*
X169686167Y-96144706D01*
X169666923Y-96148534D01*
X169579423Y-96207000D01*
X169447288Y-96295289D01*
X168889578Y-96853000D01*
X163966372Y-96853000D01*
X163800000Y-96819635D01*
X162260365Y-96819635D01*
X162260365Y-96757000D01*
X168080000Y-96757000D01*
X168339077Y-96705466D01*
X168558711Y-96558711D01*
X169958555Y-95158867D01*
X170206112Y-95324279D01*
X170657721Y-95414110D01*
X172242279Y-95414110D01*
X172693888Y-95324279D01*
X173076743Y-95068464D01*
X173332558Y-94685609D01*
X173422389Y-94234000D01*
X173332558Y-93782391D01*
X173208722Y-93597056D01*
X192704025Y-93597056D01*
X192823164Y-93853000D01*
X194183000Y-93853000D01*
X194183000Y-92492633D01*
X194437000Y-92492633D01*
X194437000Y-93853000D01*
X195796836Y-93853000D01*
X195915975Y-93597056D01*
X195716385Y-93115182D01*
X195278379Y-92642812D01*
X194692946Y-92374017D01*
X194437000Y-92492633D01*
X194183000Y-92492633D01*
X194183000Y-92492633D01*
X193927054Y-92374017D01*
X193341621Y-92642812D01*
X192903615Y-93115182D01*
X192704025Y-93597056D01*
X173208722Y-93597056D01*
X173076743Y-93399536D01*
X172693888Y-93143721D01*
X172352598Y-93075834D01*
X172852919Y-92927846D01*
X173275724Y-92585740D01*
X173535427Y-92107875D01*
X173549783Y-92035674D01*
X173427162Y-91821000D01*
X171577000Y-91821000D01*
X171577000Y-91841000D01*
X171323000Y-91841000D01*
X171323000Y-91821000D01*
X169472838Y-91821000D01*
X169350217Y-92035674D01*
X169364573Y-92107875D01*
X169624276Y-92585740D01*
X170047081Y-92927846D01*
X170547402Y-93075834D01*
X170206112Y-93143721D01*
X169823257Y-93399536D01*
X169686167Y-93604706D01*
X169666923Y-93608534D01*
X169498721Y-93720923D01*
X169447289Y-93755289D01*
X167799578Y-95403000D01*
X162260365Y-95403000D01*
X162260365Y-95280000D01*
X162228776Y-95117186D01*
X162134776Y-94974088D01*
X161992868Y-94878300D01*
X161825000Y-94844635D01*
X161275000Y-94844635D01*
X161147933Y-94869288D01*
X161025000Y-94844635D01*
X160475000Y-94844635D01*
X160347933Y-94869288D01*
X160225000Y-94844635D01*
X159675000Y-94844635D01*
X159547933Y-94869288D01*
X159425000Y-94844635D01*
X159087660Y-94844635D01*
X158984699Y-94741673D01*
X158751310Y-94645000D01*
X158635750Y-94645000D01*
X158477000Y-94803750D01*
X158477000Y-95106651D01*
X158473300Y-95112132D01*
X158439635Y-95280000D01*
X158439635Y-96880000D01*
X158471224Y-97042814D01*
X158477000Y-97051607D01*
X158477000Y-97356250D01*
X158635750Y-97515000D01*
X158751310Y-97515000D01*
X158984699Y-97418327D01*
X159087660Y-97315365D01*
X159425000Y-97315365D01*
X159552067Y-97290712D01*
X159675000Y-97315365D01*
X160225000Y-97315365D01*
X160352067Y-97290712D01*
X160475000Y-97315365D01*
X161025000Y-97315365D01*
X161152067Y-97290712D01*
X161275000Y-97315365D01*
X161764635Y-97315365D01*
X161764635Y-97805000D01*
X161789288Y-97932067D01*
X161764635Y-98055000D01*
X161764635Y-98605000D01*
X161789288Y-98732067D01*
X161764635Y-98855000D01*
X161764635Y-99405000D01*
X161789288Y-99532067D01*
X161764635Y-99655000D01*
X161764635Y-100205000D01*
X161789288Y-100332067D01*
X161764635Y-100455000D01*
X161764635Y-100853000D01*
X159468422Y-100853000D01*
X158866711Y-100251289D01*
X158647077Y-100104534D01*
X158388000Y-100053000D01*
X155735365Y-100053000D01*
X155735365Y-99655000D01*
X155710712Y-99527933D01*
X155735365Y-99405000D01*
X155735365Y-98855000D01*
X155710712Y-98727933D01*
X155735365Y-98605000D01*
X155735365Y-98055000D01*
X155710712Y-97927933D01*
X155735365Y-97805000D01*
X155735365Y-97315365D01*
X156225000Y-97315365D01*
X156352067Y-97290712D01*
X156475000Y-97315365D01*
X157025000Y-97315365D01*
X157152067Y-97290712D01*
X157275000Y-97315365D01*
X157612340Y-97315365D01*
X157715301Y-97418327D01*
X157948690Y-97515000D01*
X158064250Y-97515000D01*
X158223000Y-97356250D01*
X158223000Y-97053349D01*
X158226700Y-97047868D01*
X158260365Y-96880000D01*
X158260365Y-95280000D01*
X158228776Y-95117186D01*
X158223000Y-95108393D01*
X158223000Y-94803750D01*
X158064250Y-94645000D01*
X157948690Y-94645000D01*
X157715301Y-94741673D01*
X157612340Y-94844635D01*
X157275000Y-94844635D01*
X157147933Y-94869288D01*
X157025000Y-94844635D01*
X156475000Y-94844635D01*
X156347933Y-94869288D01*
X156225000Y-94844635D01*
X155675000Y-94844635D01*
X155512186Y-94876224D01*
X155369088Y-94970224D01*
X155273300Y-95112132D01*
X155239635Y-95280000D01*
X155239635Y-95403000D01*
X149500698Y-95403000D01*
X149525365Y-95280000D01*
X149525365Y-94480000D01*
X149493776Y-94317186D01*
X149399776Y-94174088D01*
X149275758Y-94090376D01*
X149449699Y-94018327D01*
X149628327Y-93839698D01*
X149725000Y-93606309D01*
X149725000Y-93365750D01*
X149566250Y-93207000D01*
X148717000Y-93207000D01*
X148717000Y-93227000D01*
X148463000Y-93227000D01*
X148463000Y-93207000D01*
X148443000Y-93207000D01*
X148443000Y-92953000D01*
X148463000Y-92953000D01*
X148463000Y-92203750D01*
X148717000Y-92203750D01*
X148717000Y-92953000D01*
X149566250Y-92953000D01*
X149725000Y-92794250D01*
X149725000Y-92553691D01*
X149628327Y-92320302D01*
X149449699Y-92141673D01*
X149216310Y-92045000D01*
X148875750Y-92045000D01*
X148717000Y-92203750D01*
X148463000Y-92203750D01*
X148463000Y-92203750D01*
X148304250Y-92045000D01*
X147963690Y-92045000D01*
X147730301Y-92141673D01*
X147627340Y-92244635D01*
X146820000Y-92244635D01*
X146657186Y-92276224D01*
X146514088Y-92370224D01*
X146418300Y-92512132D01*
X146384635Y-92680000D01*
X146384635Y-92687942D01*
X146187511Y-92885067D01*
X146161362Y-92362632D01*
X146002397Y-91978857D01*
X145760213Y-91909392D01*
X144959605Y-92710000D01*
X144973748Y-92724143D01*
X144794143Y-92903748D01*
X144780000Y-92889605D01*
X144765858Y-92903748D01*
X144586253Y-92724143D01*
X144600395Y-92710000D01*
X143799787Y-91909392D01*
X143557603Y-91978857D01*
X143403210Y-92411615D01*
X143248573Y-92037365D01*
X142941531Y-91729787D01*
X143979392Y-91729787D01*
X144780000Y-92530395D01*
X145580608Y-91729787D01*
X145511143Y-91487603D01*
X145131967Y-91352326D01*
X169350217Y-91352326D01*
X169472838Y-91567000D01*
X171323000Y-91567000D01*
X171323000Y-90305890D01*
X171577000Y-90305890D01*
X171577000Y-91567000D01*
X173427162Y-91567000D01*
X173549783Y-91352326D01*
X173535427Y-91280125D01*
X173275724Y-90802260D01*
X172852919Y-90460154D01*
X172331380Y-90305890D01*
X171577000Y-90305890D01*
X171323000Y-90305890D01*
X171323000Y-90305890D01*
X170568620Y-90305890D01*
X170047081Y-90460154D01*
X169624276Y-90802260D01*
X169364573Y-91280125D01*
X169350217Y-91352326D01*
X145131967Y-91352326D01*
X144987698Y-91300856D01*
X144432632Y-91328638D01*
X144048857Y-91487603D01*
X143979392Y-91729787D01*
X142941531Y-91729787D01*
X142914394Y-91702603D01*
X142477544Y-91521207D01*
X142004531Y-91520794D01*
X141567365Y-91701427D01*
X141232603Y-92035606D01*
X141051207Y-92472456D01*
X141050797Y-92941781D01*
X140727000Y-93265578D01*
X140727000Y-84627000D01*
X198273000Y-84627000D01*
X198273000Y-116073000D01*
M02*
