G04 #@! TF.FileFunction,Legend,Bot*
%FSLAX46Y46*%
G04 Gerber Fmt 4.6, Leading zero omitted, Abs format (unit mm)*
G04 Created by KiCad (PCBNEW 4.0.2+dfsg1-stable) date to 18. toukokuuta 2017 18.21.47*
%MOMM*%
G01*
G04 APERTURE LIST*
%ADD10C,0.100000*%
%ADD11C,0.200000*%
%ADD12C,0.300000*%
%ADD13C,0.150000*%
G04 APERTURE END LIST*
D10*
D11*
X184000000Y-89750000D02*
X184000000Y-110250000D01*
D12*
X158571428Y-97278571D02*
X158571428Y-98778571D01*
X158571428Y-97350000D02*
X158428571Y-97278571D01*
X158142857Y-97278571D01*
X158000000Y-97350000D01*
X157928571Y-97421429D01*
X157857142Y-97564286D01*
X157857142Y-97992857D01*
X157928571Y-98135714D01*
X158000000Y-98207143D01*
X158142857Y-98278571D01*
X158428571Y-98278571D01*
X158571428Y-98207143D01*
X156571428Y-98278571D02*
X156571428Y-97492857D01*
X156642857Y-97350000D01*
X156785714Y-97278571D01*
X157071428Y-97278571D01*
X157214285Y-97350000D01*
X156571428Y-98207143D02*
X156714285Y-98278571D01*
X157071428Y-98278571D01*
X157214285Y-98207143D01*
X157285714Y-98064286D01*
X157285714Y-97921429D01*
X157214285Y-97778571D01*
X157071428Y-97707143D01*
X156714285Y-97707143D01*
X156571428Y-97635714D01*
X155857142Y-98278571D02*
X155857142Y-97278571D01*
X155857142Y-97564286D02*
X155785714Y-97421429D01*
X155714285Y-97350000D01*
X155571428Y-97278571D01*
X155428571Y-97278571D01*
X155142857Y-97278571D02*
X154571428Y-97278571D01*
X154928571Y-96778571D02*
X154928571Y-98064286D01*
X154857143Y-98207143D01*
X154714285Y-98278571D01*
X154571428Y-98278571D01*
X154214285Y-97278571D02*
X153857142Y-98278571D01*
X153500000Y-97278571D02*
X153857142Y-98278571D01*
X154000000Y-98635714D01*
X154071428Y-98707143D01*
X154214285Y-98778571D01*
X151785714Y-98278571D02*
X151785714Y-96778571D01*
X151142857Y-98278571D02*
X151142857Y-97492857D01*
X151214286Y-97350000D01*
X151357143Y-97278571D01*
X151571428Y-97278571D01*
X151714286Y-97350000D01*
X151785714Y-97421429D01*
X149785714Y-98278571D02*
X149785714Y-97492857D01*
X149857143Y-97350000D01*
X150000000Y-97278571D01*
X150285714Y-97278571D01*
X150428571Y-97350000D01*
X149785714Y-98207143D02*
X149928571Y-98278571D01*
X150285714Y-98278571D01*
X150428571Y-98207143D01*
X150500000Y-98064286D01*
X150500000Y-97921429D01*
X150428571Y-97778571D01*
X150285714Y-97707143D01*
X149928571Y-97707143D01*
X149785714Y-97635714D01*
X149285714Y-97278571D02*
X148714285Y-97278571D01*
X149071428Y-96778571D02*
X149071428Y-98064286D01*
X149000000Y-98207143D01*
X148857142Y-98278571D01*
X148714285Y-98278571D01*
X146428571Y-98278571D02*
X146428571Y-96778571D01*
X146428571Y-98207143D02*
X146571428Y-98278571D01*
X146857142Y-98278571D01*
X147000000Y-98207143D01*
X147071428Y-98135714D01*
X147142857Y-97992857D01*
X147142857Y-97564286D01*
X147071428Y-97421429D01*
X147000000Y-97350000D01*
X146857142Y-97278571D01*
X146571428Y-97278571D01*
X146428571Y-97350000D01*
X145714285Y-98278571D02*
X145714285Y-97278571D01*
X145714285Y-97564286D02*
X145642857Y-97421429D01*
X145571428Y-97350000D01*
X145428571Y-97278571D01*
X145285714Y-97278571D01*
X144785714Y-98278571D02*
X144785714Y-97278571D01*
X144785714Y-96778571D02*
X144857143Y-96850000D01*
X144785714Y-96921429D01*
X144714286Y-96850000D01*
X144785714Y-96778571D01*
X144785714Y-96921429D01*
X144214285Y-97278571D02*
X143857142Y-98278571D01*
X143500000Y-97278571D01*
X142357143Y-98207143D02*
X142500000Y-98278571D01*
X142785714Y-98278571D01*
X142928571Y-98207143D01*
X143000000Y-98064286D01*
X143000000Y-97492857D01*
X142928571Y-97350000D01*
X142785714Y-97278571D01*
X142500000Y-97278571D01*
X142357143Y-97350000D01*
X142285714Y-97492857D01*
X142285714Y-97635714D01*
X143000000Y-97778571D01*
X141642857Y-98278571D02*
X141642857Y-97278571D01*
X141642857Y-97564286D02*
X141571429Y-97421429D01*
X141500000Y-97350000D01*
X141357143Y-97278571D01*
X141214286Y-97278571D01*
X170428566Y-100678571D02*
X170928566Y-99964286D01*
X171285709Y-100678571D02*
X171285709Y-99178571D01*
X170714281Y-99178571D01*
X170571423Y-99250000D01*
X170499995Y-99321429D01*
X170428566Y-99464286D01*
X170428566Y-99678571D01*
X170499995Y-99821429D01*
X170571423Y-99892857D01*
X170714281Y-99964286D01*
X171285709Y-99964286D01*
X169214281Y-100607143D02*
X169357138Y-100678571D01*
X169642852Y-100678571D01*
X169785709Y-100607143D01*
X169857138Y-100464286D01*
X169857138Y-99892857D01*
X169785709Y-99750000D01*
X169642852Y-99678571D01*
X169357138Y-99678571D01*
X169214281Y-99750000D01*
X169142852Y-99892857D01*
X169142852Y-100035714D01*
X169857138Y-100178571D01*
X168642852Y-99678571D02*
X168285709Y-100678571D01*
X167928567Y-99678571D01*
X167357138Y-100678571D02*
X167357138Y-99678571D01*
X167357138Y-99178571D02*
X167428567Y-99250000D01*
X167357138Y-99321429D01*
X167285710Y-99250000D01*
X167357138Y-99178571D01*
X167357138Y-99321429D01*
X166714281Y-100607143D02*
X166571424Y-100678571D01*
X166285709Y-100678571D01*
X166142852Y-100607143D01*
X166071424Y-100464286D01*
X166071424Y-100392857D01*
X166142852Y-100250000D01*
X166285709Y-100178571D01*
X166499995Y-100178571D01*
X166642852Y-100107143D01*
X166714281Y-99964286D01*
X166714281Y-99892857D01*
X166642852Y-99750000D01*
X166499995Y-99678571D01*
X166285709Y-99678571D01*
X166142852Y-99750000D01*
X165428566Y-100678571D02*
X165428566Y-99678571D01*
X165428566Y-99178571D02*
X165499995Y-99250000D01*
X165428566Y-99321429D01*
X165357138Y-99250000D01*
X165428566Y-99178571D01*
X165428566Y-99321429D01*
X164499994Y-100678571D02*
X164642852Y-100607143D01*
X164714280Y-100535714D01*
X164785709Y-100392857D01*
X164785709Y-99964286D01*
X164714280Y-99821429D01*
X164642852Y-99750000D01*
X164499994Y-99678571D01*
X164285709Y-99678571D01*
X164142852Y-99750000D01*
X164071423Y-99821429D01*
X163999994Y-99964286D01*
X163999994Y-100392857D01*
X164071423Y-100535714D01*
X164142852Y-100607143D01*
X164285709Y-100678571D01*
X164499994Y-100678571D01*
X163357137Y-99678571D02*
X163357137Y-100678571D01*
X163357137Y-99821429D02*
X163285709Y-99750000D01*
X163142851Y-99678571D01*
X162928566Y-99678571D01*
X162785709Y-99750000D01*
X162714280Y-99892857D01*
X162714280Y-100678571D01*
X160999994Y-99178571D02*
X160071423Y-99178571D01*
X160571423Y-99750000D01*
X160357137Y-99750000D01*
X160214280Y-99821429D01*
X160142851Y-99892857D01*
X160071423Y-100035714D01*
X160071423Y-100392857D01*
X160142851Y-100535714D01*
X160214280Y-100607143D01*
X160357137Y-100678571D01*
X160785709Y-100678571D01*
X160928566Y-100607143D01*
X160999994Y-100535714D01*
X159357138Y-100678571D02*
X159071423Y-100678571D01*
X158928566Y-100607143D01*
X158857138Y-100535714D01*
X158714280Y-100321429D01*
X158642852Y-100035714D01*
X158642852Y-99464286D01*
X158714280Y-99321429D01*
X158785709Y-99250000D01*
X158928566Y-99178571D01*
X159214280Y-99178571D01*
X159357138Y-99250000D01*
X159428566Y-99321429D01*
X159499995Y-99464286D01*
X159499995Y-99821429D01*
X159428566Y-99964286D01*
X159357138Y-100035714D01*
X159214280Y-100107143D01*
X158928566Y-100107143D01*
X158785709Y-100035714D01*
X158714280Y-99964286D01*
X158642852Y-99821429D01*
X157357138Y-99678571D02*
X157357138Y-100678571D01*
X157714281Y-99107143D02*
X158071424Y-100178571D01*
X157142852Y-100178571D01*
X156642853Y-99321429D02*
X156571424Y-99250000D01*
X156428567Y-99178571D01*
X156071424Y-99178571D01*
X155928567Y-99250000D01*
X155857138Y-99321429D01*
X155785710Y-99464286D01*
X155785710Y-99607143D01*
X155857138Y-99821429D01*
X156714281Y-100678571D01*
X155785710Y-100678571D01*
X155285710Y-99178571D02*
X154285710Y-99178571D01*
X154928567Y-100678571D01*
X153499996Y-99821429D02*
X153642854Y-99750000D01*
X153714282Y-99678571D01*
X153785711Y-99535714D01*
X153785711Y-99464286D01*
X153714282Y-99321429D01*
X153642854Y-99250000D01*
X153499996Y-99178571D01*
X153214282Y-99178571D01*
X153071425Y-99250000D01*
X152999996Y-99321429D01*
X152928568Y-99464286D01*
X152928568Y-99535714D01*
X152999996Y-99678571D01*
X153071425Y-99750000D01*
X153214282Y-99821429D01*
X153499996Y-99821429D01*
X153642854Y-99892857D01*
X153714282Y-99964286D01*
X153785711Y-100107143D01*
X153785711Y-100392857D01*
X153714282Y-100535714D01*
X153642854Y-100607143D01*
X153499996Y-100678571D01*
X153214282Y-100678571D01*
X153071425Y-100607143D01*
X152999996Y-100535714D01*
X152928568Y-100392857D01*
X152928568Y-100107143D01*
X152999996Y-99964286D01*
X153071425Y-99892857D01*
X153214282Y-99821429D01*
X151642854Y-99178571D02*
X151928568Y-99178571D01*
X152071425Y-99250000D01*
X152142854Y-99321429D01*
X152285711Y-99535714D01*
X152357140Y-99821429D01*
X152357140Y-100392857D01*
X152285711Y-100535714D01*
X152214283Y-100607143D01*
X152071425Y-100678571D01*
X151785711Y-100678571D01*
X151642854Y-100607143D01*
X151571425Y-100535714D01*
X151499997Y-100392857D01*
X151499997Y-100035714D01*
X151571425Y-99892857D01*
X151642854Y-99821429D01*
X151785711Y-99750000D01*
X152071425Y-99750000D01*
X152214283Y-99821429D01*
X152285711Y-99892857D01*
X152357140Y-100035714D01*
X150071426Y-100678571D02*
X150928569Y-100678571D01*
X150499997Y-100678571D02*
X150499997Y-99178571D01*
X150642854Y-99392857D01*
X150785712Y-99535714D01*
X150928569Y-99607143D01*
X148714283Y-99178571D02*
X149428569Y-99178571D01*
X149499998Y-99892857D01*
X149428569Y-99821429D01*
X149285712Y-99750000D01*
X148928569Y-99750000D01*
X148785712Y-99821429D01*
X148714283Y-99892857D01*
X148642855Y-100035714D01*
X148642855Y-100392857D01*
X148714283Y-100535714D01*
X148785712Y-100607143D01*
X148928569Y-100678571D01*
X149285712Y-100678571D01*
X149428569Y-100607143D01*
X149499998Y-100535714D01*
X147714284Y-99178571D02*
X147571427Y-99178571D01*
X147428570Y-99250000D01*
X147357141Y-99321429D01*
X147285712Y-99464286D01*
X147214284Y-99750000D01*
X147214284Y-100107143D01*
X147285712Y-100392857D01*
X147357141Y-100535714D01*
X147428570Y-100607143D01*
X147571427Y-100678571D01*
X147714284Y-100678571D01*
X147857141Y-100607143D01*
X147928570Y-100535714D01*
X147999998Y-100392857D01*
X148071427Y-100107143D01*
X148071427Y-99750000D01*
X147999998Y-99464286D01*
X147928570Y-99321429D01*
X147857141Y-99250000D01*
X147714284Y-99178571D01*
X146499999Y-100678571D02*
X146214284Y-100678571D01*
X146071427Y-100607143D01*
X145999999Y-100535714D01*
X145857141Y-100321429D01*
X145785713Y-100035714D01*
X145785713Y-99464286D01*
X145857141Y-99321429D01*
X145928570Y-99250000D01*
X146071427Y-99178571D01*
X146357141Y-99178571D01*
X146499999Y-99250000D01*
X146571427Y-99321429D01*
X146642856Y-99464286D01*
X146642856Y-99821429D01*
X146571427Y-99964286D01*
X146499999Y-100035714D01*
X146357141Y-100107143D01*
X146071427Y-100107143D01*
X145928570Y-100035714D01*
X145857141Y-99964286D01*
X145785713Y-99821429D01*
X144499999Y-99178571D02*
X144785713Y-99178571D01*
X144928570Y-99250000D01*
X144999999Y-99321429D01*
X145142856Y-99535714D01*
X145214285Y-99821429D01*
X145214285Y-100392857D01*
X145142856Y-100535714D01*
X145071428Y-100607143D01*
X144928570Y-100678571D01*
X144642856Y-100678571D01*
X144499999Y-100607143D01*
X144428570Y-100535714D01*
X144357142Y-100392857D01*
X144357142Y-100035714D01*
X144428570Y-99892857D01*
X144499999Y-99821429D01*
X144642856Y-99750000D01*
X144928570Y-99750000D01*
X145071428Y-99821429D01*
X145142856Y-99892857D01*
X145214285Y-100035714D01*
X142999999Y-99178571D02*
X143714285Y-99178571D01*
X143785714Y-99892857D01*
X143714285Y-99821429D01*
X143571428Y-99750000D01*
X143214285Y-99750000D01*
X143071428Y-99821429D01*
X142999999Y-99892857D01*
X142928571Y-100035714D01*
X142928571Y-100392857D01*
X142999999Y-100535714D01*
X143071428Y-100607143D01*
X143214285Y-100678571D01*
X143571428Y-100678571D01*
X143714285Y-100607143D01*
X143785714Y-100535714D01*
X142071428Y-99821429D02*
X142214286Y-99750000D01*
X142285714Y-99678571D01*
X142357143Y-99535714D01*
X142357143Y-99464286D01*
X142285714Y-99321429D01*
X142214286Y-99250000D01*
X142071428Y-99178571D01*
X141785714Y-99178571D01*
X141642857Y-99250000D01*
X141571428Y-99321429D01*
X141500000Y-99464286D01*
X141500000Y-99535714D01*
X141571428Y-99678571D01*
X141642857Y-99750000D01*
X141785714Y-99821429D01*
X142071428Y-99821429D01*
X142214286Y-99892857D01*
X142285714Y-99964286D01*
X142357143Y-100107143D01*
X142357143Y-100392857D01*
X142285714Y-100535714D01*
X142214286Y-100607143D01*
X142071428Y-100678571D01*
X141785714Y-100678571D01*
X141642857Y-100607143D01*
X141571428Y-100535714D01*
X141500000Y-100392857D01*
X141500000Y-100107143D01*
X141571428Y-99964286D01*
X141642857Y-99892857D01*
X141785714Y-99821429D01*
X141000000Y-99178571D02*
X140000000Y-99178571D01*
X140642857Y-100678571D01*
X139142858Y-99178571D02*
X139000001Y-99178571D01*
X138857144Y-99250000D01*
X138785715Y-99321429D01*
X138714286Y-99464286D01*
X138642858Y-99750000D01*
X138642858Y-100107143D01*
X138714286Y-100392857D01*
X138785715Y-100535714D01*
X138857144Y-100607143D01*
X139000001Y-100678571D01*
X139142858Y-100678571D01*
X139285715Y-100607143D01*
X139357144Y-100535714D01*
X139428572Y-100392857D01*
X139500001Y-100107143D01*
X139500001Y-99750000D01*
X139428572Y-99464286D01*
X139357144Y-99321429D01*
X139285715Y-99250000D01*
X139142858Y-99178571D01*
X138071430Y-99321429D02*
X138000001Y-99250000D01*
X137857144Y-99178571D01*
X137500001Y-99178571D01*
X137357144Y-99250000D01*
X137285715Y-99321429D01*
X137214287Y-99464286D01*
X137214287Y-99607143D01*
X137285715Y-99821429D01*
X138142858Y-100678571D01*
X137214287Y-100678571D01*
X136714287Y-99178571D02*
X135785716Y-99178571D01*
X136285716Y-99750000D01*
X136071430Y-99750000D01*
X135928573Y-99821429D01*
X135857144Y-99892857D01*
X135785716Y-100035714D01*
X135785716Y-100392857D01*
X135857144Y-100535714D01*
X135928573Y-100607143D01*
X136071430Y-100678571D01*
X136500002Y-100678571D01*
X136642859Y-100607143D01*
X136714287Y-100535714D01*
X134928573Y-99821429D02*
X135071431Y-99750000D01*
X135142859Y-99678571D01*
X135214288Y-99535714D01*
X135214288Y-99464286D01*
X135142859Y-99321429D01*
X135071431Y-99250000D01*
X134928573Y-99178571D01*
X134642859Y-99178571D01*
X134500002Y-99250000D01*
X134428573Y-99321429D01*
X134357145Y-99464286D01*
X134357145Y-99535714D01*
X134428573Y-99678571D01*
X134500002Y-99750000D01*
X134642859Y-99821429D01*
X134928573Y-99821429D01*
X135071431Y-99892857D01*
X135142859Y-99964286D01*
X135214288Y-100107143D01*
X135214288Y-100392857D01*
X135142859Y-100535714D01*
X135071431Y-100607143D01*
X134928573Y-100678571D01*
X134642859Y-100678571D01*
X134500002Y-100607143D01*
X134428573Y-100535714D01*
X134357145Y-100392857D01*
X134357145Y-100107143D01*
X134428573Y-99964286D01*
X134500002Y-99892857D01*
X134642859Y-99821429D01*
X133071431Y-99678571D02*
X133071431Y-100678571D01*
X133428574Y-99107143D02*
X133785717Y-100178571D01*
X132857145Y-100178571D01*
X132428574Y-99178571D02*
X131428574Y-99178571D01*
X132071431Y-100678571D01*
X130571432Y-99178571D02*
X130428575Y-99178571D01*
X130285718Y-99250000D01*
X130214289Y-99321429D01*
X130142860Y-99464286D01*
X130071432Y-99750000D01*
X130071432Y-100107143D01*
X130142860Y-100392857D01*
X130214289Y-100535714D01*
X130285718Y-100607143D01*
X130428575Y-100678571D01*
X130571432Y-100678571D01*
X130714289Y-100607143D01*
X130785718Y-100535714D01*
X130857146Y-100392857D01*
X130928575Y-100107143D01*
X130928575Y-99750000D01*
X130857146Y-99464286D01*
X130785718Y-99321429D01*
X130714289Y-99250000D01*
X130571432Y-99178571D01*
X129214289Y-99821429D02*
X129357147Y-99750000D01*
X129428575Y-99678571D01*
X129500004Y-99535714D01*
X129500004Y-99464286D01*
X129428575Y-99321429D01*
X129357147Y-99250000D01*
X129214289Y-99178571D01*
X128928575Y-99178571D01*
X128785718Y-99250000D01*
X128714289Y-99321429D01*
X128642861Y-99464286D01*
X128642861Y-99535714D01*
X128714289Y-99678571D01*
X128785718Y-99750000D01*
X128928575Y-99821429D01*
X129214289Y-99821429D01*
X129357147Y-99892857D01*
X129428575Y-99964286D01*
X129500004Y-100107143D01*
X129500004Y-100392857D01*
X129428575Y-100535714D01*
X129357147Y-100607143D01*
X129214289Y-100678571D01*
X128928575Y-100678571D01*
X128785718Y-100607143D01*
X128714289Y-100535714D01*
X128642861Y-100392857D01*
X128642861Y-100107143D01*
X128714289Y-99964286D01*
X128785718Y-99892857D01*
X128928575Y-99821429D01*
X159214286Y-101578571D02*
X159214286Y-101864286D01*
X158642857Y-101578571D02*
X158642857Y-101864286D01*
X158214286Y-102078571D02*
X157642857Y-102078571D01*
X158000000Y-103078571D02*
X158000000Y-101792857D01*
X157928572Y-101650000D01*
X157785714Y-101578571D01*
X157642857Y-101578571D01*
X157142857Y-103078571D02*
X157142857Y-102078571D01*
X157142857Y-101578571D02*
X157214286Y-101650000D01*
X157142857Y-101721429D01*
X157071429Y-101650000D01*
X157142857Y-101578571D01*
X157142857Y-101721429D01*
X156428571Y-102078571D02*
X156428571Y-103078571D01*
X156428571Y-102221429D02*
X156357143Y-102150000D01*
X156214285Y-102078571D01*
X156000000Y-102078571D01*
X155857143Y-102150000D01*
X155785714Y-102292857D01*
X155785714Y-103078571D01*
X154428571Y-103078571D02*
X154428571Y-102292857D01*
X154500000Y-102150000D01*
X154642857Y-102078571D01*
X154928571Y-102078571D01*
X155071428Y-102150000D01*
X154428571Y-103007143D02*
X154571428Y-103078571D01*
X154928571Y-103078571D01*
X155071428Y-103007143D01*
X155142857Y-102864286D01*
X155142857Y-102721429D01*
X155071428Y-102578571D01*
X154928571Y-102507143D01*
X154571428Y-102507143D01*
X154428571Y-102435714D01*
X153499999Y-103078571D02*
X153642857Y-103007143D01*
X153714285Y-102864286D01*
X153714285Y-101578571D01*
X151785714Y-102078571D02*
X151785714Y-103578571D01*
X151785714Y-102150000D02*
X151642857Y-102078571D01*
X151357143Y-102078571D01*
X151214286Y-102150000D01*
X151142857Y-102221429D01*
X151071428Y-102364286D01*
X151071428Y-102792857D01*
X151142857Y-102935714D01*
X151214286Y-103007143D01*
X151357143Y-103078571D01*
X151642857Y-103078571D01*
X151785714Y-103007143D01*
X150428571Y-103078571D02*
X150428571Y-102078571D01*
X150428571Y-102364286D02*
X150357143Y-102221429D01*
X150285714Y-102150000D01*
X150142857Y-102078571D01*
X150000000Y-102078571D01*
X149285714Y-103078571D02*
X149428572Y-103007143D01*
X149500000Y-102935714D01*
X149571429Y-102792857D01*
X149571429Y-102364286D01*
X149500000Y-102221429D01*
X149428572Y-102150000D01*
X149285714Y-102078571D01*
X149071429Y-102078571D01*
X148928572Y-102150000D01*
X148857143Y-102221429D01*
X148785714Y-102364286D01*
X148785714Y-102792857D01*
X148857143Y-102935714D01*
X148928572Y-103007143D01*
X149071429Y-103078571D01*
X149285714Y-103078571D01*
X148357143Y-102078571D02*
X147785714Y-102078571D01*
X148142857Y-101578571D02*
X148142857Y-102864286D01*
X148071429Y-103007143D01*
X147928571Y-103078571D01*
X147785714Y-103078571D01*
X147071428Y-103078571D02*
X147214286Y-103007143D01*
X147285714Y-102935714D01*
X147357143Y-102792857D01*
X147357143Y-102364286D01*
X147285714Y-102221429D01*
X147214286Y-102150000D01*
X147071428Y-102078571D01*
X146857143Y-102078571D01*
X146714286Y-102150000D01*
X146642857Y-102221429D01*
X146571428Y-102364286D01*
X146571428Y-102792857D01*
X146642857Y-102935714D01*
X146714286Y-103007143D01*
X146857143Y-103078571D01*
X147071428Y-103078571D01*
X146142857Y-102078571D02*
X145571428Y-102078571D01*
X145928571Y-101578571D02*
X145928571Y-102864286D01*
X145857143Y-103007143D01*
X145714285Y-103078571D01*
X145571428Y-103078571D01*
X145214285Y-102078571D02*
X144857142Y-103078571D01*
X144500000Y-102078571D02*
X144857142Y-103078571D01*
X145000000Y-103435714D01*
X145071428Y-103507143D01*
X145214285Y-103578571D01*
X143928571Y-102078571D02*
X143928571Y-103578571D01*
X143928571Y-102150000D02*
X143785714Y-102078571D01*
X143500000Y-102078571D01*
X143357143Y-102150000D01*
X143285714Y-102221429D01*
X143214285Y-102364286D01*
X143214285Y-102792857D01*
X143285714Y-102935714D01*
X143357143Y-103007143D01*
X143500000Y-103078571D01*
X143785714Y-103078571D01*
X143928571Y-103007143D01*
X142000000Y-103007143D02*
X142142857Y-103078571D01*
X142428571Y-103078571D01*
X142571428Y-103007143D01*
X142642857Y-102864286D01*
X142642857Y-102292857D01*
X142571428Y-102150000D01*
X142428571Y-102078571D01*
X142142857Y-102078571D01*
X142000000Y-102150000D01*
X141928571Y-102292857D01*
X141928571Y-102435714D01*
X142642857Y-102578571D01*
X141357143Y-101578571D02*
X141357143Y-101864286D01*
X140785714Y-101578571D02*
X140785714Y-101864286D01*
X120976191Y-100285714D02*
X124023810Y-100285714D01*
X175976191Y-100285714D02*
X179023810Y-100285714D01*
X177500000Y-101809524D02*
X177500000Y-98761905D01*
D13*
X111475000Y-110325000D02*
X111475000Y-104000000D01*
X188525000Y-89675000D02*
X188525000Y-96000000D01*
X187000000Y-104000000D02*
X187000000Y-106000000D01*
X188000000Y-105000000D02*
X186000000Y-105000000D01*
X111475000Y-89675000D02*
X111475000Y-96000000D01*
X111475000Y-89675000D02*
X188525000Y-89675000D01*
X188525000Y-110325000D02*
X188525000Y-104000000D01*
X111475000Y-110325000D02*
X188525000Y-110325000D01*
M02*
