G04 #@! TF.FileFunction,Soldermask,Top*
%FSLAX46Y46*%
G04 Gerber Fmt 4.6, Leading zero omitted, Abs format (unit mm)*
G04 Created by KiCad (PCBNEW 4.0.2+dfsg1-stable) date su  5. maaliskuuta 2017 13.54.13*
%MOMM*%
G01*
G04 APERTURE LIST*
%ADD10C,0.100000*%
%ADD11C,1.000000*%
%ADD12C,2.390000*%
%ADD13C,3.450000*%
%ADD14C,0.400000*%
%ADD15R,7.000000X3.000000*%
%ADD16R,0.600000X1.500000*%
%ADD17R,1.350000X0.400000*%
%ADD18O,0.950000X1.250000*%
%ADD19O,1.550000X1.000000*%
%ADD20R,0.800000X1.600000*%
%ADD21R,3.100000X2.210000*%
%ADD22R,1.600000X0.550000*%
%ADD23R,0.550000X1.600000*%
%ADD24R,1.000000X1.000000*%
%ADD25O,5.000000X2.000000*%
%ADD26R,0.800100X0.800100*%
%ADD27R,1.000000X1.600000*%
%ADD28R,3.400000X1.600000*%
%ADD29R,3.000000X1.000000*%
%ADD30R,0.800000X1.000000*%
%ADD31R,1.000000X0.800000*%
%ADD32R,1.300000X1.100000*%
%ADD33R,1.100000X1.500000*%
G04 APERTURE END LIST*
D10*
D11*
X130250000Y-104000000D02*
G75*
G03X130250000Y-104000000I-250000J0D01*
G01*
X130250000Y-107500000D02*
G75*
G03X130250000Y-107500000I-250000J0D01*
G01*
D12*
X185930000Y-92000000D03*
D13*
X177600000Y-108000000D03*
X122400000Y-92000000D03*
D14*
X173500000Y-94750000D03*
X173500000Y-93750000D03*
X173500000Y-92750000D03*
X176500000Y-92750000D03*
X176500000Y-93750000D03*
X176500000Y-94750000D03*
X179500000Y-93750000D03*
X179500000Y-94750000D03*
X179500000Y-92750000D03*
D15*
X176500000Y-97750000D03*
X176500000Y-93750000D03*
D14*
X169500000Y-95500000D03*
X168500000Y-95500000D03*
X168500000Y-96500000D03*
X169500000Y-96500000D03*
X167500000Y-96500000D03*
D16*
X125445000Y-103300000D03*
X124175000Y-103300000D03*
X122905000Y-103300000D03*
X121635000Y-103300000D03*
X120365000Y-103300000D03*
X119095000Y-103300000D03*
X117825000Y-103300000D03*
X116555000Y-103300000D03*
X116555000Y-108700000D03*
X117825000Y-108700000D03*
X119095000Y-108700000D03*
X120365000Y-108700000D03*
X121635000Y-108700000D03*
X122905000Y-108700000D03*
X124175000Y-108700000D03*
X125445000Y-108700000D03*
D17*
X110562540Y-98699100D03*
X110562540Y-99349100D03*
X110562540Y-99999100D03*
X110562540Y-100649100D03*
X110562540Y-101299100D03*
D18*
X110562540Y-97499100D03*
X110562540Y-102499100D03*
D19*
X107862540Y-96499100D03*
X107862540Y-103499100D03*
D20*
X166595000Y-98900000D03*
X167865000Y-98900000D03*
X169135000Y-98900000D03*
X170405000Y-98900000D03*
X166595000Y-93100000D03*
X167865000Y-93100000D03*
X170405000Y-93100000D03*
X169135000Y-93100000D03*
D21*
X168500000Y-96000000D03*
D22*
X139750000Y-97200000D03*
X139750000Y-98000000D03*
X139750000Y-98800000D03*
X139750000Y-99600000D03*
X139750000Y-100400000D03*
X139750000Y-101200000D03*
X139750000Y-102000000D03*
X139750000Y-102800000D03*
D23*
X141200000Y-104250000D03*
X142000000Y-104250000D03*
X142800000Y-104250000D03*
X143600000Y-104250000D03*
X144400000Y-104250000D03*
X145200000Y-104250000D03*
X146000000Y-104250000D03*
X146800000Y-104250000D03*
D22*
X148250000Y-102800000D03*
X148250000Y-102000000D03*
X148250000Y-101200000D03*
X148250000Y-100400000D03*
X148250000Y-99600000D03*
X148250000Y-98800000D03*
X148250000Y-98000000D03*
X148250000Y-97200000D03*
D23*
X146800000Y-95750000D03*
X146000000Y-95750000D03*
X145200000Y-95750000D03*
X144400000Y-95750000D03*
X143600000Y-95750000D03*
X142800000Y-95750000D03*
X142000000Y-95750000D03*
X141200000Y-95750000D03*
D24*
X155000000Y-107000000D03*
X155000000Y-105000000D03*
X155000000Y-103000000D03*
X155000000Y-101000000D03*
X155000000Y-99000000D03*
X155000000Y-97000000D03*
X151000000Y-93000000D03*
X149000000Y-93000000D03*
X147000000Y-93000000D03*
X145000000Y-93000000D03*
X143000000Y-93000000D03*
X141000000Y-93000000D03*
X139000000Y-93000000D03*
X133000000Y-95000000D03*
X133000000Y-93000000D03*
X133000000Y-97000000D03*
X133000000Y-99000000D03*
X133000000Y-101000000D03*
X133000000Y-103000000D03*
X133000000Y-105000000D03*
X133000000Y-107000000D03*
D25*
X190000000Y-103000000D03*
X190000000Y-97000000D03*
X190000000Y-100000000D03*
D14*
X130000000Y-104550000D03*
X130000000Y-103450000D03*
X130000000Y-104000000D03*
X129500000Y-103500000D03*
X129500000Y-104500000D03*
X130550000Y-104000000D03*
X130000000Y-108050000D03*
X130000000Y-106950000D03*
X130000000Y-107500000D03*
X129500000Y-107000000D03*
X129500000Y-108000000D03*
X130550000Y-107500000D03*
X167500000Y-95500000D03*
D25*
X148750000Y-108250000D03*
D26*
X125499240Y-98050000D03*
X125499240Y-99950000D03*
X127498220Y-99000000D03*
D27*
X165500000Y-104750000D03*
X168500000Y-104750000D03*
D28*
X190000000Y-95000000D03*
X190000000Y-105000000D03*
D29*
X184000000Y-97000000D03*
X184000000Y-99000000D03*
X184000000Y-103000000D03*
X184000000Y-101000000D03*
D30*
X175600000Y-101000000D03*
X177400000Y-101000000D03*
X137500000Y-102000000D03*
X135700000Y-102000000D03*
X150600000Y-100000000D03*
X152400000Y-100000000D03*
X140900000Y-91250000D03*
X139100000Y-91250000D03*
D31*
X138500000Y-108400000D03*
X138500000Y-106600000D03*
X127500000Y-103100000D03*
X127500000Y-104900000D03*
X144500000Y-106600000D03*
X144500000Y-108400000D03*
X161500000Y-93100000D03*
X161500000Y-94900000D03*
X159250000Y-104900000D03*
X159250000Y-103100000D03*
D30*
X166100000Y-103000000D03*
X167900000Y-103000000D03*
X169100000Y-101500000D03*
X170900000Y-101500000D03*
D31*
X127500000Y-106600000D03*
X127500000Y-108400000D03*
X164500000Y-98900000D03*
X164500000Y-97100000D03*
X163000000Y-93100000D03*
X163000000Y-94900000D03*
D30*
X167900000Y-101500000D03*
X166100000Y-101500000D03*
D31*
X164500000Y-93100000D03*
X164500000Y-94900000D03*
X116500000Y-99900000D03*
X116500000Y-98100000D03*
X122500000Y-98100000D03*
X122500000Y-99900000D03*
X124000000Y-98100000D03*
X124000000Y-99900000D03*
X129000000Y-98100000D03*
X129000000Y-99900000D03*
D32*
X142650000Y-108450000D03*
X140350000Y-108450000D03*
X140350000Y-106550000D03*
X142650000Y-106550000D03*
X120650000Y-99950000D03*
X118350000Y-99950000D03*
X118350000Y-98050000D03*
X120650000Y-98050000D03*
D33*
X159250000Y-101500000D03*
X159250000Y-98500000D03*
X160750000Y-98500000D03*
X160750000Y-101500000D03*
M02*
