M48
;DRILL file {KiCad 4.0.2+dfsg1-stable} date to 18. toukokuuta 2017 18.21.50
;FORMAT={-:-/ absolute / metric / decimal}
FMAT,2
METRIC,TZ
T1C0.300
T2C0.400
T3C0.500
T4C0.550
T5C1.000
%
G90
G05
M71
T1
X129.75Y-99.75
X129.75Y-100.75
X130.75Y-99.75
X130.75Y-100.75
X131.75Y-99.75
X131.75Y-100.75
T2
X114.Y-109.
X116.25Y-106.25
X118.75Y-106.25
X120.5Y-104.5
X124.Y-95.75
X124.Y-101.
X124.Y-105.5
X124.75Y-96.75
X129.Y-93.
X130.Y-107.5
X131.25Y-107.5
X132.5Y-105.
X135.25Y-99.
X138.75Y-105.
X140.25Y-92.
X143.45Y-105.4
X143.75Y-100.
X146.25Y-100.
X148.5Y-97.75
X149.Y-95.5
X150.Y-101.25
X151.Y-99.
X152.75Y-94.75
X152.75Y-98.75
X155.Y-104.
X163.25Y-98.
X163.75Y-97.25
X163.75Y-98.75
X168.Y-100.
X169.5Y-99.
X170.5Y-98.
X171.25Y-98.75
X171.25Y-102.5
X173.5Y-100.25
X183.5Y-102.75
T5
X170.Y-92.
X178.Y-92.
T3
X107.538Y-90.499G85X108.188Y-90.499
G05
X107.538Y-97.499G85X108.188Y-97.499
G05
T4
X110.563Y-91.349G85X110.563Y-91.649
G05
X110.563Y-96.349G85X110.563Y-96.649
G05
T5
X108.75Y-99.25G85X108.75Y-100.75
G05
X180.75Y-99.25G85X180.75Y-100.75
G05
T0
M30
