G04 #@! TF.FileFunction,Soldermask,Top*
%FSLAX46Y46*%
G04 Gerber Fmt 4.6, Leading zero omitted, Abs format (unit mm)*
G04 Created by KiCad (PCBNEW 4.0.2+dfsg1-stable) date to 18. toukokuuta 2017 18.21.47*
%MOMM*%
G01*
G04 APERTURE LIST*
%ADD10C,0.100000*%
%ADD11C,1.000000*%
%ADD12O,5.000000X4.000000*%
%ADD13O,1.400000X2.900000*%
%ADD14C,0.400000*%
%ADD15C,2.390000*%
%ADD16C,3.450000*%
%ADD17R,1.600000X0.550000*%
%ADD18R,0.550000X1.600000*%
%ADD19R,1.350000X0.400000*%
%ADD20O,0.950000X1.250000*%
%ADD21O,1.550000X1.000000*%
%ADD22R,0.800000X1.000000*%
%ADD23R,1.000000X0.800000*%
%ADD24R,2.000000X3.000000*%
%ADD25R,1.500000X0.600000*%
%ADD26R,3.000000X7.000000*%
%ADD27R,3.400000X1.600000*%
%ADD28R,3.000000X1.000000*%
%ADD29O,5.000000X2.000000*%
%ADD30R,0.800000X1.600000*%
%ADD31R,3.100000X2.210000*%
%ADD32R,1.300000X1.100000*%
%ADD33R,1.100000X1.300000*%
%ADD34R,0.800100X0.800100*%
%ADD35R,1.500000X2.000000*%
%ADD36R,1.750000X1.750000*%
G04 APERTURE END LIST*
D10*
D11*
X115875000Y-106375000D02*
G75*
G03X115875000Y-106375000I-250000J0D01*
G01*
X115875000Y-108375000D02*
G75*
G03X115875000Y-108375000I-250000J0D01*
G01*
D12*
X170000000Y-92000000D03*
D13*
X180750000Y-100000000D03*
D14*
X129750000Y-99750000D03*
X130750000Y-99750000D03*
X131750000Y-99750000D03*
X131750000Y-100750000D03*
X130750000Y-100750000D03*
D15*
X185930000Y-92000000D03*
D16*
X177600000Y-108000000D03*
X122400000Y-92000000D03*
D17*
X156750000Y-97200000D03*
X156750000Y-98000000D03*
X156750000Y-98800000D03*
X156750000Y-99600000D03*
X156750000Y-100400000D03*
X156750000Y-101200000D03*
X156750000Y-102000000D03*
X156750000Y-102800000D03*
D18*
X158200000Y-104250000D03*
X159000000Y-104250000D03*
X159800000Y-104250000D03*
X160600000Y-104250000D03*
X161400000Y-104250000D03*
X162200000Y-104250000D03*
X163000000Y-104250000D03*
X163800000Y-104250000D03*
D17*
X165250000Y-102800000D03*
X165250000Y-102000000D03*
X165250000Y-101200000D03*
X165250000Y-100400000D03*
X165250000Y-99600000D03*
X165250000Y-98800000D03*
X165250000Y-98000000D03*
X165250000Y-97200000D03*
D18*
X163800000Y-95750000D03*
X163000000Y-95750000D03*
X162200000Y-95750000D03*
X161400000Y-95750000D03*
X160600000Y-95750000D03*
X159800000Y-95750000D03*
X159000000Y-95750000D03*
X158200000Y-95750000D03*
D19*
X110562540Y-92699100D03*
X110562540Y-93349100D03*
X110562540Y-93999100D03*
X110562540Y-94649100D03*
X110562540Y-95299100D03*
D20*
X110562540Y-91499100D03*
X110562540Y-96499100D03*
D21*
X107862540Y-90499100D03*
X107862540Y-97499100D03*
D22*
X121475000Y-105625000D03*
X123275000Y-105625000D03*
X123275000Y-101125000D03*
X121475000Y-101125000D03*
X153650000Y-99000000D03*
X151850000Y-99000000D03*
D23*
X168000000Y-100900000D03*
X168000000Y-99100000D03*
X150000000Y-103900000D03*
X150000000Y-102100000D03*
D22*
X151400000Y-91000000D03*
X149600000Y-91000000D03*
X153650000Y-100500000D03*
X151850000Y-100500000D03*
D23*
X129000000Y-95650000D03*
X129000000Y-93850000D03*
X128500000Y-104850000D03*
X128500000Y-106650000D03*
D22*
X131350000Y-105000000D03*
X133150000Y-105000000D03*
X133150000Y-106500000D03*
X131350000Y-106500000D03*
D23*
X113875000Y-108275000D03*
X113875000Y-106475000D03*
X124875000Y-99275000D03*
X124875000Y-97475000D03*
D22*
X121475000Y-95625000D03*
X123275000Y-95625000D03*
X125850000Y-93950000D03*
X127650000Y-93950000D03*
X127650000Y-95550000D03*
X125850000Y-95550000D03*
D24*
X139250000Y-105250000D03*
X135250000Y-105250000D03*
D25*
X119325000Y-104820000D03*
X119325000Y-103550000D03*
X119325000Y-102280000D03*
X119325000Y-101010000D03*
X119325000Y-99740000D03*
X119325000Y-98470000D03*
X119325000Y-97200000D03*
X119325000Y-95930000D03*
X113925000Y-95930000D03*
X113925000Y-97200000D03*
X113925000Y-98470000D03*
X113925000Y-99740000D03*
X113925000Y-101010000D03*
X113925000Y-102280000D03*
X113925000Y-103550000D03*
X113925000Y-104820000D03*
D14*
X115625000Y-105825000D03*
X115625000Y-106925000D03*
X115625000Y-106375000D03*
X116125000Y-106875000D03*
X116125000Y-105875000D03*
X115075000Y-106375000D03*
X115625000Y-107825000D03*
X115625000Y-108925000D03*
X115625000Y-108375000D03*
X116125000Y-108875000D03*
X116125000Y-107875000D03*
X115075000Y-108375000D03*
D26*
X139250000Y-99250000D03*
X135250000Y-99250000D03*
D27*
X191500000Y-94750000D03*
X191500000Y-104750000D03*
D28*
X185500000Y-96750000D03*
X185500000Y-98750000D03*
X185500000Y-102750000D03*
X185500000Y-100750000D03*
D29*
X190000000Y-102750000D03*
X190000000Y-96750000D03*
X190000000Y-99750000D03*
D23*
X127500000Y-98650000D03*
X127500000Y-96850000D03*
X132000000Y-95650000D03*
X132000000Y-93850000D03*
X130500000Y-95650000D03*
X130500000Y-93850000D03*
D22*
X149600000Y-92500000D03*
X151400000Y-92500000D03*
D23*
X130000000Y-104850000D03*
X130000000Y-106650000D03*
D30*
X128845000Y-103150000D03*
X130115000Y-103150000D03*
X131385000Y-103150000D03*
X132655000Y-103150000D03*
X128845000Y-97350000D03*
X130115000Y-97350000D03*
X132655000Y-97350000D03*
X131385000Y-97350000D03*
D31*
X130750000Y-100250000D03*
D32*
X151600000Y-102050000D03*
X153900000Y-102050000D03*
X153900000Y-103950000D03*
X151600000Y-103950000D03*
D33*
X121425000Y-99525000D03*
X121425000Y-97225000D03*
X123325000Y-97225000D03*
X123325000Y-99525000D03*
D34*
X123325000Y-102374240D03*
X121425000Y-102374240D03*
X122375000Y-104373220D03*
D35*
X139000000Y-92000000D03*
X147000000Y-92000000D03*
D14*
X129750000Y-100750000D03*
D13*
X108750000Y-100000000D03*
D12*
X178000000Y-92000000D03*
D36*
X165000000Y-91000000D03*
X168250000Y-97500000D03*
X168250000Y-102500000D03*
X147000000Y-109000000D03*
X147000000Y-107000000D03*
X147000000Y-105000000D03*
X147000000Y-103000000D03*
X147000000Y-101000000D03*
X147000000Y-99000000D03*
X147000000Y-97000000D03*
X147000000Y-95000000D03*
X153000000Y-91000000D03*
X155000000Y-91000000D03*
X157000000Y-91000000D03*
X159000000Y-91000000D03*
X161000000Y-91000000D03*
X165000000Y-109000000D03*
X163000000Y-109000000D03*
X161000000Y-109000000D03*
X159000000Y-109000000D03*
X157000000Y-109000000D03*
X155000000Y-109000000D03*
X163000000Y-91000000D03*
M02*
