M48
;DRILL file {KiCad 4.0.2+dfsg1-stable} date su  5. maaliskuuta 2017 13.54.16
;FORMAT={-:-/ absolute / metric / decimal}
FMAT,2
METRIC,TZ
T1C0.200
T2C0.300
T3C0.400
T4C0.500
T5C0.550
%
G90
G05
M71
T1
X148.75Y-108.25
T2
X167.5Y-95.5
X167.5Y-96.5
X168.5Y-95.5
X168.5Y-96.5
X169.5Y-95.5
X169.5Y-96.5
X173.5Y-92.75
X173.5Y-93.75
X173.5Y-94.75
X176.5Y-92.75
X176.5Y-93.75
X176.5Y-94.75
X179.5Y-92.75
X179.5Y-93.75
X179.5Y-94.75
T3
X109.5Y-101.25
X111.75Y-101.25
X117.25Y-98.05
X121.75Y-99.95
X124.75Y-98.
X126.25Y-103.25
X126.5Y-95.
X126.75Y-100.5
X126.75Y-102.5
X126.75Y-106.5
X127.5Y-100.
X128.5Y-102.5
X129.Y-99.25
X134.5Y-95.
X134.75Y-102.
X136.5Y-103.75
X137.5Y-95.
X138.5Y-104.5
X139.25Y-105.25
X139.25Y-106.55
X142.5Y-102.5
X143.5Y-102.5
X143.75Y-108.5
X144.5Y-102.5
X144.75Y-98.75
X146.75Y-99.5
X149.75Y-98.75
X152.5Y-99.
X156.25Y-98.75
X157.Y-100.25
X157.75Y-99.5
X159.25Y-93.1
X162.5Y-98.75
X164.5Y-96.
X165.25Y-102.25
X165.5Y-93.1
X165.75Y-99.
X175.5Y-100.75
X180.75Y-98.75
X182.402Y-103.
T4
X107.538Y-96.499G85X108.188Y-96.499
G05
X107.538Y-103.499G85X108.188Y-103.499
G05
T5
X110.563Y-97.349G85X110.563Y-97.649
G05
X110.563Y-102.349G85X110.563Y-102.649
G05
T0
M30
