G04 #@! TF.FileFunction,Copper,L1,Top,Signal*
%FSLAX46Y46*%
G04 Gerber Fmt 4.6, Leading zero omitted, Abs format (unit mm)*
G04 Created by KiCad (PCBNEW 4.0.2+dfsg1-stable) date su  5. maaliskuuta 2017 13.54.13*
%MOMM*%
G01*
G04 APERTURE LIST*
%ADD10C,0.100000*%
%ADD11C,0.400000*%
%ADD12C,0.400000*%
%ADD13R,7.000000X3.000000*%
%ADD14R,0.600000X1.500000*%
%ADD15R,1.350000X0.400000*%
%ADD16O,0.950000X1.250000*%
%ADD17O,1.550000X1.000000*%
%ADD18R,0.800000X1.600000*%
%ADD19R,3.100000X2.210000*%
%ADD20R,1.600000X0.550000*%
%ADD21R,0.550000X1.600000*%
%ADD22R,1.000000X1.000000*%
%ADD23O,5.000000X2.000000*%
%ADD24R,0.800100X0.800100*%
%ADD25R,1.000000X1.600000*%
%ADD26R,3.400000X1.600000*%
%ADD27R,3.000000X1.000000*%
%ADD28R,0.800000X1.000000*%
%ADD29R,1.000000X0.800000*%
%ADD30R,1.300000X1.100000*%
%ADD31R,1.100000X1.500000*%
%ADD32C,0.600000*%
%ADD33C,0.500000*%
%ADD34C,0.300000*%
%ADD35C,0.700000*%
%ADD36C,0.254000*%
G04 APERTURE END LIST*
D10*
D11*
X129500000Y-104500000D02*
G75*
G02X130000000Y-104000000I500000J0D01*
G01*
X130000000Y-104000000D02*
G75*
G02X129500000Y-103500000I0J500000D01*
G01*
X130000000Y-103450000D02*
G75*
G02X130000000Y-104550000I0J-550000D01*
G01*
X129500000Y-108000000D02*
G75*
G02X130000000Y-107500000I500000J0D01*
G01*
X130000000Y-107500000D02*
G75*
G02X129500000Y-107000000I0J500000D01*
G01*
X130000000Y-106950000D02*
G75*
G02X130000000Y-108050000I0J-550000D01*
G01*
D12*
X173500000Y-94750000D03*
X173500000Y-93750000D03*
X173500000Y-92750000D03*
X176500000Y-92750000D03*
X176500000Y-93750000D03*
X176500000Y-94750000D03*
X179500000Y-93750000D03*
X179500000Y-94750000D03*
X179500000Y-92750000D03*
D13*
X176500000Y-97750000D03*
X176500000Y-93750000D03*
D12*
X169500000Y-95500000D03*
X168500000Y-95500000D03*
X168500000Y-96500000D03*
X169500000Y-96500000D03*
X167500000Y-96500000D03*
D14*
X125445000Y-103300000D03*
X124175000Y-103300000D03*
X122905000Y-103300000D03*
X121635000Y-103300000D03*
X120365000Y-103300000D03*
X119095000Y-103300000D03*
X117825000Y-103300000D03*
X116555000Y-103300000D03*
X116555000Y-108700000D03*
X117825000Y-108700000D03*
X119095000Y-108700000D03*
X120365000Y-108700000D03*
X121635000Y-108700000D03*
X122905000Y-108700000D03*
X124175000Y-108700000D03*
X125445000Y-108700000D03*
D15*
X110562540Y-98699100D03*
X110562540Y-99349100D03*
X110562540Y-99999100D03*
X110562540Y-100649100D03*
X110562540Y-101299100D03*
D16*
X110562540Y-97499100D03*
X110562540Y-102499100D03*
D17*
X107862540Y-96499100D03*
X107862540Y-103499100D03*
D18*
X166595000Y-98900000D03*
X167865000Y-98900000D03*
X169135000Y-98900000D03*
X170405000Y-98900000D03*
X166595000Y-93100000D03*
X167865000Y-93100000D03*
X170405000Y-93100000D03*
X169135000Y-93100000D03*
D19*
X168500000Y-96000000D03*
D20*
X139750000Y-97200000D03*
X139750000Y-98000000D03*
X139750000Y-98800000D03*
X139750000Y-99600000D03*
X139750000Y-100400000D03*
X139750000Y-101200000D03*
X139750000Y-102000000D03*
X139750000Y-102800000D03*
D21*
X141200000Y-104250000D03*
X142000000Y-104250000D03*
X142800000Y-104250000D03*
X143600000Y-104250000D03*
X144400000Y-104250000D03*
X145200000Y-104250000D03*
X146000000Y-104250000D03*
X146800000Y-104250000D03*
D20*
X148250000Y-102800000D03*
X148250000Y-102000000D03*
X148250000Y-101200000D03*
X148250000Y-100400000D03*
X148250000Y-99600000D03*
X148250000Y-98800000D03*
X148250000Y-98000000D03*
X148250000Y-97200000D03*
D21*
X146800000Y-95750000D03*
X146000000Y-95750000D03*
X145200000Y-95750000D03*
X144400000Y-95750000D03*
X143600000Y-95750000D03*
X142800000Y-95750000D03*
X142000000Y-95750000D03*
X141200000Y-95750000D03*
D22*
X155000000Y-107000000D03*
X155000000Y-105000000D03*
X155000000Y-103000000D03*
X155000000Y-101000000D03*
X155000000Y-99000000D03*
X155000000Y-97000000D03*
X151000000Y-93000000D03*
X149000000Y-93000000D03*
X147000000Y-93000000D03*
X145000000Y-93000000D03*
X143000000Y-93000000D03*
X141000000Y-93000000D03*
X139000000Y-93000000D03*
X133000000Y-95000000D03*
X133000000Y-93000000D03*
X133000000Y-97000000D03*
X133000000Y-99000000D03*
X133000000Y-101000000D03*
X133000000Y-103000000D03*
X133000000Y-105000000D03*
X133000000Y-107000000D03*
D23*
X190000000Y-103000000D03*
X190000000Y-97000000D03*
X190000000Y-100000000D03*
D12*
X130000000Y-104550000D03*
X130000000Y-103450000D03*
X130000000Y-104000000D03*
X129500000Y-103500000D03*
X129500000Y-104500000D03*
X130550000Y-104000000D03*
X130000000Y-108050000D03*
X130000000Y-106950000D03*
X130000000Y-107500000D03*
X129500000Y-107000000D03*
X129500000Y-108000000D03*
X130550000Y-107500000D03*
X167500000Y-95500000D03*
D23*
X148750000Y-108250000D03*
D24*
X125499240Y-98050000D03*
X125499240Y-99950000D03*
X127498220Y-99000000D03*
D25*
X165500000Y-104750000D03*
X168500000Y-104750000D03*
D26*
X190000000Y-95000000D03*
X190000000Y-105000000D03*
D27*
X184000000Y-97000000D03*
X184000000Y-99000000D03*
X184000000Y-103000000D03*
X184000000Y-101000000D03*
D28*
X175600000Y-101000000D03*
X177400000Y-101000000D03*
X137500000Y-102000000D03*
X135700000Y-102000000D03*
X150600000Y-100000000D03*
X152400000Y-100000000D03*
X140900000Y-91250000D03*
X139100000Y-91250000D03*
D29*
X138500000Y-108400000D03*
X138500000Y-106600000D03*
X127500000Y-103100000D03*
X127500000Y-104900000D03*
X144500000Y-106600000D03*
X144500000Y-108400000D03*
X161500000Y-93100000D03*
X161500000Y-94900000D03*
X159250000Y-104900000D03*
X159250000Y-103100000D03*
D28*
X166100000Y-103000000D03*
X167900000Y-103000000D03*
X169100000Y-101500000D03*
X170900000Y-101500000D03*
D29*
X127500000Y-106600000D03*
X127500000Y-108400000D03*
X164500000Y-98900000D03*
X164500000Y-97100000D03*
X163000000Y-93100000D03*
X163000000Y-94900000D03*
D28*
X167900000Y-101500000D03*
X166100000Y-101500000D03*
D29*
X164500000Y-93100000D03*
X164500000Y-94900000D03*
X116500000Y-99900000D03*
X116500000Y-98100000D03*
X122500000Y-98100000D03*
X122500000Y-99900000D03*
X124000000Y-98100000D03*
X124000000Y-99900000D03*
X129000000Y-98100000D03*
X129000000Y-99900000D03*
D30*
X142650000Y-108450000D03*
X140350000Y-108450000D03*
X140350000Y-106550000D03*
X142650000Y-106550000D03*
X120650000Y-99950000D03*
X118350000Y-99950000D03*
X118350000Y-98050000D03*
X120650000Y-98050000D03*
D31*
X159250000Y-101500000D03*
X159250000Y-98500000D03*
X160750000Y-98500000D03*
X160750000Y-101500000D03*
D32*
X126500000Y-95000000D03*
X127500000Y-100000000D03*
X128500000Y-102500000D03*
X159250000Y-93100000D03*
X165500000Y-93100000D03*
X109500000Y-101250000D03*
X111750000Y-101250000D03*
X129000000Y-99250000D03*
X124750000Y-98000000D03*
X182402402Y-103000000D03*
X126250000Y-103250000D03*
X143750000Y-108500000D03*
X139250000Y-106550000D03*
X164500000Y-96000000D03*
X165250000Y-102250000D03*
X152500000Y-99000000D03*
X149750000Y-98750000D03*
X134750000Y-102000000D03*
X126750000Y-106500000D03*
X121750000Y-99950000D03*
X117250000Y-98050000D03*
X165750000Y-99000000D03*
X157000000Y-100250000D03*
X146750000Y-99500000D03*
X137500000Y-95000000D03*
X134500000Y-95000000D03*
X144750000Y-98750000D03*
X157750000Y-99500000D03*
X180750000Y-98750000D03*
X175500000Y-100750000D03*
X162500000Y-98750000D03*
X156250000Y-98750000D03*
X126750000Y-100500000D03*
X126750000Y-102500000D03*
X136500000Y-103750000D03*
X142500000Y-102500000D03*
X143500000Y-102500000D03*
X138500000Y-104500000D03*
X144500000Y-102500000D03*
X139250000Y-105250000D03*
D33*
X126500000Y-95000000D02*
X116000000Y-95000000D01*
X112300900Y-98699100D02*
X110562540Y-98699100D01*
X116000000Y-95000000D02*
X112300900Y-98699100D01*
D34*
X127500000Y-98000000D02*
X126500000Y-97000000D01*
X126500000Y-97000000D02*
X126500000Y-95000000D01*
X129500000Y-103500000D02*
X128500000Y-102500000D01*
X127498220Y-99998220D02*
X127498220Y-99000000D01*
X127500000Y-100000000D02*
X127498220Y-99998220D01*
X127500000Y-98000000D02*
X127500000Y-98998220D01*
X127500000Y-98998220D02*
X127498220Y-99000000D01*
X129000000Y-98000000D02*
X127500000Y-98000000D01*
D33*
X159250000Y-93100000D02*
X159250000Y-93000000D01*
D34*
X110613440Y-98750000D02*
X110562540Y-98699100D01*
D33*
X166595000Y-93100000D02*
X165500000Y-93100000D01*
X165500000Y-93100000D02*
X164600000Y-93100000D01*
X159250000Y-98500000D02*
X159250000Y-93000000D01*
D34*
X110562540Y-101299100D02*
X109549100Y-101299100D01*
X109549100Y-101299100D02*
X109500000Y-101250000D01*
X110562540Y-101299100D02*
X111700900Y-101299100D01*
X111700900Y-101299100D02*
X111750000Y-101250000D01*
X129000000Y-100000000D02*
X129000000Y-99250000D01*
X125499240Y-98249240D02*
X125499240Y-98050000D01*
X124000000Y-98000000D02*
X124750000Y-98000000D01*
X124750000Y-98000000D02*
X125449240Y-98000000D01*
X125449240Y-98000000D02*
X125499240Y-98050000D01*
X166000000Y-103000000D02*
X166000000Y-104250000D01*
X166000000Y-104250000D02*
X165500000Y-104750000D01*
D35*
X184000000Y-103000000D02*
X182402402Y-103000000D01*
D34*
X125445000Y-103300000D02*
X125495000Y-103250000D01*
X125495000Y-103250000D02*
X126250000Y-103250000D01*
D35*
X190000000Y-103000000D02*
X184000000Y-103000000D01*
D34*
X144500000Y-108500000D02*
X143750000Y-108500000D01*
X143750000Y-108500000D02*
X142700000Y-108500000D01*
X142700000Y-108500000D02*
X142650000Y-108450000D01*
X140350000Y-106550000D02*
X139250000Y-106550000D01*
X139250000Y-106550000D02*
X138550000Y-106550000D01*
X138550000Y-106550000D02*
X138500000Y-106500000D01*
X164500000Y-97000000D02*
X164500000Y-96000000D01*
X164500000Y-96000000D02*
X164500000Y-95000000D01*
X166000000Y-102250000D02*
X165250000Y-102250000D01*
X166000000Y-101500000D02*
X166000000Y-102250000D01*
X166000000Y-102250000D02*
X166000000Y-103000000D01*
D35*
X169500000Y-95500000D02*
X170405000Y-94595000D01*
X170405000Y-94595000D02*
X170405000Y-93100000D01*
D34*
X152500000Y-100000000D02*
X152500000Y-99000000D01*
X148250000Y-98800000D02*
X149700000Y-98800000D01*
X149700000Y-98800000D02*
X149750000Y-98750000D01*
X135600000Y-102000000D02*
X134750000Y-102000000D01*
X135600000Y-102000000D02*
X136600000Y-103000000D01*
X138700000Y-102800000D02*
X139750000Y-102800000D01*
X138500000Y-103000000D02*
X138700000Y-102800000D01*
X136600000Y-103000000D02*
X138500000Y-103000000D01*
X127500000Y-106500000D02*
X126750000Y-106500000D01*
X122500000Y-100000000D02*
X122450000Y-99950000D01*
X122450000Y-99950000D02*
X121750000Y-99950000D01*
X121750000Y-99950000D02*
X120650000Y-99950000D01*
X116500000Y-98000000D02*
X116550000Y-98050000D01*
X116550000Y-98050000D02*
X117250000Y-98050000D01*
X117250000Y-98050000D02*
X118350000Y-98050000D01*
D35*
X165500000Y-99000000D02*
X165750000Y-99000000D01*
X164500000Y-99000000D02*
X165500000Y-99000000D01*
X165750000Y-99000000D02*
X166495000Y-99000000D01*
D33*
X166495000Y-99000000D02*
X166595000Y-98900000D01*
D34*
X119095000Y-103300000D02*
X119095000Y-104405000D01*
X112099100Y-99349100D02*
X110562540Y-99349100D01*
X115500000Y-102750000D02*
X112099100Y-99349100D01*
X115500000Y-104250000D02*
X115500000Y-102750000D01*
X116000000Y-104750000D02*
X115500000Y-104250000D01*
X118750000Y-104750000D02*
X116000000Y-104750000D01*
X119095000Y-104405000D02*
X118750000Y-104750000D01*
X120365000Y-103300000D02*
X120365000Y-104385000D01*
X111999100Y-99999100D02*
X110562540Y-99999100D01*
X115000000Y-103000000D02*
X111999100Y-99999100D01*
X115000000Y-104500000D02*
X115000000Y-103000000D01*
X115750000Y-105250000D02*
X115000000Y-104500000D01*
X119500000Y-105250000D02*
X115750000Y-105250000D01*
X120365000Y-104385000D02*
X119500000Y-105250000D01*
X124000000Y-100000000D02*
X125449240Y-100000000D01*
X125449240Y-100000000D02*
X125499240Y-99950000D01*
X128000000Y-104000000D02*
X128600000Y-104600000D01*
X128600000Y-106100000D02*
X129500000Y-107000000D01*
X128600000Y-104600000D02*
X128600000Y-106100000D01*
X121635000Y-104235000D02*
X121800000Y-104400000D01*
X121800000Y-104400000D02*
X126200000Y-104400000D01*
X126200000Y-104400000D02*
X126600000Y-104000000D01*
X126600000Y-104000000D02*
X128000000Y-104000000D01*
X121635000Y-104200000D02*
X121635000Y-104235000D01*
X121635000Y-103300000D02*
X121635000Y-104200000D01*
X121635000Y-103300000D02*
X121635000Y-102365000D01*
X121635000Y-102365000D02*
X124000000Y-100000000D01*
X183730000Y-101270000D02*
X184290000Y-101270000D01*
X157000000Y-100250000D02*
X157250000Y-100500000D01*
X157250000Y-103850000D02*
X158400000Y-105000000D01*
X157250000Y-100500000D02*
X157250000Y-103850000D01*
X159000000Y-105000000D02*
X158400000Y-105000000D01*
X181250000Y-103750000D02*
X181250000Y-101750000D01*
X182000000Y-101000000D02*
X184000000Y-101000000D01*
X181250000Y-101750000D02*
X182000000Y-101000000D01*
X159250000Y-105000000D02*
X160250000Y-105000000D01*
X180000000Y-105000000D02*
X181250000Y-103750000D01*
X176250000Y-105000000D02*
X180000000Y-105000000D01*
X161750000Y-106500000D02*
X174750000Y-106500000D01*
X174750000Y-106500000D02*
X176250000Y-105000000D01*
X160250000Y-105000000D02*
X161750000Y-106500000D01*
X139750000Y-98000000D02*
X145250000Y-98000000D01*
X145250000Y-98000000D02*
X146750000Y-99500000D01*
X124175000Y-103300000D02*
X124175000Y-102325000D01*
X132000000Y-95000000D02*
X133000000Y-95000000D01*
X131250000Y-95750000D02*
X132000000Y-95000000D01*
X131250000Y-100750000D02*
X131250000Y-95750000D01*
X130250000Y-101750000D02*
X131250000Y-100750000D01*
X124750000Y-101750000D02*
X130250000Y-101750000D01*
X124175000Y-102325000D02*
X124750000Y-101750000D01*
X133000000Y-95000000D02*
X134500000Y-95000000D01*
X138000000Y-97500000D02*
X138500000Y-98000000D01*
X138000000Y-95500000D02*
X138000000Y-97500000D01*
X137500000Y-95000000D02*
X138000000Y-95500000D01*
X138500000Y-98000000D02*
X139750000Y-98000000D01*
X139750000Y-98800000D02*
X144700000Y-98800000D01*
X144700000Y-98800000D02*
X144750000Y-98750000D01*
X181750000Y-99000000D02*
X184000000Y-99000000D01*
X180750000Y-100000000D02*
X181750000Y-99000000D01*
X180750000Y-103500000D02*
X180750000Y-100000000D01*
X179750000Y-104500000D02*
X180750000Y-103500000D01*
X176000000Y-104500000D02*
X179750000Y-104500000D01*
X174500000Y-106000000D02*
X176000000Y-104500000D01*
X162000000Y-106000000D02*
X174500000Y-106000000D01*
X122905000Y-103300000D02*
X122905000Y-102345000D01*
X131500000Y-93000000D02*
X133000000Y-93000000D01*
X130750000Y-93750000D02*
X131500000Y-93000000D01*
X130750000Y-100500000D02*
X130750000Y-93750000D01*
X130000000Y-101250000D02*
X130750000Y-100500000D01*
X124000000Y-101250000D02*
X130000000Y-101250000D01*
X122905000Y-102345000D02*
X124000000Y-101250000D01*
X133000000Y-93000000D02*
X134000000Y-93000000D01*
X138550000Y-98800000D02*
X139750000Y-98800000D01*
X137500000Y-97750000D02*
X138550000Y-98800000D01*
X137500000Y-96500000D02*
X137500000Y-97750000D01*
X134000000Y-93000000D02*
X137500000Y-96500000D01*
X160000000Y-104000000D02*
X162000000Y-106000000D01*
X157750000Y-99500000D02*
X157750000Y-103600000D01*
X157750000Y-103600000D02*
X158150000Y-104000000D01*
X158150000Y-104000000D02*
X160000000Y-104000000D01*
X127500000Y-105000000D02*
X124250000Y-105000000D01*
X121635000Y-107615000D02*
X121635000Y-108700000D01*
X124250000Y-105000000D02*
X121635000Y-107615000D01*
X120650000Y-98050000D02*
X122450000Y-98050000D01*
X122450000Y-98050000D02*
X122500000Y-98000000D01*
X120650000Y-98050000D02*
X120450000Y-98050000D01*
X120450000Y-98050000D02*
X119500000Y-99000000D01*
X119500000Y-99000000D02*
X119500000Y-100500000D01*
X119500000Y-100500000D02*
X117825000Y-102175000D01*
X117825000Y-102175000D02*
X117825000Y-103300000D01*
X118100000Y-99950000D02*
X118100000Y-100650000D01*
X116555000Y-102195000D02*
X116555000Y-103300000D01*
X118000000Y-100750000D02*
X116555000Y-102195000D01*
X118000000Y-100750000D02*
X118000000Y-100750000D01*
X118100000Y-100650000D02*
X118000000Y-100750000D01*
X118350000Y-99950000D02*
X116550000Y-99950000D01*
X116550000Y-99950000D02*
X116500000Y-100000000D01*
X163000000Y-95000000D02*
X163000000Y-95750000D01*
X161750000Y-100500000D02*
X160750000Y-101500000D01*
X161750000Y-97000000D02*
X161750000Y-100500000D01*
X163000000Y-95750000D02*
X161750000Y-97000000D01*
X161500000Y-95000000D02*
X161500000Y-96250000D01*
X160750000Y-97000000D02*
X160750000Y-98500000D01*
X161500000Y-96250000D02*
X160750000Y-97000000D01*
X127500000Y-108500000D02*
X129000000Y-108500000D01*
X130000000Y-108500000D02*
X130000000Y-108050000D01*
X129750000Y-108750000D02*
X130000000Y-108500000D01*
X129250000Y-108750000D02*
X129750000Y-108750000D01*
X129000000Y-108500000D02*
X129250000Y-108750000D01*
X130000000Y-106950000D02*
X130000000Y-104550000D01*
X127500000Y-108500000D02*
X125645000Y-108500000D01*
X125645000Y-108500000D02*
X125445000Y-108700000D01*
D35*
X181750000Y-97000000D02*
X180750000Y-98000000D01*
X180750000Y-98000000D02*
X180750000Y-98750000D01*
X184000000Y-97000000D02*
X181750000Y-97000000D01*
D34*
X162500000Y-98750000D02*
X162500000Y-99500000D01*
X167000000Y-102000000D02*
X168000000Y-103000000D01*
X167000000Y-101000000D02*
X167000000Y-102000000D01*
X166250000Y-100250000D02*
X167000000Y-101000000D01*
X163250000Y-100250000D02*
X166250000Y-100250000D01*
X162500000Y-99500000D02*
X163250000Y-100250000D01*
X156250000Y-98750000D02*
X156250000Y-96500000D01*
X155500000Y-95750000D02*
X156250000Y-96500000D01*
X152250000Y-95750000D02*
X155500000Y-95750000D01*
D35*
X183000000Y-97000000D02*
X184000000Y-97000000D01*
X190000000Y-97000000D02*
X184000000Y-97000000D01*
D34*
X169135000Y-98900000D02*
X169135000Y-101365000D01*
X169135000Y-101365000D02*
X169000000Y-101500000D01*
X141000000Y-91250000D02*
X151500000Y-91250000D01*
X151500000Y-91250000D02*
X152250000Y-92000000D01*
X152250000Y-92000000D02*
X152250000Y-95750000D01*
X152250000Y-95750000D02*
X152250000Y-96250000D01*
X150500000Y-98500000D02*
X150500000Y-99000000D01*
X152250000Y-96250000D02*
X152250000Y-96750000D01*
X152250000Y-96750000D02*
X150500000Y-98500000D01*
X150500000Y-99000000D02*
X150500000Y-100000000D01*
X148250000Y-100400000D02*
X149500000Y-100400000D01*
X149500000Y-100400000D02*
X149900000Y-100000000D01*
D35*
X149900000Y-100000000D02*
X150500000Y-100000000D01*
D34*
X148250000Y-99600000D02*
X148250000Y-100400000D01*
X139750000Y-102000000D02*
X141250000Y-102000000D01*
X142850000Y-100400000D02*
X148250000Y-100400000D01*
X141250000Y-102000000D02*
X142850000Y-100400000D01*
X139750000Y-102000000D02*
X137600000Y-102000000D01*
D35*
X177000000Y-97750000D02*
X176500000Y-97750000D01*
D34*
X170405000Y-98900000D02*
X170405000Y-100155000D01*
X171000000Y-100750000D02*
X171000000Y-101500000D01*
X170405000Y-100155000D02*
X171000000Y-100750000D01*
X167865000Y-98900000D02*
X167865000Y-101365000D01*
X167865000Y-101365000D02*
X168000000Y-101500000D01*
X167865000Y-93100000D02*
X167865000Y-92115000D01*
X163000000Y-92250000D02*
X163000000Y-93000000D01*
X163750000Y-91500000D02*
X163000000Y-92250000D01*
X167250000Y-91500000D02*
X163750000Y-91500000D01*
X167865000Y-92115000D02*
X167250000Y-91500000D01*
X159250000Y-103000000D02*
X159250000Y-101500000D01*
X169135000Y-93100000D02*
X169135000Y-92135000D01*
X161500000Y-92000000D02*
X161500000Y-93000000D01*
X162500000Y-91000000D02*
X161500000Y-92000000D01*
X168000000Y-91000000D02*
X162500000Y-91000000D01*
X169135000Y-92135000D02*
X168000000Y-91000000D01*
X144500000Y-106500000D02*
X142700000Y-106500000D01*
X142700000Y-106500000D02*
X142650000Y-106550000D01*
X142650000Y-106550000D02*
X142750000Y-106250000D01*
X142000000Y-105500000D02*
X142000000Y-104250000D01*
X142750000Y-106250000D02*
X142000000Y-105500000D01*
X127500000Y-103000000D02*
X127250000Y-103000000D01*
X127250000Y-103000000D02*
X126750000Y-102500000D01*
X132750000Y-91250000D02*
X132500000Y-91250000D01*
X132500000Y-91250000D02*
X130250000Y-93500000D01*
X139000000Y-91250000D02*
X132750000Y-91250000D01*
X130250000Y-93500000D02*
X130250000Y-98000000D01*
X129750000Y-100750000D02*
X130250000Y-100250000D01*
X130250000Y-100250000D02*
X130250000Y-98000000D01*
X127400000Y-100750000D02*
X129750000Y-100750000D01*
X127000000Y-100750000D02*
X127400000Y-100750000D01*
X126750000Y-100500000D02*
X127000000Y-100750000D01*
X127500000Y-103000000D02*
X127750000Y-103000000D01*
X139000000Y-91250000D02*
X139000000Y-93000000D01*
X139750000Y-97200000D02*
X139750000Y-95250000D01*
X139000000Y-94500000D02*
X139000000Y-93000000D01*
X139750000Y-95250000D02*
X139000000Y-94500000D01*
X140350000Y-108450000D02*
X140550000Y-108450000D01*
X140550000Y-108450000D02*
X141500000Y-107500000D01*
X138500000Y-108500000D02*
X140300000Y-108500000D01*
X140300000Y-108500000D02*
X140350000Y-108450000D01*
X140350000Y-108450000D02*
X140450000Y-108450000D01*
X141500000Y-107500000D02*
X141500000Y-106000000D01*
X141500000Y-106000000D02*
X141200000Y-105700000D01*
X141200000Y-105700000D02*
X141200000Y-104250000D01*
X133000000Y-97000000D02*
X136000000Y-97000000D01*
X138600000Y-99600000D02*
X139750000Y-99600000D01*
X136000000Y-97000000D02*
X138600000Y-99600000D01*
X133000000Y-99000000D02*
X137250000Y-99000000D01*
X138650000Y-100400000D02*
X139750000Y-100400000D01*
X137250000Y-99000000D02*
X138650000Y-100400000D01*
X133000000Y-101000000D02*
X138300000Y-101000000D01*
X138500000Y-101200000D02*
X139750000Y-101200000D01*
X138300000Y-101000000D02*
X138500000Y-101200000D01*
X135250000Y-103000000D02*
X135750000Y-103000000D01*
X135750000Y-103000000D02*
X136500000Y-103750000D01*
X133000000Y-103000000D02*
X135250000Y-103000000D01*
X142800000Y-102800000D02*
X142800000Y-104250000D01*
X142500000Y-102500000D02*
X142800000Y-102800000D01*
X143500000Y-102500000D02*
X143600000Y-102600000D01*
X143600000Y-102600000D02*
X143600000Y-104250000D01*
X133000000Y-105000000D02*
X138000000Y-105000000D01*
X138000000Y-105000000D02*
X138500000Y-104500000D01*
X143500000Y-104150000D02*
X143600000Y-104250000D01*
X133000000Y-107000000D02*
X134000000Y-107000000D01*
X144400000Y-102600000D02*
X144400000Y-104250000D01*
X144500000Y-102500000D02*
X144400000Y-102600000D01*
X139000000Y-105500000D02*
X139250000Y-105250000D01*
X135500000Y-105500000D02*
X139000000Y-105500000D01*
X134000000Y-107000000D02*
X135500000Y-105500000D01*
X146000000Y-104250000D02*
X146000000Y-105000000D01*
X146000000Y-105000000D02*
X146500000Y-105500000D01*
X146500000Y-105500000D02*
X151500000Y-105500000D01*
X151500000Y-105500000D02*
X152000000Y-105000000D01*
X152000000Y-105000000D02*
X155000000Y-105000000D01*
X146800000Y-104250000D02*
X152000000Y-104250000D01*
X153250000Y-103000000D02*
X155000000Y-103000000D01*
X152000000Y-104250000D02*
X153250000Y-103000000D01*
X148250000Y-102800000D02*
X151950000Y-102800000D01*
X153750000Y-101000000D02*
X155000000Y-101000000D01*
X151950000Y-102800000D02*
X153750000Y-101000000D01*
X148250000Y-102000000D02*
X152000000Y-102000000D01*
X154000000Y-100000000D02*
X155000000Y-99000000D01*
X152000000Y-102000000D02*
X154000000Y-100000000D01*
X147950000Y-101250000D02*
X151000000Y-101250000D01*
X152750000Y-97000000D02*
X155000000Y-97000000D01*
X151500000Y-98250000D02*
X152750000Y-97000000D01*
X151500000Y-100750000D02*
X151500000Y-98250000D01*
X151000000Y-101250000D02*
X151500000Y-100750000D01*
X148250000Y-98000000D02*
X150250000Y-98000000D01*
X151000000Y-97250000D02*
X151000000Y-93000000D01*
X150250000Y-98000000D02*
X151000000Y-97250000D01*
X149000000Y-93000000D02*
X149000000Y-93750000D01*
X148250000Y-94500000D02*
X148250000Y-97200000D01*
X149000000Y-93750000D02*
X148250000Y-94500000D01*
X147000000Y-93000000D02*
X147000000Y-93800000D01*
X146800000Y-94000000D02*
X146800000Y-95750000D01*
X147000000Y-93800000D02*
X146800000Y-94000000D01*
X145000000Y-93000000D02*
X145000000Y-93750000D01*
X145000000Y-93750000D02*
X146000000Y-94750000D01*
X146000000Y-94750000D02*
X146000000Y-95750000D01*
X143000000Y-93000000D02*
X143000000Y-93000000D01*
X143000000Y-93000000D02*
X143750000Y-93750000D01*
X143750000Y-93750000D02*
X144250000Y-93750000D01*
X144250000Y-93750000D02*
X145200000Y-94700000D01*
X145200000Y-94700000D02*
X145200000Y-95750000D01*
X141000000Y-93000000D02*
X141000000Y-93000000D01*
X141000000Y-93000000D02*
X142250000Y-94250000D01*
X142250000Y-94250000D02*
X144000000Y-94250000D01*
X144000000Y-94250000D02*
X144400000Y-94650000D01*
X144400000Y-94650000D02*
X144400000Y-95750000D01*
X175000000Y-107000000D02*
X176500000Y-105500000D01*
X186500000Y-102000000D02*
X188500000Y-100000000D01*
X182250000Y-102000000D02*
X186500000Y-102000000D01*
X181750000Y-102500000D02*
X182250000Y-102000000D01*
X181750000Y-104000000D02*
X181750000Y-102500000D01*
X180250000Y-105500000D02*
X181750000Y-104000000D01*
X176500000Y-105500000D02*
X180250000Y-105500000D01*
X188500000Y-100000000D02*
X190000000Y-100000000D01*
X188000000Y-100000000D02*
X190000000Y-100000000D01*
X146000000Y-106000000D02*
X151500000Y-106000000D01*
X151500000Y-106000000D02*
X152500000Y-107000000D01*
X161500000Y-107000000D02*
X161500000Y-107000000D01*
X175000000Y-107000000D02*
X175000000Y-107000000D01*
X161500000Y-107000000D02*
X175000000Y-107000000D01*
X190000000Y-100000000D02*
X188750000Y-100000000D01*
X155000000Y-107000000D02*
X161500000Y-107000000D01*
X145200000Y-104250000D02*
X145200000Y-105200000D01*
X152500000Y-107000000D02*
X155000000Y-107000000D01*
X145200000Y-105200000D02*
X146000000Y-106000000D01*
D36*
G36*
X179873000Y-102197394D02*
X179447394Y-102623000D01*
X177302606Y-102623000D01*
X176877000Y-102197394D01*
X176877000Y-99750000D01*
X176866994Y-99700590D01*
X176838553Y-99658965D01*
X176796159Y-99631685D01*
X176750000Y-99623000D01*
X170127000Y-99623000D01*
X170127000Y-98127000D01*
X171000000Y-98127000D01*
X171049410Y-98116994D01*
X171089803Y-98089803D01*
X172802606Y-96377000D01*
X179873000Y-96377000D01*
X179873000Y-102197394D01*
X179873000Y-102197394D01*
G37*
X179873000Y-102197394D02*
X179447394Y-102623000D01*
X177302606Y-102623000D01*
X176877000Y-102197394D01*
X176877000Y-99750000D01*
X176866994Y-99700590D01*
X176838553Y-99658965D01*
X176796159Y-99631685D01*
X176750000Y-99623000D01*
X170127000Y-99623000D01*
X170127000Y-98127000D01*
X171000000Y-98127000D01*
X171049410Y-98116994D01*
X171089803Y-98089803D01*
X172802606Y-96377000D01*
X179873000Y-96377000D01*
X179873000Y-102197394D01*
G36*
X175873000Y-103697394D02*
X174197394Y-105373000D01*
X167627000Y-105373000D01*
X167627000Y-102627000D01*
X168500000Y-102627000D01*
X168549410Y-102616994D01*
X168589803Y-102589803D01*
X168839803Y-102339803D01*
X168867666Y-102297789D01*
X168877000Y-102250000D01*
X168877000Y-101127000D01*
X170064635Y-101127000D01*
X170064635Y-102000000D01*
X170094409Y-102158237D01*
X170187927Y-102303567D01*
X170330619Y-102401064D01*
X170500000Y-102435365D01*
X171300000Y-102435365D01*
X171458237Y-102405591D01*
X171603567Y-102312073D01*
X171701064Y-102169381D01*
X171735365Y-102000000D01*
X171735365Y-101127000D01*
X171750000Y-101127000D01*
X171799410Y-101116994D01*
X171839803Y-101089803D01*
X172552606Y-100377000D01*
X175873000Y-100377000D01*
X175873000Y-103697394D01*
X175873000Y-103697394D01*
G37*
X175873000Y-103697394D02*
X174197394Y-105373000D01*
X167627000Y-105373000D01*
X167627000Y-102627000D01*
X168500000Y-102627000D01*
X168549410Y-102616994D01*
X168589803Y-102589803D01*
X168839803Y-102339803D01*
X168867666Y-102297789D01*
X168877000Y-102250000D01*
X168877000Y-101127000D01*
X170064635Y-101127000D01*
X170064635Y-102000000D01*
X170094409Y-102158237D01*
X170187927Y-102303567D01*
X170330619Y-102401064D01*
X170500000Y-102435365D01*
X171300000Y-102435365D01*
X171458237Y-102405591D01*
X171603567Y-102312073D01*
X171701064Y-102169381D01*
X171735365Y-102000000D01*
X171735365Y-101127000D01*
X171750000Y-101127000D01*
X171799410Y-101116994D01*
X171839803Y-101089803D01*
X172552606Y-100377000D01*
X175873000Y-100377000D01*
X175873000Y-103697394D01*
M02*
