G04 #@! TF.FileFunction,Soldermask,Top*
%FSLAX46Y46*%
G04 Gerber Fmt 4.6, Leading zero omitted, Abs format (unit mm)*
G04 Created by KiCad (PCBNEW 4.0.2+dfsg1-stable) date Thu 01 Sep 2016 11:14:53 PM EEST*
%MOMM*%
G01*
G04 APERTURE LIST*
%ADD10C,0.100000*%
%ADD11R,1.143000X0.508000*%
%ADD12R,1.350000X0.400000*%
%ADD13O,0.950000X1.250000*%
%ADD14O,1.550000X1.000000*%
%ADD15R,0.800000X1.000000*%
%ADD16R,1.000760X0.599440*%
%ADD17R,1.000000X0.800000*%
%ADD18R,0.600000X1.500000*%
%ADD19R,2.032000X2.032000*%
%ADD20O,2.032000X2.032000*%
%ADD21R,2.032000X1.727200*%
%ADD22O,2.032000X1.727200*%
%ADD23R,1.100000X1.300000*%
G04 APERTURE END LIST*
D10*
D11*
X126825000Y-76905000D03*
X126825000Y-75635000D03*
X126825000Y-74365000D03*
X126825000Y-73095000D03*
X133175000Y-73095000D03*
X133175000Y-74365000D03*
X133175000Y-75635000D03*
X133175000Y-76905000D03*
D12*
X119062540Y-78699100D03*
X119062540Y-79349100D03*
X119062540Y-79999100D03*
X119062540Y-80649100D03*
X119062540Y-81299100D03*
D13*
X119062540Y-77499100D03*
X119062540Y-82499100D03*
D14*
X116362540Y-76499100D03*
X116362540Y-83499100D03*
D15*
X124100000Y-82000000D03*
X125900000Y-82000000D03*
D16*
X144949960Y-76349760D03*
X144949960Y-77650240D03*
X143050040Y-77000000D03*
D17*
X139000000Y-85900000D03*
X139000000Y-84100000D03*
X133100000Y-78500000D03*
X133100000Y-80300000D03*
D18*
X136945000Y-82300000D03*
X135675000Y-82300000D03*
X134405000Y-82300000D03*
X133135000Y-82300000D03*
X131865000Y-82300000D03*
X130595000Y-82300000D03*
X129325000Y-82300000D03*
X128055000Y-82300000D03*
X128055000Y-87700000D03*
X129325000Y-87700000D03*
X130595000Y-87700000D03*
X131865000Y-87700000D03*
X133135000Y-87700000D03*
X134405000Y-87700000D03*
X135675000Y-87700000D03*
X136945000Y-87700000D03*
D17*
X137500000Y-73400000D03*
X137500000Y-71600000D03*
X142500000Y-73400000D03*
X142500000Y-71600000D03*
X140000000Y-73400000D03*
X140000000Y-71600000D03*
D15*
X125900000Y-88000000D03*
X124100000Y-88000000D03*
D19*
X120080000Y-72540000D03*
D20*
X117540000Y-72540000D03*
D16*
X143050040Y-81650240D03*
X143050040Y-80349760D03*
X144949960Y-81000000D03*
D17*
X141500000Y-80600000D03*
X141500000Y-82400000D03*
D15*
X143100000Y-83000000D03*
X144900000Y-83000000D03*
D17*
X135500000Y-74100000D03*
X135500000Y-75900000D03*
X141500000Y-78900000D03*
X141500000Y-77100000D03*
D15*
X144900000Y-79000000D03*
X143100000Y-79000000D03*
D21*
X147500000Y-74460000D03*
D22*
X147500000Y-77000000D03*
X147500000Y-79540000D03*
X147500000Y-82080000D03*
X147500000Y-84620000D03*
D23*
X124050000Y-86150000D03*
X124050000Y-83850000D03*
X125950000Y-83850000D03*
X125950000Y-86150000D03*
D15*
X124900000Y-75500000D03*
X123100000Y-75500000D03*
X123100000Y-77000000D03*
X124900000Y-77000000D03*
M02*
