M48
;DRILL file {KiCad 4.0.2+dfsg1-stable} date su 16. lokakuuta 2016 16.05.10
;FORMAT={-:-/ absolute / inch / decimal}
FMAT,2
INCH,TZ
T1C0.012
T2C0.016
T3C0.020
T4C0.022
T5C0.040
%
G90
G05
M72
T1
X4.6654Y-3.2677
X4.8803Y-3.3908
X4.8803Y-3.4358
X4.9409Y-3.1496
T2
X4.7846Y-3.2124
X4.7846Y-3.2624
X4.8819Y-3.1594
X4.9016Y-3.4608
X4.9606Y-3.1201
T5
X5.3346Y-3.1299
X5.3346Y-3.4449
X5.4724Y-3.0906
X5.4724Y-3.1906
X5.4724Y-3.2906
X5.4724Y-3.3906
X5.4724Y-3.4906
T3
X4.5881Y-3.1496G85X4.6137Y-3.1496
G05
X4.5881Y-3.4252G85X4.6137Y-3.4252
G05
T4
X4.7072Y-3.183G85X4.7072Y-3.1948
G05
X4.7072Y-3.3799G85X4.7072Y-3.3917
G05
T0
M30
