G04 #@! TF.FileFunction,Soldermask,Top*
%FSLAX46Y46*%
G04 Gerber Fmt 4.6, Leading zero omitted, Abs format (unit mm)*
G04 Created by KiCad (PCBNEW 4.0.2+dfsg1-stable) date su 16. lokakuuta 2016 16.05.07*
%MOMM*%
G01*
G04 APERTURE LIST*
%ADD10C,0.100000*%
%ADD11C,0.400000*%
%ADD12O,2.032000X1.727200*%
%ADD13R,1.350000X0.400000*%
%ADD14O,0.950000X1.250000*%
%ADD15O,1.550000X1.000000*%
%ADD16C,1.727200*%
%ADD17R,0.800000X1.000000*%
%ADD18R,1.000000X0.800000*%
%ADD19R,1.143000X0.508000*%
%ADD20R,1.300000X1.100000*%
G04 APERTURE END LIST*
D10*
D11*
X118500000Y-83000000D03*
X125500000Y-80000000D03*
X123960000Y-87270000D03*
X123960000Y-86127000D03*
D12*
X139000000Y-78500000D03*
X139000000Y-81040000D03*
X139000000Y-83580000D03*
X139000000Y-86120000D03*
X139000000Y-88660000D03*
D13*
X119562540Y-82199100D03*
X119562540Y-82849100D03*
X119562540Y-83499100D03*
X119562540Y-84149100D03*
X119562540Y-84799100D03*
D14*
X119562540Y-80999100D03*
X119562540Y-85999100D03*
D15*
X116862540Y-79999100D03*
X116862540Y-86999100D03*
D16*
X135500000Y-87500000D03*
D17*
X132900000Y-82500000D03*
X131100000Y-82500000D03*
X132900000Y-81000000D03*
X131100000Y-81000000D03*
D18*
X122500000Y-80900000D03*
X122500000Y-79100000D03*
X128500000Y-79100000D03*
X128500000Y-80900000D03*
X121500000Y-87900000D03*
X121500000Y-86100000D03*
D17*
X131100000Y-85500000D03*
X132900000Y-85500000D03*
D19*
X129675000Y-84095000D03*
X129675000Y-85365000D03*
X129675000Y-86635000D03*
X129675000Y-87905000D03*
X123325000Y-87905000D03*
X123325000Y-86635000D03*
X123325000Y-85365000D03*
X123325000Y-84095000D03*
D17*
X126900000Y-82500000D03*
X125100000Y-82500000D03*
X132900000Y-84000000D03*
X131100000Y-84000000D03*
X131100000Y-87500000D03*
X132900000Y-87500000D03*
D16*
X135500000Y-79500000D03*
D20*
X124350000Y-79050000D03*
X126650000Y-79050000D03*
X126650000Y-80950000D03*
X124350000Y-80950000D03*
M02*
