G04 #@! TF.FileFunction,Copper,L1,Top,Signal*
%FSLAX46Y46*%
G04 Gerber Fmt 4.6, Leading zero omitted, Abs format (unit mm)*
G04 Created by KiCad (PCBNEW 4.0.2+dfsg1-stable) date Thu 01 Sep 2016 11:14:53 PM EEST*
%MOMM*%
G01*
G04 APERTURE LIST*
%ADD10C,0.100000*%
%ADD11C,0.800000*%
%ADD12R,1.143000X0.508000*%
%ADD13R,1.350000X0.400000*%
%ADD14O,0.950000X1.250000*%
%ADD15O,1.550000X1.000000*%
%ADD16R,0.800000X1.000000*%
%ADD17R,1.000760X0.599440*%
%ADD18R,1.000000X0.800000*%
%ADD19R,0.600000X1.500000*%
%ADD20R,2.032000X2.032000*%
%ADD21O,2.032000X2.032000*%
%ADD22R,2.032000X1.727200*%
%ADD23O,2.032000X1.727200*%
%ADD24R,1.100000X1.300000*%
%ADD25C,0.600000*%
%ADD26C,0.300000*%
%ADD27C,0.500000*%
%ADD28C,0.200000*%
%ADD29C,0.254000*%
G04 APERTURE END LIST*
D10*
D11*
X129140000Y-73455000D03*
X130240000Y-85240000D03*
X146242000Y-80795000D03*
X142305000Y-75080000D03*
X137225000Y-75080000D03*
X139638000Y-78001000D03*
X138495000Y-82065000D03*
D12*
X126825000Y-76905000D03*
X126825000Y-75635000D03*
X126825000Y-74365000D03*
X126825000Y-73095000D03*
X133175000Y-73095000D03*
X133175000Y-74365000D03*
X133175000Y-75635000D03*
X133175000Y-76905000D03*
D13*
X119062540Y-78699100D03*
X119062540Y-79349100D03*
X119062540Y-79999100D03*
X119062540Y-80649100D03*
X119062540Y-81299100D03*
D14*
X119062540Y-77499100D03*
X119062540Y-82499100D03*
D15*
X116362540Y-76499100D03*
X116362540Y-83499100D03*
D16*
X124100000Y-82000000D03*
X125900000Y-82000000D03*
D17*
X144949960Y-76349760D03*
X144949960Y-77650240D03*
X143050040Y-77000000D03*
D18*
X139000000Y-85900000D03*
X139000000Y-84100000D03*
X133100000Y-78500000D03*
X133100000Y-80300000D03*
D19*
X136945000Y-82300000D03*
X135675000Y-82300000D03*
X134405000Y-82300000D03*
X133135000Y-82300000D03*
X131865000Y-82300000D03*
X130595000Y-82300000D03*
X129325000Y-82300000D03*
X128055000Y-82300000D03*
X128055000Y-87700000D03*
X129325000Y-87700000D03*
X130595000Y-87700000D03*
X131865000Y-87700000D03*
X133135000Y-87700000D03*
X134405000Y-87700000D03*
X135675000Y-87700000D03*
X136945000Y-87700000D03*
D18*
X137500000Y-73400000D03*
X137500000Y-71600000D03*
X142500000Y-73400000D03*
X142500000Y-71600000D03*
X140000000Y-73400000D03*
X140000000Y-71600000D03*
D16*
X125900000Y-88000000D03*
X124100000Y-88000000D03*
D20*
X120080000Y-72540000D03*
D21*
X117540000Y-72540000D03*
D17*
X143050040Y-81650240D03*
X143050040Y-80349760D03*
X144949960Y-81000000D03*
D18*
X141500000Y-80600000D03*
X141500000Y-82400000D03*
D16*
X143100000Y-83000000D03*
X144900000Y-83000000D03*
D18*
X135500000Y-74100000D03*
X135500000Y-75900000D03*
X141500000Y-78900000D03*
X141500000Y-77100000D03*
D16*
X144900000Y-79000000D03*
X143100000Y-79000000D03*
D22*
X147500000Y-74460000D03*
D23*
X147500000Y-77000000D03*
X147500000Y-79540000D03*
X147500000Y-82080000D03*
X147500000Y-84620000D03*
D24*
X124050000Y-86150000D03*
X124050000Y-83850000D03*
X125950000Y-83850000D03*
X125950000Y-86150000D03*
D16*
X124900000Y-75500000D03*
X123100000Y-75500000D03*
X123100000Y-77000000D03*
X124900000Y-77000000D03*
D11*
X130750000Y-76750000D03*
D25*
X134500000Y-73200000D03*
X132000000Y-84500000D03*
X143400000Y-71400000D03*
X126800000Y-71600000D03*
X131500000Y-80000000D03*
X129000000Y-80000000D03*
X138368000Y-78890000D03*
X138750000Y-72750000D03*
X133200000Y-84000000D03*
X140000000Y-74500000D03*
X140500000Y-82500000D03*
D26*
X126825000Y-74365000D02*
X126790000Y-74400000D01*
X134500000Y-73200000D02*
X134500000Y-73000000D01*
X139000000Y-86000000D02*
X133500000Y-86000000D01*
X134500000Y-73000000D02*
X134405000Y-73095000D01*
X133500000Y-86000000D02*
X132000000Y-84500000D01*
X133175000Y-73095000D02*
X134405000Y-73095000D01*
X136000000Y-71500000D02*
X137500000Y-71500000D01*
X134405000Y-73095000D02*
X136000000Y-71500000D01*
X126825000Y-76905000D02*
X128095000Y-76905000D01*
X131905000Y-73095000D02*
X133175000Y-73095000D01*
X128095000Y-76905000D02*
X131905000Y-73095000D01*
X119062540Y-78699100D02*
X126300900Y-78699100D01*
X126825000Y-78175000D02*
X126825000Y-76905000D01*
X126300900Y-78699100D02*
X126825000Y-78175000D01*
X126825000Y-76905000D02*
X126730000Y-77000000D01*
X126730000Y-77000000D02*
X125000000Y-77000000D01*
X125100000Y-77100000D02*
X125000000Y-77000000D01*
X139000000Y-86000000D02*
X139000000Y-87000000D01*
X138300000Y-87700000D02*
X136945000Y-87700000D01*
X139000000Y-87000000D02*
X138300000Y-87700000D01*
X135615000Y-73885000D02*
X135500000Y-74000000D01*
X144949960Y-81000000D02*
X144949960Y-80550040D01*
X145960000Y-79540000D02*
X147500000Y-79540000D01*
X144949960Y-80550040D02*
X145960000Y-79540000D01*
X145000000Y-83000000D02*
X145000000Y-81050040D01*
X145000000Y-81050040D02*
X144949960Y-81000000D01*
X147500000Y-77000000D02*
X145600200Y-77000000D01*
X145600200Y-77000000D02*
X144949960Y-76349760D01*
X133175000Y-75635000D02*
X134235000Y-75635000D01*
X134600000Y-76000000D02*
X135500000Y-76000000D01*
X134235000Y-75635000D02*
X134600000Y-76000000D01*
X142500000Y-71500000D02*
X143300000Y-71500000D01*
X143300000Y-71500000D02*
X143400000Y-71400000D01*
D27*
X126825000Y-73095000D02*
X126825000Y-71625000D01*
X126825000Y-71625000D02*
X126800000Y-71600000D01*
D26*
X126825000Y-73095000D02*
X126820000Y-73100000D01*
X119062540Y-79349100D02*
X129349100Y-79349100D01*
X130595000Y-80595000D02*
X130595000Y-82300000D01*
X129349100Y-79349100D02*
X130595000Y-80595000D01*
X119062540Y-79999100D02*
X128999100Y-79999100D01*
X131865000Y-80365000D02*
X131865000Y-82300000D01*
X131500000Y-80000000D02*
X131865000Y-80365000D01*
X128999100Y-79999100D02*
X129000000Y-80000000D01*
X141500000Y-79000000D02*
X138478000Y-79000000D01*
X138478000Y-79000000D02*
X138368000Y-78890000D01*
X140000000Y-71500000D02*
X139250000Y-71500000D01*
X139250000Y-71500000D02*
X138750000Y-72000000D01*
X138750000Y-72000000D02*
X138750000Y-72750000D01*
X133135000Y-83935000D02*
X133135000Y-82300000D01*
X133200000Y-84000000D02*
X133135000Y-83935000D01*
X141500000Y-79000000D02*
X143000000Y-79000000D01*
X133135000Y-82300000D02*
X133135000Y-80535000D01*
X133135000Y-80535000D02*
X133000000Y-80400000D01*
X133000000Y-80400000D02*
X133100000Y-80400000D01*
X145000000Y-79000000D02*
X145000000Y-77700280D01*
X145000000Y-77700280D02*
X144949960Y-77650240D01*
X140000000Y-74500000D02*
X140000000Y-73500000D01*
X140500000Y-82500000D02*
X141500000Y-82500000D01*
X143000000Y-83000000D02*
X142000000Y-83000000D01*
X142000000Y-83000000D02*
X141500000Y-82500000D01*
X137500000Y-73500000D02*
X140000000Y-73500000D01*
X140000000Y-73500000D02*
X142500000Y-73500000D01*
X135675000Y-82300000D02*
X135675000Y-80825000D01*
X139500000Y-81500000D02*
X142899800Y-81500000D01*
X138500000Y-80500000D02*
X139500000Y-81500000D01*
X136000000Y-80500000D02*
X138500000Y-80500000D01*
X135675000Y-80825000D02*
X136000000Y-80500000D01*
X142899800Y-81500000D02*
X143050040Y-81650240D01*
X143050040Y-77000000D02*
X141500000Y-77000000D01*
X134405000Y-82300000D02*
X134405000Y-79595000D01*
X137000000Y-77000000D02*
X141500000Y-77000000D01*
X134405000Y-79595000D02*
X137000000Y-77000000D01*
X125950000Y-86150000D02*
X125950000Y-87950000D01*
D28*
X125950000Y-87950000D02*
X126000000Y-88000000D01*
D26*
X129325000Y-82300000D02*
X129325000Y-84175000D01*
X127350000Y-86150000D02*
X125950000Y-86150000D01*
X129325000Y-84175000D02*
X127350000Y-86150000D01*
X128055000Y-82300000D02*
X128055000Y-83945000D01*
X125000000Y-85000000D02*
X124050000Y-84050000D01*
X127000000Y-85000000D02*
X125000000Y-85000000D01*
X128055000Y-83945000D02*
X127000000Y-85000000D01*
X124050000Y-84050000D02*
X124050000Y-83850000D01*
X124050000Y-83850000D02*
X124050000Y-82050000D01*
X124050000Y-82050000D02*
X124000000Y-82000000D01*
D28*
X124050000Y-83450000D02*
X124050000Y-83850000D01*
X128055000Y-82300000D02*
X128055000Y-81945000D01*
X128055000Y-82055000D02*
X128055000Y-82300000D01*
D26*
X141500000Y-80500000D02*
X142899800Y-80500000D01*
X142899800Y-80500000D02*
X143050040Y-80349760D01*
X126825000Y-75635000D02*
X126790000Y-75600000D01*
X126790000Y-75600000D02*
X125100000Y-75600000D01*
X125100000Y-75600000D02*
X125000000Y-75500000D01*
X125100000Y-75400000D02*
X125000000Y-75500000D01*
X123000000Y-75500000D02*
X123000000Y-77000000D01*
D29*
G36*
X149623000Y-89623000D02*
X115377000Y-89623000D01*
X115377000Y-88285750D01*
X123065000Y-88285750D01*
X123065000Y-88626310D01*
X123161673Y-88859699D01*
X123340302Y-89038327D01*
X123573691Y-89135000D01*
X123814250Y-89135000D01*
X123973000Y-88976250D01*
X123973000Y-88127000D01*
X124227000Y-88127000D01*
X124227000Y-88976250D01*
X124385750Y-89135000D01*
X124626309Y-89135000D01*
X124859698Y-89038327D01*
X125038327Y-88859699D01*
X125135000Y-88626310D01*
X125135000Y-88285750D01*
X124976250Y-88127000D01*
X124227000Y-88127000D01*
X123973000Y-88127000D01*
X123223750Y-88127000D01*
X123065000Y-88285750D01*
X115377000Y-88285750D01*
X115377000Y-86435750D01*
X122865000Y-86435750D01*
X122865000Y-86926309D01*
X122961673Y-87159698D01*
X123097413Y-87295439D01*
X123065000Y-87373690D01*
X123065000Y-87714250D01*
X123223750Y-87873000D01*
X123973000Y-87873000D01*
X123973000Y-87023750D01*
X123923000Y-86973750D01*
X123923000Y-86277000D01*
X123023750Y-86277000D01*
X122865000Y-86435750D01*
X115377000Y-86435750D01*
X115377000Y-85373691D01*
X122865000Y-85373691D01*
X122865000Y-85864250D01*
X123023750Y-86023000D01*
X123923000Y-86023000D01*
X123923000Y-85023750D01*
X123764250Y-84865000D01*
X123373690Y-84865000D01*
X123140301Y-84961673D01*
X122961673Y-85140302D01*
X122865000Y-85373691D01*
X115377000Y-85373691D01*
X115377000Y-84365164D01*
X115535862Y-84499102D01*
X115960540Y-84634100D01*
X116235540Y-84634100D01*
X116235540Y-83626100D01*
X116489540Y-83626100D01*
X116489540Y-84634100D01*
X116764540Y-84634100D01*
X117189218Y-84499102D01*
X117529908Y-84211863D01*
X117731659Y-83800974D01*
X117605494Y-83626100D01*
X116489540Y-83626100D01*
X116235540Y-83626100D01*
X116215540Y-83626100D01*
X116215540Y-83372100D01*
X116235540Y-83372100D01*
X116235540Y-82364100D01*
X116489540Y-82364100D01*
X116489540Y-83372100D01*
X117605494Y-83372100D01*
X117731659Y-83197226D01*
X117536731Y-82800231D01*
X117961311Y-82800231D01*
X118102972Y-83210149D01*
X118390719Y-83534652D01*
X118764602Y-83718368D01*
X118935540Y-83591834D01*
X118935540Y-82626100D01*
X119189540Y-82626100D01*
X119189540Y-83591834D01*
X119360478Y-83718368D01*
X119734361Y-83534652D01*
X120022108Y-83210149D01*
X120025615Y-83200000D01*
X123166594Y-83200000D01*
X123166594Y-84500000D01*
X123189395Y-84621179D01*
X123261012Y-84732474D01*
X123370286Y-84807138D01*
X123500000Y-84833406D01*
X124158826Y-84833406D01*
X124263085Y-84937665D01*
X124177000Y-85023750D01*
X124177000Y-86023000D01*
X124197000Y-86023000D01*
X124197000Y-86277000D01*
X124177000Y-86277000D01*
X124177000Y-87276250D01*
X124227000Y-87326250D01*
X124227000Y-87873000D01*
X124976250Y-87873000D01*
X125135000Y-87714250D01*
X125135000Y-87373690D01*
X125073298Y-87224728D01*
X125138327Y-87159698D01*
X125184404Y-87048457D01*
X125270286Y-87107138D01*
X125400000Y-87133406D01*
X125473000Y-87133406D01*
X125473000Y-87171674D01*
X125378821Y-87189395D01*
X125267526Y-87261012D01*
X125192862Y-87370286D01*
X125166594Y-87500000D01*
X125166594Y-88500000D01*
X125189395Y-88621179D01*
X125261012Y-88732474D01*
X125370286Y-88807138D01*
X125500000Y-88833406D01*
X126300000Y-88833406D01*
X126421179Y-88810605D01*
X126532474Y-88738988D01*
X126607138Y-88629714D01*
X126633406Y-88500000D01*
X126633406Y-87500000D01*
X126610605Y-87378821D01*
X126538988Y-87267526D01*
X126429714Y-87192862D01*
X126427000Y-87192312D01*
X126427000Y-87133406D01*
X126500000Y-87133406D01*
X126621179Y-87110605D01*
X126732474Y-87038988D01*
X126793277Y-86950000D01*
X127421594Y-86950000D01*
X127421594Y-88450000D01*
X127444395Y-88571179D01*
X127516012Y-88682474D01*
X127625286Y-88757138D01*
X127755000Y-88783406D01*
X128355000Y-88783406D01*
X128476179Y-88760605D01*
X128587474Y-88688988D01*
X128662138Y-88579714D01*
X128688406Y-88450000D01*
X128688406Y-86950000D01*
X128691594Y-86950000D01*
X128691594Y-88450000D01*
X128714395Y-88571179D01*
X128786012Y-88682474D01*
X128895286Y-88757138D01*
X129025000Y-88783406D01*
X129625000Y-88783406D01*
X129746179Y-88760605D01*
X129857474Y-88688988D01*
X129932138Y-88579714D01*
X129958406Y-88450000D01*
X129958406Y-86950000D01*
X129961594Y-86950000D01*
X129961594Y-88450000D01*
X129984395Y-88571179D01*
X130056012Y-88682474D01*
X130165286Y-88757138D01*
X130295000Y-88783406D01*
X130895000Y-88783406D01*
X131016179Y-88760605D01*
X131127474Y-88688988D01*
X131202138Y-88579714D01*
X131228406Y-88450000D01*
X131228406Y-86950000D01*
X131231594Y-86950000D01*
X131231594Y-88450000D01*
X131254395Y-88571179D01*
X131326012Y-88682474D01*
X131435286Y-88757138D01*
X131565000Y-88783406D01*
X132165000Y-88783406D01*
X132286179Y-88760605D01*
X132397474Y-88688988D01*
X132472138Y-88579714D01*
X132498406Y-88450000D01*
X132498406Y-86950000D01*
X132501594Y-86950000D01*
X132501594Y-88450000D01*
X132524395Y-88571179D01*
X132596012Y-88682474D01*
X132705286Y-88757138D01*
X132835000Y-88783406D01*
X133435000Y-88783406D01*
X133556179Y-88760605D01*
X133667474Y-88688988D01*
X133742138Y-88579714D01*
X133768406Y-88450000D01*
X133768406Y-86950000D01*
X133771594Y-86950000D01*
X133771594Y-88450000D01*
X133794395Y-88571179D01*
X133866012Y-88682474D01*
X133975286Y-88757138D01*
X134105000Y-88783406D01*
X134705000Y-88783406D01*
X134826179Y-88760605D01*
X134937474Y-88688988D01*
X135012138Y-88579714D01*
X135038406Y-88450000D01*
X135038406Y-86950000D01*
X135041594Y-86950000D01*
X135041594Y-88450000D01*
X135064395Y-88571179D01*
X135136012Y-88682474D01*
X135245286Y-88757138D01*
X135375000Y-88783406D01*
X135975000Y-88783406D01*
X136096179Y-88760605D01*
X136207474Y-88688988D01*
X136282138Y-88579714D01*
X136308406Y-88450000D01*
X136308406Y-86950000D01*
X136285605Y-86828821D01*
X136213988Y-86717526D01*
X136104714Y-86642862D01*
X135975000Y-86616594D01*
X135375000Y-86616594D01*
X135253821Y-86639395D01*
X135142526Y-86711012D01*
X135067862Y-86820286D01*
X135041594Y-86950000D01*
X135038406Y-86950000D01*
X135015605Y-86828821D01*
X134943988Y-86717526D01*
X134834714Y-86642862D01*
X134705000Y-86616594D01*
X134105000Y-86616594D01*
X133983821Y-86639395D01*
X133872526Y-86711012D01*
X133797862Y-86820286D01*
X133771594Y-86950000D01*
X133768406Y-86950000D01*
X133745605Y-86828821D01*
X133673988Y-86717526D01*
X133564714Y-86642862D01*
X133435000Y-86616594D01*
X132835000Y-86616594D01*
X132713821Y-86639395D01*
X132602526Y-86711012D01*
X132527862Y-86820286D01*
X132501594Y-86950000D01*
X132498406Y-86950000D01*
X132475605Y-86828821D01*
X132403988Y-86717526D01*
X132294714Y-86642862D01*
X132165000Y-86616594D01*
X131565000Y-86616594D01*
X131443821Y-86639395D01*
X131332526Y-86711012D01*
X131257862Y-86820286D01*
X131231594Y-86950000D01*
X131228406Y-86950000D01*
X131205605Y-86828821D01*
X131133988Y-86717526D01*
X131024714Y-86642862D01*
X130895000Y-86616594D01*
X130295000Y-86616594D01*
X130173821Y-86639395D01*
X130062526Y-86711012D01*
X129987862Y-86820286D01*
X129961594Y-86950000D01*
X129958406Y-86950000D01*
X129935605Y-86828821D01*
X129863988Y-86717526D01*
X129754714Y-86642862D01*
X129625000Y-86616594D01*
X129025000Y-86616594D01*
X128903821Y-86639395D01*
X128792526Y-86711012D01*
X128717862Y-86820286D01*
X128691594Y-86950000D01*
X128688406Y-86950000D01*
X128665605Y-86828821D01*
X128593988Y-86717526D01*
X128484714Y-86642862D01*
X128355000Y-86616594D01*
X127755000Y-86616594D01*
X127633821Y-86639395D01*
X127522526Y-86711012D01*
X127447862Y-86820286D01*
X127421594Y-86950000D01*
X126793277Y-86950000D01*
X126807138Y-86929714D01*
X126833406Y-86800000D01*
X126833406Y-86627000D01*
X127350000Y-86627000D01*
X127532540Y-86590691D01*
X127687290Y-86487290D01*
X129550409Y-84624171D01*
X131372891Y-84624171D01*
X131468145Y-84854703D01*
X131644369Y-85031235D01*
X131874735Y-85126891D01*
X131952379Y-85126959D01*
X133162710Y-86337290D01*
X133317459Y-86440691D01*
X133500000Y-86477000D01*
X138225315Y-86477000D01*
X138261012Y-86532474D01*
X138370286Y-86607138D01*
X138500000Y-86633406D01*
X138523000Y-86633406D01*
X138523000Y-86802420D01*
X138102420Y-87223000D01*
X137578406Y-87223000D01*
X137578406Y-86950000D01*
X137555605Y-86828821D01*
X137483988Y-86717526D01*
X137374714Y-86642862D01*
X137245000Y-86616594D01*
X136645000Y-86616594D01*
X136523821Y-86639395D01*
X136412526Y-86711012D01*
X136337862Y-86820286D01*
X136311594Y-86950000D01*
X136311594Y-88450000D01*
X136334395Y-88571179D01*
X136406012Y-88682474D01*
X136515286Y-88757138D01*
X136645000Y-88783406D01*
X137245000Y-88783406D01*
X137366179Y-88760605D01*
X137477474Y-88688988D01*
X137552138Y-88579714D01*
X137578406Y-88450000D01*
X137578406Y-88177000D01*
X138300000Y-88177000D01*
X138482540Y-88140691D01*
X138637290Y-88037290D01*
X139337290Y-87337290D01*
X139440691Y-87182541D01*
X139477000Y-87000000D01*
X139477000Y-86633406D01*
X139500000Y-86633406D01*
X139621179Y-86610605D01*
X139732474Y-86538988D01*
X139807138Y-86429714D01*
X139833406Y-86300000D01*
X139833406Y-85500000D01*
X139810605Y-85378821D01*
X139738988Y-85267526D01*
X139629714Y-85192862D01*
X139500000Y-85166594D01*
X138500000Y-85166594D01*
X138378821Y-85189395D01*
X138267526Y-85261012D01*
X138192862Y-85370286D01*
X138166594Y-85500000D01*
X138166594Y-85523000D01*
X133697580Y-85523000D01*
X132627042Y-84452462D01*
X132627109Y-84375829D01*
X132531855Y-84145297D01*
X132355631Y-83968765D01*
X132125265Y-83873109D01*
X131875829Y-83872891D01*
X131645297Y-83968145D01*
X131468765Y-84144369D01*
X131373109Y-84374735D01*
X131372891Y-84624171D01*
X129550409Y-84624171D01*
X129662290Y-84512290D01*
X129765691Y-84357540D01*
X129802000Y-84175000D01*
X129802000Y-83324685D01*
X129857474Y-83288988D01*
X129932138Y-83179714D01*
X129958406Y-83050000D01*
X129958406Y-81550000D01*
X129935605Y-81428821D01*
X129863988Y-81317526D01*
X129754714Y-81242862D01*
X129625000Y-81216594D01*
X129025000Y-81216594D01*
X128903821Y-81239395D01*
X128792526Y-81311012D01*
X128717862Y-81420286D01*
X128691594Y-81550000D01*
X128691594Y-83050000D01*
X128714395Y-83171179D01*
X128786012Y-83282474D01*
X128848000Y-83324829D01*
X128848000Y-83977420D01*
X127152420Y-85673000D01*
X126833406Y-85673000D01*
X126833406Y-85500000D01*
X126829078Y-85477000D01*
X127000000Y-85477000D01*
X127182540Y-85440691D01*
X127337290Y-85337290D01*
X128392290Y-84282290D01*
X128495691Y-84127541D01*
X128532000Y-83945000D01*
X128532000Y-83324685D01*
X128587474Y-83288988D01*
X128662138Y-83179714D01*
X128688406Y-83050000D01*
X128688406Y-81550000D01*
X128665605Y-81428821D01*
X128593988Y-81317526D01*
X128484714Y-81242862D01*
X128355000Y-81216594D01*
X127755000Y-81216594D01*
X127633821Y-81239395D01*
X127522526Y-81311012D01*
X127447862Y-81420286D01*
X127421594Y-81550000D01*
X127421594Y-83050000D01*
X127444395Y-83171179D01*
X127516012Y-83282474D01*
X127578000Y-83324829D01*
X127578000Y-83747420D01*
X127135000Y-84190420D01*
X127135000Y-84135750D01*
X126976250Y-83977000D01*
X126077000Y-83977000D01*
X126077000Y-83997000D01*
X125823000Y-83997000D01*
X125823000Y-83977000D01*
X125803000Y-83977000D01*
X125803000Y-83723000D01*
X125823000Y-83723000D01*
X125823000Y-82723750D01*
X125773000Y-82673750D01*
X125773000Y-82127000D01*
X126027000Y-82127000D01*
X126027000Y-82976250D01*
X126077000Y-83026250D01*
X126077000Y-83723000D01*
X126976250Y-83723000D01*
X127135000Y-83564250D01*
X127135000Y-83073691D01*
X127038327Y-82840302D01*
X126902587Y-82704561D01*
X126935000Y-82626310D01*
X126935000Y-82285750D01*
X126776250Y-82127000D01*
X126027000Y-82127000D01*
X125773000Y-82127000D01*
X125023750Y-82127000D01*
X124865000Y-82285750D01*
X124865000Y-82626310D01*
X124926702Y-82775272D01*
X124861673Y-82840302D01*
X124815596Y-82951543D01*
X124729714Y-82892862D01*
X124600000Y-82866594D01*
X124527000Y-82866594D01*
X124527000Y-82828326D01*
X124621179Y-82810605D01*
X124732474Y-82738988D01*
X124807138Y-82629714D01*
X124833406Y-82500000D01*
X124833406Y-81500000D01*
X124810605Y-81378821D01*
X124807304Y-81373690D01*
X124865000Y-81373690D01*
X124865000Y-81714250D01*
X125023750Y-81873000D01*
X125773000Y-81873000D01*
X125773000Y-81023750D01*
X126027000Y-81023750D01*
X126027000Y-81873000D01*
X126776250Y-81873000D01*
X126935000Y-81714250D01*
X126935000Y-81373690D01*
X126838327Y-81140301D01*
X126659698Y-80961673D01*
X126426309Y-80865000D01*
X126185750Y-80865000D01*
X126027000Y-81023750D01*
X125773000Y-81023750D01*
X125614250Y-80865000D01*
X125373691Y-80865000D01*
X125140302Y-80961673D01*
X124961673Y-81140301D01*
X124865000Y-81373690D01*
X124807304Y-81373690D01*
X124738988Y-81267526D01*
X124629714Y-81192862D01*
X124500000Y-81166594D01*
X123700000Y-81166594D01*
X123578821Y-81189395D01*
X123467526Y-81261012D01*
X123392862Y-81370286D01*
X123366594Y-81500000D01*
X123366594Y-82500000D01*
X123389395Y-82621179D01*
X123461012Y-82732474D01*
X123570286Y-82807138D01*
X123573000Y-82807688D01*
X123573000Y-82866594D01*
X123500000Y-82866594D01*
X123378821Y-82889395D01*
X123267526Y-82961012D01*
X123192862Y-83070286D01*
X123166594Y-83200000D01*
X120025615Y-83200000D01*
X120163769Y-82800231D01*
X120015103Y-82626100D01*
X119189540Y-82626100D01*
X118935540Y-82626100D01*
X118109977Y-82626100D01*
X117961311Y-82800231D01*
X117536731Y-82800231D01*
X117529908Y-82786337D01*
X117189218Y-82499098D01*
X116764540Y-82364100D01*
X116489540Y-82364100D01*
X116235540Y-82364100D01*
X115960540Y-82364100D01*
X115535862Y-82499098D01*
X115377000Y-82633036D01*
X115377000Y-81557850D01*
X117752540Y-81557850D01*
X117752540Y-81625410D01*
X117849213Y-81858799D01*
X118019630Y-82029215D01*
X117961311Y-82197969D01*
X118109977Y-82372100D01*
X118935540Y-82372100D01*
X118935540Y-81399100D01*
X119189540Y-81399100D01*
X119189540Y-82372100D01*
X120015103Y-82372100D01*
X120163769Y-82197969D01*
X120105450Y-82029215D01*
X120275867Y-81858799D01*
X120372540Y-81625410D01*
X120372540Y-81557850D01*
X120213790Y-81399100D01*
X119603202Y-81399100D01*
X119360478Y-81279832D01*
X119199356Y-81399100D01*
X119189540Y-81399100D01*
X118935540Y-81399100D01*
X118925724Y-81399100D01*
X118764602Y-81279832D01*
X118521878Y-81399100D01*
X117911290Y-81399100D01*
X117752540Y-81557850D01*
X115377000Y-81557850D01*
X115377000Y-80972790D01*
X117752540Y-80972790D01*
X117752540Y-81040350D01*
X117911290Y-81199100D01*
X118935540Y-81199100D01*
X118935540Y-81182506D01*
X119189540Y-81182506D01*
X119189540Y-81199100D01*
X120213790Y-81199100D01*
X120372540Y-81040350D01*
X120372540Y-80972790D01*
X120275867Y-80739401D01*
X120097238Y-80560773D01*
X120070946Y-80549882D01*
X120070946Y-80476100D01*
X128589330Y-80476100D01*
X128644369Y-80531235D01*
X128874735Y-80626891D01*
X129124171Y-80627109D01*
X129354703Y-80531855D01*
X129531235Y-80355631D01*
X129575192Y-80249772D01*
X130118000Y-80792580D01*
X130118000Y-81275315D01*
X130062526Y-81311012D01*
X129987862Y-81420286D01*
X129961594Y-81550000D01*
X129961594Y-83050000D01*
X129984395Y-83171179D01*
X130056012Y-83282474D01*
X130165286Y-83357138D01*
X130295000Y-83383406D01*
X130895000Y-83383406D01*
X131016179Y-83360605D01*
X131127474Y-83288988D01*
X131202138Y-83179714D01*
X131228406Y-83050000D01*
X131228406Y-81550000D01*
X131205605Y-81428821D01*
X131133988Y-81317526D01*
X131072000Y-81275171D01*
X131072000Y-80595000D01*
X131038152Y-80424832D01*
X131144369Y-80531235D01*
X131374735Y-80626891D01*
X131388000Y-80626903D01*
X131388000Y-81275315D01*
X131332526Y-81311012D01*
X131257862Y-81420286D01*
X131231594Y-81550000D01*
X131231594Y-83050000D01*
X131254395Y-83171179D01*
X131326012Y-83282474D01*
X131435286Y-83357138D01*
X131565000Y-83383406D01*
X132165000Y-83383406D01*
X132286179Y-83360605D01*
X132397474Y-83288988D01*
X132472138Y-83179714D01*
X132498406Y-83050000D01*
X132498406Y-81550000D01*
X132475605Y-81428821D01*
X132403988Y-81317526D01*
X132342000Y-81275171D01*
X132342000Y-80902929D01*
X132361012Y-80932474D01*
X132470286Y-81007138D01*
X132600000Y-81033406D01*
X132658000Y-81033406D01*
X132658000Y-81275315D01*
X132602526Y-81311012D01*
X132527862Y-81420286D01*
X132501594Y-81550000D01*
X132501594Y-83050000D01*
X132524395Y-83171179D01*
X132596012Y-83282474D01*
X132658000Y-83324829D01*
X132658000Y-83670294D01*
X132573109Y-83874735D01*
X132572891Y-84124171D01*
X132668145Y-84354703D01*
X132844369Y-84531235D01*
X133074735Y-84626891D01*
X133324171Y-84627109D01*
X133554703Y-84531855D01*
X133701063Y-84385750D01*
X137865000Y-84385750D01*
X137865000Y-84626309D01*
X137961673Y-84859698D01*
X138140301Y-85038327D01*
X138373690Y-85135000D01*
X138714250Y-85135000D01*
X138873000Y-84976250D01*
X138873000Y-84227000D01*
X139127000Y-84227000D01*
X139127000Y-84976250D01*
X139285750Y-85135000D01*
X139626310Y-85135000D01*
X139859699Y-85038327D01*
X139918999Y-84979026D01*
X145892642Y-84979026D01*
X145895291Y-84994791D01*
X146149268Y-85522036D01*
X146585680Y-85911954D01*
X147138087Y-86105184D01*
X147373000Y-85960924D01*
X147373000Y-84747000D01*
X147627000Y-84747000D01*
X147627000Y-85960924D01*
X147861913Y-86105184D01*
X148414320Y-85911954D01*
X148850732Y-85522036D01*
X149104709Y-84994791D01*
X149107358Y-84979026D01*
X148986217Y-84747000D01*
X147627000Y-84747000D01*
X147373000Y-84747000D01*
X146013783Y-84747000D01*
X145892642Y-84979026D01*
X139918999Y-84979026D01*
X140038327Y-84859698D01*
X140135000Y-84626309D01*
X140135000Y-84385750D01*
X140010224Y-84260974D01*
X145892642Y-84260974D01*
X146013783Y-84493000D01*
X147373000Y-84493000D01*
X147373000Y-84473000D01*
X147627000Y-84473000D01*
X147627000Y-84493000D01*
X148986217Y-84493000D01*
X149107358Y-84260974D01*
X149104709Y-84245209D01*
X148850732Y-83717964D01*
X148414320Y-83328046D01*
X148042961Y-83198146D01*
X148134334Y-83179971D01*
X148520592Y-82921881D01*
X148778682Y-82535623D01*
X148869311Y-82080000D01*
X148778682Y-81624377D01*
X148520592Y-81238119D01*
X148134334Y-80980029D01*
X147678711Y-80889400D01*
X147321289Y-80889400D01*
X146865666Y-80980029D01*
X146479408Y-81238119D01*
X146221318Y-81624377D01*
X146130689Y-82080000D01*
X146221318Y-82535623D01*
X146479408Y-82921881D01*
X146865666Y-83179971D01*
X146957039Y-83198146D01*
X146585680Y-83328046D01*
X146149268Y-83717964D01*
X145895291Y-84245209D01*
X145892642Y-84260974D01*
X140010224Y-84260974D01*
X139976250Y-84227000D01*
X139127000Y-84227000D01*
X138873000Y-84227000D01*
X138023750Y-84227000D01*
X137865000Y-84385750D01*
X133701063Y-84385750D01*
X133731235Y-84355631D01*
X133826891Y-84125265D01*
X133827109Y-83875829D01*
X133731855Y-83645297D01*
X133612000Y-83525233D01*
X133612000Y-83324685D01*
X133667474Y-83288988D01*
X133742138Y-83179714D01*
X133768406Y-83050000D01*
X133768406Y-81550000D01*
X133745605Y-81428821D01*
X133673988Y-81317526D01*
X133612000Y-81275171D01*
X133612000Y-81031148D01*
X133721179Y-81010605D01*
X133832474Y-80938988D01*
X133907138Y-80829714D01*
X133928000Y-80726695D01*
X133928000Y-81275315D01*
X133872526Y-81311012D01*
X133797862Y-81420286D01*
X133771594Y-81550000D01*
X133771594Y-83050000D01*
X133794395Y-83171179D01*
X133866012Y-83282474D01*
X133975286Y-83357138D01*
X134105000Y-83383406D01*
X134705000Y-83383406D01*
X134826179Y-83360605D01*
X134937474Y-83288988D01*
X135012138Y-83179714D01*
X135038406Y-83050000D01*
X135038406Y-81550000D01*
X135041594Y-81550000D01*
X135041594Y-83050000D01*
X135064395Y-83171179D01*
X135136012Y-83282474D01*
X135245286Y-83357138D01*
X135375000Y-83383406D01*
X135975000Y-83383406D01*
X136087050Y-83362323D01*
X136106673Y-83409698D01*
X136285301Y-83588327D01*
X136518690Y-83685000D01*
X136659250Y-83685000D01*
X136818000Y-83526250D01*
X136818000Y-82427000D01*
X137072000Y-82427000D01*
X137072000Y-83526250D01*
X137230750Y-83685000D01*
X137371310Y-83685000D01*
X137604699Y-83588327D01*
X137619334Y-83573691D01*
X137865000Y-83573691D01*
X137865000Y-83814250D01*
X138023750Y-83973000D01*
X138873000Y-83973000D01*
X138873000Y-83223750D01*
X139127000Y-83223750D01*
X139127000Y-83973000D01*
X139976250Y-83973000D01*
X140135000Y-83814250D01*
X140135000Y-83573691D01*
X140038327Y-83340302D01*
X139859699Y-83161673D01*
X139626310Y-83065000D01*
X139285750Y-83065000D01*
X139127000Y-83223750D01*
X138873000Y-83223750D01*
X138714250Y-83065000D01*
X138373690Y-83065000D01*
X138140301Y-83161673D01*
X137961673Y-83340302D01*
X137865000Y-83573691D01*
X137619334Y-83573691D01*
X137783327Y-83409698D01*
X137880000Y-83176309D01*
X137880000Y-82585750D01*
X137721250Y-82427000D01*
X137072000Y-82427000D01*
X136818000Y-82427000D01*
X136798000Y-82427000D01*
X136798000Y-82173000D01*
X136818000Y-82173000D01*
X136818000Y-82153000D01*
X137072000Y-82153000D01*
X137072000Y-82173000D01*
X137721250Y-82173000D01*
X137880000Y-82014250D01*
X137880000Y-81423691D01*
X137783327Y-81190302D01*
X137604699Y-81011673D01*
X137520991Y-80977000D01*
X138302420Y-80977000D01*
X139162710Y-81837290D01*
X139317460Y-81940691D01*
X139500000Y-81977000D01*
X140136427Y-81977000D01*
X139968765Y-82144369D01*
X139873109Y-82374735D01*
X139872891Y-82624171D01*
X139968145Y-82854703D01*
X140144369Y-83031235D01*
X140374735Y-83126891D01*
X140624171Y-83127109D01*
X140795754Y-83056212D01*
X140870286Y-83107138D01*
X141000000Y-83133406D01*
X141458826Y-83133406D01*
X141662710Y-83337290D01*
X141817460Y-83440691D01*
X142000000Y-83477000D01*
X142366594Y-83477000D01*
X142366594Y-83500000D01*
X142389395Y-83621179D01*
X142461012Y-83732474D01*
X142570286Y-83807138D01*
X142700000Y-83833406D01*
X143500000Y-83833406D01*
X143621179Y-83810605D01*
X143732474Y-83738988D01*
X143807138Y-83629714D01*
X143833406Y-83500000D01*
X143833406Y-82500000D01*
X143810605Y-82378821D01*
X143738988Y-82267526D01*
X143701057Y-82241609D01*
X143782894Y-82188948D01*
X143857558Y-82079674D01*
X143883826Y-81949960D01*
X143883826Y-81350520D01*
X143861025Y-81229341D01*
X143789408Y-81118046D01*
X143680134Y-81043382D01*
X143550420Y-81017114D01*
X142549660Y-81017114D01*
X142518378Y-81023000D01*
X142328748Y-81023000D01*
X142333406Y-81000000D01*
X142333406Y-80977000D01*
X142520594Y-80977000D01*
X142549660Y-80982886D01*
X143550420Y-80982886D01*
X143671599Y-80960085D01*
X143782894Y-80888468D01*
X143857558Y-80779194D01*
X143883826Y-80649480D01*
X143883826Y-80050040D01*
X143861025Y-79928861D01*
X143789408Y-79817566D01*
X143702569Y-79758231D01*
X143732474Y-79738988D01*
X143807138Y-79629714D01*
X143833406Y-79500000D01*
X143833406Y-78500000D01*
X143810605Y-78378821D01*
X143738988Y-78267526D01*
X143629714Y-78192862D01*
X143500000Y-78166594D01*
X142700000Y-78166594D01*
X142578821Y-78189395D01*
X142467526Y-78261012D01*
X142392862Y-78370286D01*
X142366594Y-78500000D01*
X142366594Y-78523000D01*
X142333406Y-78523000D01*
X142333406Y-78500000D01*
X142310605Y-78378821D01*
X142238988Y-78267526D01*
X142129714Y-78192862D01*
X142000000Y-78166594D01*
X141000000Y-78166594D01*
X140878821Y-78189395D01*
X140767526Y-78261012D01*
X140692862Y-78370286D01*
X140666594Y-78500000D01*
X140666594Y-78523000D01*
X138887579Y-78523000D01*
X138723631Y-78358765D01*
X138493265Y-78263109D01*
X138243829Y-78262891D01*
X138013297Y-78358145D01*
X137836765Y-78534369D01*
X137741109Y-78764735D01*
X137740891Y-79014171D01*
X137836145Y-79244703D01*
X138012369Y-79421235D01*
X138242735Y-79516891D01*
X138492171Y-79517109D01*
X138589242Y-79477000D01*
X140725315Y-79477000D01*
X140761012Y-79532474D01*
X140870286Y-79607138D01*
X141000000Y-79633406D01*
X142000000Y-79633406D01*
X142121179Y-79610605D01*
X142232474Y-79538988D01*
X142274829Y-79477000D01*
X142366594Y-79477000D01*
X142366594Y-79500000D01*
X142389395Y-79621179D01*
X142461012Y-79732474D01*
X142461976Y-79733133D01*
X142428481Y-79739435D01*
X142317186Y-79811052D01*
X142242522Y-79920326D01*
X142233696Y-79963910D01*
X142129714Y-79892862D01*
X142000000Y-79866594D01*
X141000000Y-79866594D01*
X140878821Y-79889395D01*
X140767526Y-79961012D01*
X140692862Y-80070286D01*
X140666594Y-80200000D01*
X140666594Y-81000000D01*
X140670922Y-81023000D01*
X139697580Y-81023000D01*
X138837290Y-80162710D01*
X138682540Y-80059309D01*
X138500000Y-80023000D01*
X136000000Y-80023000D01*
X135817459Y-80059309D01*
X135662710Y-80162710D01*
X135337710Y-80487710D01*
X135234309Y-80642460D01*
X135198000Y-80825000D01*
X135198000Y-81275315D01*
X135142526Y-81311012D01*
X135067862Y-81420286D01*
X135041594Y-81550000D01*
X135038406Y-81550000D01*
X135015605Y-81428821D01*
X134943988Y-81317526D01*
X134882000Y-81275171D01*
X134882000Y-79792580D01*
X137197580Y-77477000D01*
X140666594Y-77477000D01*
X140666594Y-77500000D01*
X140689395Y-77621179D01*
X140761012Y-77732474D01*
X140870286Y-77807138D01*
X141000000Y-77833406D01*
X142000000Y-77833406D01*
X142121179Y-77810605D01*
X142232474Y-77738988D01*
X142307138Y-77629714D01*
X142324916Y-77541926D01*
X142419946Y-77606858D01*
X142549660Y-77633126D01*
X143550420Y-77633126D01*
X143671599Y-77610325D01*
X143782894Y-77538708D01*
X143857558Y-77429434D01*
X143883826Y-77299720D01*
X143883826Y-76700280D01*
X143861025Y-76579101D01*
X143789408Y-76467806D01*
X143680134Y-76393142D01*
X143550420Y-76366874D01*
X142549660Y-76366874D01*
X142428481Y-76389675D01*
X142317186Y-76461292D01*
X142275023Y-76523000D01*
X142274685Y-76523000D01*
X142238988Y-76467526D01*
X142129714Y-76392862D01*
X142000000Y-76366594D01*
X141000000Y-76366594D01*
X140878821Y-76389395D01*
X140767526Y-76461012D01*
X140725171Y-76523000D01*
X137000000Y-76523000D01*
X136817460Y-76559309D01*
X136662710Y-76662710D01*
X134189667Y-79135753D01*
X134235000Y-79026309D01*
X134235000Y-78785750D01*
X134076250Y-78627000D01*
X133227000Y-78627000D01*
X133227000Y-79376250D01*
X133385750Y-79535000D01*
X133726310Y-79535000D01*
X133959116Y-79438569D01*
X133928000Y-79595000D01*
X133928000Y-79871269D01*
X133910605Y-79778821D01*
X133838988Y-79667526D01*
X133729714Y-79592862D01*
X133600000Y-79566594D01*
X132600000Y-79566594D01*
X132478821Y-79589395D01*
X132367526Y-79661012D01*
X132292862Y-79770286D01*
X132266594Y-79900000D01*
X132266594Y-80123947D01*
X132202290Y-80027710D01*
X132127042Y-79952462D01*
X132127109Y-79875829D01*
X132031855Y-79645297D01*
X131855631Y-79468765D01*
X131625265Y-79373109D01*
X131375829Y-79372891D01*
X131145297Y-79468145D01*
X130968765Y-79644369D01*
X130873109Y-79874735D01*
X130872891Y-80124171D01*
X130925096Y-80250516D01*
X129686390Y-79011810D01*
X129531640Y-78908409D01*
X129349100Y-78872100D01*
X126802480Y-78872100D01*
X126888830Y-78785750D01*
X131965000Y-78785750D01*
X131965000Y-79026309D01*
X132061673Y-79259698D01*
X132240301Y-79438327D01*
X132473690Y-79535000D01*
X132814250Y-79535000D01*
X132973000Y-79376250D01*
X132973000Y-78627000D01*
X132123750Y-78627000D01*
X131965000Y-78785750D01*
X126888830Y-78785750D01*
X127162290Y-78512290D01*
X127265691Y-78357541D01*
X127302000Y-78175000D01*
X127302000Y-77973691D01*
X131965000Y-77973691D01*
X131965000Y-78214250D01*
X132123750Y-78373000D01*
X132973000Y-78373000D01*
X132973000Y-78353000D01*
X133227000Y-78353000D01*
X133227000Y-78373000D01*
X134076250Y-78373000D01*
X134235000Y-78214250D01*
X134235000Y-77973691D01*
X134138327Y-77740302D01*
X133959699Y-77561673D01*
X133778113Y-77486458D01*
X133867679Y-77469605D01*
X133978974Y-77397988D01*
X134053638Y-77288714D01*
X134079906Y-77159000D01*
X134079906Y-76651000D01*
X134057105Y-76529821D01*
X133985488Y-76418526D01*
X133876214Y-76343862D01*
X133746500Y-76317594D01*
X132603500Y-76317594D01*
X132482321Y-76340395D01*
X132371026Y-76412012D01*
X132296362Y-76521286D01*
X132270094Y-76651000D01*
X132270094Y-77159000D01*
X132292895Y-77280179D01*
X132364512Y-77391474D01*
X132472713Y-77465405D01*
X132240301Y-77561673D01*
X132061673Y-77740302D01*
X131965000Y-77973691D01*
X127302000Y-77973691D01*
X127302000Y-77492406D01*
X127396500Y-77492406D01*
X127517679Y-77469605D01*
X127628974Y-77397988D01*
X127639898Y-77382000D01*
X128095000Y-77382000D01*
X128277540Y-77345691D01*
X128432290Y-77242290D01*
X131023830Y-74650750D01*
X131968500Y-74650750D01*
X131968500Y-74745309D01*
X132065173Y-74978698D01*
X132243801Y-75157327D01*
X132334805Y-75195022D01*
X132296362Y-75251286D01*
X132270094Y-75381000D01*
X132270094Y-75889000D01*
X132292895Y-76010179D01*
X132364512Y-76121474D01*
X132473786Y-76196138D01*
X132603500Y-76222406D01*
X133746500Y-76222406D01*
X133867679Y-76199605D01*
X133978974Y-76127988D01*
X133989898Y-76112000D01*
X134037420Y-76112000D01*
X134262710Y-76337290D01*
X134417460Y-76440691D01*
X134600000Y-76477000D01*
X134725315Y-76477000D01*
X134761012Y-76532474D01*
X134870286Y-76607138D01*
X135000000Y-76633406D01*
X136000000Y-76633406D01*
X136121179Y-76610605D01*
X136232474Y-76538988D01*
X136307138Y-76429714D01*
X136333406Y-76300000D01*
X136333406Y-76050040D01*
X144116174Y-76050040D01*
X144116174Y-76649480D01*
X144138975Y-76770659D01*
X144210592Y-76881954D01*
X144319866Y-76956618D01*
X144449580Y-76982886D01*
X144908506Y-76982886D01*
X144942734Y-77017114D01*
X144449580Y-77017114D01*
X144328401Y-77039915D01*
X144217106Y-77111532D01*
X144142442Y-77220806D01*
X144116174Y-77350520D01*
X144116174Y-77949960D01*
X144138975Y-78071139D01*
X144210592Y-78182434D01*
X144297431Y-78241769D01*
X144267526Y-78261012D01*
X144192862Y-78370286D01*
X144166594Y-78500000D01*
X144166594Y-79500000D01*
X144189395Y-79621179D01*
X144261012Y-79732474D01*
X144370286Y-79807138D01*
X144500000Y-79833406D01*
X144992014Y-79833406D01*
X144612670Y-80212750D01*
X144509687Y-80366874D01*
X144449580Y-80366874D01*
X144328401Y-80389675D01*
X144217106Y-80461292D01*
X144142442Y-80570566D01*
X144116174Y-80700280D01*
X144116174Y-81299720D01*
X144138975Y-81420899D01*
X144210592Y-81532194D01*
X144319866Y-81606858D01*
X144449580Y-81633126D01*
X144523000Y-81633126D01*
X144523000Y-82166594D01*
X144500000Y-82166594D01*
X144378821Y-82189395D01*
X144267526Y-82261012D01*
X144192862Y-82370286D01*
X144166594Y-82500000D01*
X144166594Y-83500000D01*
X144189395Y-83621179D01*
X144261012Y-83732474D01*
X144370286Y-83807138D01*
X144500000Y-83833406D01*
X145300000Y-83833406D01*
X145421179Y-83810605D01*
X145532474Y-83738988D01*
X145607138Y-83629714D01*
X145633406Y-83500000D01*
X145633406Y-82500000D01*
X145610605Y-82378821D01*
X145538988Y-82267526D01*
X145477000Y-82225171D01*
X145477000Y-81628110D01*
X145571519Y-81610325D01*
X145682814Y-81538708D01*
X145757478Y-81429434D01*
X145783746Y-81299720D01*
X145783746Y-80700280D01*
X145760945Y-80579101D01*
X145696159Y-80478421D01*
X146157580Y-80017000D01*
X146235602Y-80017000D01*
X146479408Y-80381881D01*
X146865666Y-80639971D01*
X147321289Y-80730600D01*
X147678711Y-80730600D01*
X148134334Y-80639971D01*
X148520592Y-80381881D01*
X148778682Y-79995623D01*
X148869311Y-79540000D01*
X148778682Y-79084377D01*
X148520592Y-78698119D01*
X148134334Y-78440029D01*
X147678711Y-78349400D01*
X147321289Y-78349400D01*
X146865666Y-78440029D01*
X146479408Y-78698119D01*
X146235602Y-79063000D01*
X145960000Y-79063000D01*
X145777459Y-79099309D01*
X145633406Y-79195563D01*
X145633406Y-78500000D01*
X145610605Y-78378821D01*
X145538988Y-78267526D01*
X145538024Y-78266867D01*
X145571519Y-78260565D01*
X145682814Y-78188948D01*
X145757478Y-78079674D01*
X145783746Y-77949960D01*
X145783746Y-77477000D01*
X146235602Y-77477000D01*
X146479408Y-77841881D01*
X146865666Y-78099971D01*
X147321289Y-78190600D01*
X147678711Y-78190600D01*
X148134334Y-78099971D01*
X148520592Y-77841881D01*
X148778682Y-77455623D01*
X148869311Y-77000000D01*
X148778682Y-76544377D01*
X148520592Y-76158119D01*
X148134334Y-75900029D01*
X147678711Y-75809400D01*
X147321289Y-75809400D01*
X146865666Y-75900029D01*
X146479408Y-76158119D01*
X146235602Y-76523000D01*
X145797780Y-76523000D01*
X145783746Y-76508966D01*
X145783746Y-76050040D01*
X145760945Y-75928861D01*
X145689328Y-75817566D01*
X145580054Y-75742902D01*
X145450340Y-75716634D01*
X144449580Y-75716634D01*
X144328401Y-75739435D01*
X144217106Y-75811052D01*
X144142442Y-75920326D01*
X144116174Y-76050040D01*
X136333406Y-76050040D01*
X136333406Y-75500000D01*
X136310605Y-75378821D01*
X136238988Y-75267526D01*
X136129714Y-75192862D01*
X136000000Y-75166594D01*
X135000000Y-75166594D01*
X134878821Y-75189395D01*
X134767526Y-75261012D01*
X134692862Y-75370286D01*
X134684779Y-75410199D01*
X134572290Y-75297710D01*
X134417540Y-75194309D01*
X134235000Y-75158000D01*
X134104574Y-75158000D01*
X134106199Y-75157327D01*
X134284827Y-74978698D01*
X134381500Y-74745309D01*
X134381500Y-74666143D01*
X134461673Y-74859698D01*
X134640301Y-75038327D01*
X134873690Y-75135000D01*
X135214250Y-75135000D01*
X135373000Y-74976250D01*
X135373000Y-74227000D01*
X135627000Y-74227000D01*
X135627000Y-74976250D01*
X135785750Y-75135000D01*
X136126310Y-75135000D01*
X136359699Y-75038327D01*
X136538327Y-74859698D01*
X136635000Y-74626309D01*
X136635000Y-74385750D01*
X136476250Y-74227000D01*
X135627000Y-74227000D01*
X135373000Y-74227000D01*
X134523750Y-74227000D01*
X134365000Y-74385750D01*
X134365000Y-74626309D01*
X134370615Y-74639865D01*
X134222750Y-74492000D01*
X133302000Y-74492000D01*
X133302000Y-74512000D01*
X133048000Y-74512000D01*
X133048000Y-74492000D01*
X132127250Y-74492000D01*
X131968500Y-74650750D01*
X131023830Y-74650750D01*
X132102580Y-73572000D01*
X132245426Y-73572000D01*
X132243801Y-73572673D01*
X132065173Y-73751302D01*
X131968500Y-73984691D01*
X131968500Y-74079250D01*
X132127250Y-74238000D01*
X133048000Y-74238000D01*
X133048000Y-74218000D01*
X133302000Y-74218000D01*
X133302000Y-74238000D01*
X134222750Y-74238000D01*
X134381500Y-74079250D01*
X134381500Y-73984691D01*
X134303965Y-73797505D01*
X134374735Y-73826891D01*
X134377644Y-73826894D01*
X134523750Y-73973000D01*
X135373000Y-73973000D01*
X135373000Y-73223750D01*
X135627000Y-73223750D01*
X135627000Y-73973000D01*
X136476250Y-73973000D01*
X136635000Y-73814250D01*
X136635000Y-73573691D01*
X136538327Y-73340302D01*
X136359699Y-73161673D01*
X136126310Y-73065000D01*
X135785750Y-73065000D01*
X135627000Y-73223750D01*
X135373000Y-73223750D01*
X135214250Y-73065000D01*
X135122635Y-73065000D01*
X135118818Y-73055762D01*
X136197580Y-71977000D01*
X136666594Y-71977000D01*
X136666594Y-72000000D01*
X136689395Y-72121179D01*
X136761012Y-72232474D01*
X136870286Y-72307138D01*
X137000000Y-72333406D01*
X138000000Y-72333406D01*
X138121179Y-72310605D01*
X138232474Y-72238988D01*
X138273000Y-72179676D01*
X138273000Y-72340229D01*
X138218765Y-72394369D01*
X138123109Y-72624735D01*
X138123051Y-72691513D01*
X138000000Y-72666594D01*
X137000000Y-72666594D01*
X136878821Y-72689395D01*
X136767526Y-72761012D01*
X136692862Y-72870286D01*
X136666594Y-73000000D01*
X136666594Y-73800000D01*
X136689395Y-73921179D01*
X136761012Y-74032474D01*
X136870286Y-74107138D01*
X137000000Y-74133406D01*
X138000000Y-74133406D01*
X138121179Y-74110605D01*
X138232474Y-74038988D01*
X138274829Y-73977000D01*
X139225315Y-73977000D01*
X139261012Y-74032474D01*
X139370286Y-74107138D01*
X139483163Y-74129996D01*
X139468765Y-74144369D01*
X139373109Y-74374735D01*
X139372891Y-74624171D01*
X139468145Y-74854703D01*
X139644369Y-75031235D01*
X139874735Y-75126891D01*
X140124171Y-75127109D01*
X140354703Y-75031855D01*
X140531235Y-74855631D01*
X140626891Y-74625265D01*
X140627109Y-74375829D01*
X140531855Y-74145297D01*
X140516825Y-74130240D01*
X140621179Y-74110605D01*
X140732474Y-74038988D01*
X140774829Y-73977000D01*
X141725315Y-73977000D01*
X141761012Y-74032474D01*
X141870286Y-74107138D01*
X142000000Y-74133406D01*
X143000000Y-74133406D01*
X143121179Y-74110605D01*
X143232474Y-74038988D01*
X143307138Y-73929714D01*
X143333406Y-73800000D01*
X143333406Y-73596400D01*
X146150594Y-73596400D01*
X146150594Y-75323600D01*
X146173395Y-75444779D01*
X146245012Y-75556074D01*
X146354286Y-75630738D01*
X146484000Y-75657006D01*
X148516000Y-75657006D01*
X148637179Y-75634205D01*
X148748474Y-75562588D01*
X148823138Y-75453314D01*
X148849406Y-75323600D01*
X148849406Y-73596400D01*
X148826605Y-73475221D01*
X148754988Y-73363926D01*
X148645714Y-73289262D01*
X148516000Y-73262994D01*
X146484000Y-73262994D01*
X146362821Y-73285795D01*
X146251526Y-73357412D01*
X146176862Y-73466686D01*
X146150594Y-73596400D01*
X143333406Y-73596400D01*
X143333406Y-73000000D01*
X143310605Y-72878821D01*
X143238988Y-72767526D01*
X143129714Y-72692862D01*
X143000000Y-72666594D01*
X142000000Y-72666594D01*
X141878821Y-72689395D01*
X141767526Y-72761012D01*
X141692862Y-72870286D01*
X141666594Y-73000000D01*
X141666594Y-73023000D01*
X140833406Y-73023000D01*
X140833406Y-73000000D01*
X140810605Y-72878821D01*
X140738988Y-72767526D01*
X140629714Y-72692862D01*
X140500000Y-72666594D01*
X139500000Y-72666594D01*
X139378821Y-72689395D01*
X139377052Y-72690533D01*
X139377109Y-72625829D01*
X139281855Y-72395297D01*
X139227000Y-72340346D01*
X139227000Y-72197580D01*
X139234033Y-72190547D01*
X139261012Y-72232474D01*
X139370286Y-72307138D01*
X139500000Y-72333406D01*
X140500000Y-72333406D01*
X140621179Y-72310605D01*
X140732474Y-72238988D01*
X140807138Y-72129714D01*
X140833406Y-72000000D01*
X140833406Y-71200000D01*
X141666594Y-71200000D01*
X141666594Y-72000000D01*
X141689395Y-72121179D01*
X141761012Y-72232474D01*
X141870286Y-72307138D01*
X142000000Y-72333406D01*
X143000000Y-72333406D01*
X143121179Y-72310605D01*
X143232474Y-72238988D01*
X143307138Y-72129714D01*
X143327951Y-72026938D01*
X143524171Y-72027109D01*
X143754703Y-71931855D01*
X143931235Y-71755631D01*
X144026891Y-71525265D01*
X144027109Y-71275829D01*
X143931855Y-71045297D01*
X143755631Y-70868765D01*
X143525265Y-70773109D01*
X143275829Y-70772891D01*
X143045297Y-70868145D01*
X143038949Y-70874482D01*
X143000000Y-70866594D01*
X142000000Y-70866594D01*
X141878821Y-70889395D01*
X141767526Y-70961012D01*
X141692862Y-71070286D01*
X141666594Y-71200000D01*
X140833406Y-71200000D01*
X140810605Y-71078821D01*
X140738988Y-70967526D01*
X140629714Y-70892862D01*
X140500000Y-70866594D01*
X139500000Y-70866594D01*
X139378821Y-70889395D01*
X139267526Y-70961012D01*
X139221266Y-71028715D01*
X139067460Y-71059309D01*
X138912710Y-71162710D01*
X138412710Y-71662710D01*
X138333406Y-71781396D01*
X138333406Y-71200000D01*
X138310605Y-71078821D01*
X138238988Y-70967526D01*
X138129714Y-70892862D01*
X138000000Y-70866594D01*
X137000000Y-70866594D01*
X136878821Y-70889395D01*
X136767526Y-70961012D01*
X136725171Y-71023000D01*
X136000000Y-71023000D01*
X135817460Y-71059309D01*
X135662710Y-71162710D01*
X134207420Y-72618000D01*
X133991584Y-72618000D01*
X133985488Y-72608526D01*
X133876214Y-72533862D01*
X133746500Y-72507594D01*
X132603500Y-72507594D01*
X132482321Y-72530395D01*
X132371026Y-72602012D01*
X132360102Y-72618000D01*
X131905000Y-72618000D01*
X131722460Y-72654309D01*
X131567710Y-72757710D01*
X127897420Y-76428000D01*
X127641584Y-76428000D01*
X127635488Y-76418526D01*
X127526214Y-76343862D01*
X127396500Y-76317594D01*
X126253500Y-76317594D01*
X126132321Y-76340395D01*
X126021026Y-76412012D01*
X125946362Y-76521286D01*
X125946015Y-76523000D01*
X125633406Y-76523000D01*
X125633406Y-76500000D01*
X125610605Y-76378821D01*
X125538988Y-76267526D01*
X125514319Y-76250670D01*
X125532474Y-76238988D01*
X125607138Y-76129714D01*
X125617813Y-76077000D01*
X125985894Y-76077000D01*
X126014512Y-76121474D01*
X126123786Y-76196138D01*
X126253500Y-76222406D01*
X127396500Y-76222406D01*
X127517679Y-76199605D01*
X127628974Y-76127988D01*
X127703638Y-76018714D01*
X127729906Y-75889000D01*
X127729906Y-75381000D01*
X127707105Y-75259821D01*
X127635488Y-75148526D01*
X127526214Y-75073862D01*
X127396500Y-75047594D01*
X126253500Y-75047594D01*
X126132321Y-75070395D01*
X126050571Y-75123000D01*
X125633406Y-75123000D01*
X125633406Y-75000000D01*
X125610605Y-74878821D01*
X125538988Y-74767526D01*
X125429714Y-74692862D01*
X125300000Y-74666594D01*
X124500000Y-74666594D01*
X124378821Y-74689395D01*
X124267526Y-74761012D01*
X124192862Y-74870286D01*
X124166594Y-75000000D01*
X124166594Y-76000000D01*
X124189395Y-76121179D01*
X124261012Y-76232474D01*
X124285681Y-76249330D01*
X124267526Y-76261012D01*
X124192862Y-76370286D01*
X124166594Y-76500000D01*
X124166594Y-77500000D01*
X124189395Y-77621179D01*
X124261012Y-77732474D01*
X124370286Y-77807138D01*
X124500000Y-77833406D01*
X125300000Y-77833406D01*
X125421179Y-77810605D01*
X125532474Y-77738988D01*
X125607138Y-77629714D01*
X125633406Y-77500000D01*
X125633406Y-77477000D01*
X126177424Y-77477000D01*
X126253500Y-77492406D01*
X126348000Y-77492406D01*
X126348000Y-77977420D01*
X126103320Y-78222100D01*
X120011511Y-78222100D01*
X120022108Y-78210149D01*
X120163769Y-77800231D01*
X120015103Y-77626100D01*
X119189540Y-77626100D01*
X119189540Y-77646100D01*
X118935540Y-77646100D01*
X118935540Y-77626100D01*
X118109977Y-77626100D01*
X117961311Y-77800231D01*
X118102972Y-78210149D01*
X118151676Y-78265074D01*
X118080402Y-78369386D01*
X118054134Y-78499100D01*
X118054134Y-78899100D01*
X118076935Y-79020279D01*
X118079435Y-79024163D01*
X118054134Y-79149100D01*
X118054134Y-79549100D01*
X118076935Y-79670279D01*
X118079435Y-79674163D01*
X118054134Y-79799100D01*
X118054134Y-80199100D01*
X118076935Y-80320279D01*
X118079435Y-80324163D01*
X118054134Y-80449100D01*
X118054134Y-80549882D01*
X118027842Y-80560773D01*
X117849213Y-80739401D01*
X117752540Y-80972790D01*
X115377000Y-80972790D01*
X115377000Y-77365164D01*
X115535862Y-77499102D01*
X115960540Y-77634100D01*
X116235540Y-77634100D01*
X116235540Y-76626100D01*
X116489540Y-76626100D01*
X116489540Y-77634100D01*
X116764540Y-77634100D01*
X117189218Y-77499102D01*
X117529908Y-77211863D01*
X117536730Y-77197969D01*
X117961311Y-77197969D01*
X118109977Y-77372100D01*
X118935540Y-77372100D01*
X118935540Y-76406366D01*
X119189540Y-76406366D01*
X119189540Y-77372100D01*
X120015103Y-77372100D01*
X120163769Y-77197969D01*
X120022108Y-76788051D01*
X119734361Y-76463548D01*
X119360478Y-76279832D01*
X119189540Y-76406366D01*
X118935540Y-76406366D01*
X118764602Y-76279832D01*
X118390719Y-76463548D01*
X118102972Y-76788051D01*
X117961311Y-77197969D01*
X117536730Y-77197969D01*
X117731659Y-76800974D01*
X117605494Y-76626100D01*
X116489540Y-76626100D01*
X116235540Y-76626100D01*
X116215540Y-76626100D01*
X116215540Y-76372100D01*
X116235540Y-76372100D01*
X116235540Y-75364100D01*
X116489540Y-75364100D01*
X116489540Y-76372100D01*
X117605494Y-76372100D01*
X117731659Y-76197226D01*
X117529908Y-75786337D01*
X117189218Y-75499098D01*
X116764540Y-75364100D01*
X116489540Y-75364100D01*
X116235540Y-75364100D01*
X115960540Y-75364100D01*
X115535862Y-75499098D01*
X115377000Y-75633036D01*
X115377000Y-75000000D01*
X122366594Y-75000000D01*
X122366594Y-76000000D01*
X122389395Y-76121179D01*
X122461012Y-76232474D01*
X122485681Y-76249330D01*
X122467526Y-76261012D01*
X122392862Y-76370286D01*
X122366594Y-76500000D01*
X122366594Y-77500000D01*
X122389395Y-77621179D01*
X122461012Y-77732474D01*
X122570286Y-77807138D01*
X122700000Y-77833406D01*
X123500000Y-77833406D01*
X123621179Y-77810605D01*
X123732474Y-77738988D01*
X123807138Y-77629714D01*
X123833406Y-77500000D01*
X123833406Y-76500000D01*
X123810605Y-76378821D01*
X123738988Y-76267526D01*
X123714319Y-76250670D01*
X123732474Y-76238988D01*
X123807138Y-76129714D01*
X123833406Y-76000000D01*
X123833406Y-75000000D01*
X123810605Y-74878821D01*
X123738988Y-74767526D01*
X123629714Y-74692862D01*
X123500000Y-74666594D01*
X122700000Y-74666594D01*
X122578821Y-74689395D01*
X122467526Y-74761012D01*
X122392862Y-74870286D01*
X122366594Y-75000000D01*
X115377000Y-75000000D01*
X115377000Y-72922946D01*
X115934017Y-72922946D01*
X116202812Y-73508379D01*
X116675182Y-73946385D01*
X117157056Y-74145975D01*
X117413000Y-74026836D01*
X117413000Y-72667000D01*
X116052633Y-72667000D01*
X115934017Y-72922946D01*
X115377000Y-72922946D01*
X115377000Y-72157054D01*
X115934017Y-72157054D01*
X116052633Y-72413000D01*
X117413000Y-72413000D01*
X117413000Y-71053164D01*
X117667000Y-71053164D01*
X117667000Y-72413000D01*
X117687000Y-72413000D01*
X117687000Y-72667000D01*
X117667000Y-72667000D01*
X117667000Y-74026836D01*
X117922944Y-74145975D01*
X118007384Y-74111000D01*
X125920094Y-74111000D01*
X125920094Y-74619000D01*
X125942895Y-74740179D01*
X126014512Y-74851474D01*
X126123786Y-74926138D01*
X126253500Y-74952406D01*
X127396500Y-74952406D01*
X127517679Y-74929605D01*
X127628974Y-74857988D01*
X127703638Y-74748714D01*
X127729906Y-74619000D01*
X127729906Y-74111000D01*
X127707105Y-73989821D01*
X127635488Y-73878526D01*
X127526214Y-73803862D01*
X127396500Y-73777594D01*
X126253500Y-73777594D01*
X126132321Y-73800395D01*
X126021026Y-73872012D01*
X125946362Y-73981286D01*
X125920094Y-74111000D01*
X118007384Y-74111000D01*
X118404818Y-73946385D01*
X118744742Y-73631190D01*
X118753395Y-73677179D01*
X118825012Y-73788474D01*
X118934286Y-73863138D01*
X119064000Y-73889406D01*
X121096000Y-73889406D01*
X121217179Y-73866605D01*
X121328474Y-73794988D01*
X121403138Y-73685714D01*
X121429406Y-73556000D01*
X121429406Y-72841000D01*
X125920094Y-72841000D01*
X125920094Y-73349000D01*
X125942895Y-73470179D01*
X126014512Y-73581474D01*
X126123786Y-73656138D01*
X126253500Y-73682406D01*
X127396500Y-73682406D01*
X127517679Y-73659605D01*
X127628974Y-73587988D01*
X127703638Y-73478714D01*
X127729906Y-73349000D01*
X127729906Y-72841000D01*
X127707105Y-72719821D01*
X127635488Y-72608526D01*
X127526214Y-72533862D01*
X127402000Y-72508708D01*
X127402000Y-71785209D01*
X127426891Y-71725265D01*
X127427109Y-71475829D01*
X127331855Y-71245297D01*
X127155631Y-71068765D01*
X126925265Y-70973109D01*
X126675829Y-70972891D01*
X126445297Y-71068145D01*
X126268765Y-71244369D01*
X126173109Y-71474735D01*
X126172891Y-71724171D01*
X126248000Y-71905948D01*
X126248000Y-72508629D01*
X126132321Y-72530395D01*
X126021026Y-72602012D01*
X125946362Y-72711286D01*
X125920094Y-72841000D01*
X121429406Y-72841000D01*
X121429406Y-71524000D01*
X121406605Y-71402821D01*
X121334988Y-71291526D01*
X121225714Y-71216862D01*
X121096000Y-71190594D01*
X119064000Y-71190594D01*
X118942821Y-71213395D01*
X118831526Y-71285012D01*
X118756862Y-71394286D01*
X118745650Y-71449652D01*
X118404818Y-71133615D01*
X117922944Y-70934025D01*
X117667000Y-71053164D01*
X117413000Y-71053164D01*
X117157056Y-70934025D01*
X116675182Y-71133615D01*
X116202812Y-71571621D01*
X115934017Y-72157054D01*
X115377000Y-72157054D01*
X115377000Y-70377000D01*
X149623000Y-70377000D01*
X149623000Y-89623000D01*
X149623000Y-89623000D01*
G37*
X149623000Y-89623000D02*
X115377000Y-89623000D01*
X115377000Y-88285750D01*
X123065000Y-88285750D01*
X123065000Y-88626310D01*
X123161673Y-88859699D01*
X123340302Y-89038327D01*
X123573691Y-89135000D01*
X123814250Y-89135000D01*
X123973000Y-88976250D01*
X123973000Y-88127000D01*
X124227000Y-88127000D01*
X124227000Y-88976250D01*
X124385750Y-89135000D01*
X124626309Y-89135000D01*
X124859698Y-89038327D01*
X125038327Y-88859699D01*
X125135000Y-88626310D01*
X125135000Y-88285750D01*
X124976250Y-88127000D01*
X124227000Y-88127000D01*
X123973000Y-88127000D01*
X123223750Y-88127000D01*
X123065000Y-88285750D01*
X115377000Y-88285750D01*
X115377000Y-86435750D01*
X122865000Y-86435750D01*
X122865000Y-86926309D01*
X122961673Y-87159698D01*
X123097413Y-87295439D01*
X123065000Y-87373690D01*
X123065000Y-87714250D01*
X123223750Y-87873000D01*
X123973000Y-87873000D01*
X123973000Y-87023750D01*
X123923000Y-86973750D01*
X123923000Y-86277000D01*
X123023750Y-86277000D01*
X122865000Y-86435750D01*
X115377000Y-86435750D01*
X115377000Y-85373691D01*
X122865000Y-85373691D01*
X122865000Y-85864250D01*
X123023750Y-86023000D01*
X123923000Y-86023000D01*
X123923000Y-85023750D01*
X123764250Y-84865000D01*
X123373690Y-84865000D01*
X123140301Y-84961673D01*
X122961673Y-85140302D01*
X122865000Y-85373691D01*
X115377000Y-85373691D01*
X115377000Y-84365164D01*
X115535862Y-84499102D01*
X115960540Y-84634100D01*
X116235540Y-84634100D01*
X116235540Y-83626100D01*
X116489540Y-83626100D01*
X116489540Y-84634100D01*
X116764540Y-84634100D01*
X117189218Y-84499102D01*
X117529908Y-84211863D01*
X117731659Y-83800974D01*
X117605494Y-83626100D01*
X116489540Y-83626100D01*
X116235540Y-83626100D01*
X116215540Y-83626100D01*
X116215540Y-83372100D01*
X116235540Y-83372100D01*
X116235540Y-82364100D01*
X116489540Y-82364100D01*
X116489540Y-83372100D01*
X117605494Y-83372100D01*
X117731659Y-83197226D01*
X117536731Y-82800231D01*
X117961311Y-82800231D01*
X118102972Y-83210149D01*
X118390719Y-83534652D01*
X118764602Y-83718368D01*
X118935540Y-83591834D01*
X118935540Y-82626100D01*
X119189540Y-82626100D01*
X119189540Y-83591834D01*
X119360478Y-83718368D01*
X119734361Y-83534652D01*
X120022108Y-83210149D01*
X120025615Y-83200000D01*
X123166594Y-83200000D01*
X123166594Y-84500000D01*
X123189395Y-84621179D01*
X123261012Y-84732474D01*
X123370286Y-84807138D01*
X123500000Y-84833406D01*
X124158826Y-84833406D01*
X124263085Y-84937665D01*
X124177000Y-85023750D01*
X124177000Y-86023000D01*
X124197000Y-86023000D01*
X124197000Y-86277000D01*
X124177000Y-86277000D01*
X124177000Y-87276250D01*
X124227000Y-87326250D01*
X124227000Y-87873000D01*
X124976250Y-87873000D01*
X125135000Y-87714250D01*
X125135000Y-87373690D01*
X125073298Y-87224728D01*
X125138327Y-87159698D01*
X125184404Y-87048457D01*
X125270286Y-87107138D01*
X125400000Y-87133406D01*
X125473000Y-87133406D01*
X125473000Y-87171674D01*
X125378821Y-87189395D01*
X125267526Y-87261012D01*
X125192862Y-87370286D01*
X125166594Y-87500000D01*
X125166594Y-88500000D01*
X125189395Y-88621179D01*
X125261012Y-88732474D01*
X125370286Y-88807138D01*
X125500000Y-88833406D01*
X126300000Y-88833406D01*
X126421179Y-88810605D01*
X126532474Y-88738988D01*
X126607138Y-88629714D01*
X126633406Y-88500000D01*
X126633406Y-87500000D01*
X126610605Y-87378821D01*
X126538988Y-87267526D01*
X126429714Y-87192862D01*
X126427000Y-87192312D01*
X126427000Y-87133406D01*
X126500000Y-87133406D01*
X126621179Y-87110605D01*
X126732474Y-87038988D01*
X126793277Y-86950000D01*
X127421594Y-86950000D01*
X127421594Y-88450000D01*
X127444395Y-88571179D01*
X127516012Y-88682474D01*
X127625286Y-88757138D01*
X127755000Y-88783406D01*
X128355000Y-88783406D01*
X128476179Y-88760605D01*
X128587474Y-88688988D01*
X128662138Y-88579714D01*
X128688406Y-88450000D01*
X128688406Y-86950000D01*
X128691594Y-86950000D01*
X128691594Y-88450000D01*
X128714395Y-88571179D01*
X128786012Y-88682474D01*
X128895286Y-88757138D01*
X129025000Y-88783406D01*
X129625000Y-88783406D01*
X129746179Y-88760605D01*
X129857474Y-88688988D01*
X129932138Y-88579714D01*
X129958406Y-88450000D01*
X129958406Y-86950000D01*
X129961594Y-86950000D01*
X129961594Y-88450000D01*
X129984395Y-88571179D01*
X130056012Y-88682474D01*
X130165286Y-88757138D01*
X130295000Y-88783406D01*
X130895000Y-88783406D01*
X131016179Y-88760605D01*
X131127474Y-88688988D01*
X131202138Y-88579714D01*
X131228406Y-88450000D01*
X131228406Y-86950000D01*
X131231594Y-86950000D01*
X131231594Y-88450000D01*
X131254395Y-88571179D01*
X131326012Y-88682474D01*
X131435286Y-88757138D01*
X131565000Y-88783406D01*
X132165000Y-88783406D01*
X132286179Y-88760605D01*
X132397474Y-88688988D01*
X132472138Y-88579714D01*
X132498406Y-88450000D01*
X132498406Y-86950000D01*
X132501594Y-86950000D01*
X132501594Y-88450000D01*
X132524395Y-88571179D01*
X132596012Y-88682474D01*
X132705286Y-88757138D01*
X132835000Y-88783406D01*
X133435000Y-88783406D01*
X133556179Y-88760605D01*
X133667474Y-88688988D01*
X133742138Y-88579714D01*
X133768406Y-88450000D01*
X133768406Y-86950000D01*
X133771594Y-86950000D01*
X133771594Y-88450000D01*
X133794395Y-88571179D01*
X133866012Y-88682474D01*
X133975286Y-88757138D01*
X134105000Y-88783406D01*
X134705000Y-88783406D01*
X134826179Y-88760605D01*
X134937474Y-88688988D01*
X135012138Y-88579714D01*
X135038406Y-88450000D01*
X135038406Y-86950000D01*
X135041594Y-86950000D01*
X135041594Y-88450000D01*
X135064395Y-88571179D01*
X135136012Y-88682474D01*
X135245286Y-88757138D01*
X135375000Y-88783406D01*
X135975000Y-88783406D01*
X136096179Y-88760605D01*
X136207474Y-88688988D01*
X136282138Y-88579714D01*
X136308406Y-88450000D01*
X136308406Y-86950000D01*
X136285605Y-86828821D01*
X136213988Y-86717526D01*
X136104714Y-86642862D01*
X135975000Y-86616594D01*
X135375000Y-86616594D01*
X135253821Y-86639395D01*
X135142526Y-86711012D01*
X135067862Y-86820286D01*
X135041594Y-86950000D01*
X135038406Y-86950000D01*
X135015605Y-86828821D01*
X134943988Y-86717526D01*
X134834714Y-86642862D01*
X134705000Y-86616594D01*
X134105000Y-86616594D01*
X133983821Y-86639395D01*
X133872526Y-86711012D01*
X133797862Y-86820286D01*
X133771594Y-86950000D01*
X133768406Y-86950000D01*
X133745605Y-86828821D01*
X133673988Y-86717526D01*
X133564714Y-86642862D01*
X133435000Y-86616594D01*
X132835000Y-86616594D01*
X132713821Y-86639395D01*
X132602526Y-86711012D01*
X132527862Y-86820286D01*
X132501594Y-86950000D01*
X132498406Y-86950000D01*
X132475605Y-86828821D01*
X132403988Y-86717526D01*
X132294714Y-86642862D01*
X132165000Y-86616594D01*
X131565000Y-86616594D01*
X131443821Y-86639395D01*
X131332526Y-86711012D01*
X131257862Y-86820286D01*
X131231594Y-86950000D01*
X131228406Y-86950000D01*
X131205605Y-86828821D01*
X131133988Y-86717526D01*
X131024714Y-86642862D01*
X130895000Y-86616594D01*
X130295000Y-86616594D01*
X130173821Y-86639395D01*
X130062526Y-86711012D01*
X129987862Y-86820286D01*
X129961594Y-86950000D01*
X129958406Y-86950000D01*
X129935605Y-86828821D01*
X129863988Y-86717526D01*
X129754714Y-86642862D01*
X129625000Y-86616594D01*
X129025000Y-86616594D01*
X128903821Y-86639395D01*
X128792526Y-86711012D01*
X128717862Y-86820286D01*
X128691594Y-86950000D01*
X128688406Y-86950000D01*
X128665605Y-86828821D01*
X128593988Y-86717526D01*
X128484714Y-86642862D01*
X128355000Y-86616594D01*
X127755000Y-86616594D01*
X127633821Y-86639395D01*
X127522526Y-86711012D01*
X127447862Y-86820286D01*
X127421594Y-86950000D01*
X126793277Y-86950000D01*
X126807138Y-86929714D01*
X126833406Y-86800000D01*
X126833406Y-86627000D01*
X127350000Y-86627000D01*
X127532540Y-86590691D01*
X127687290Y-86487290D01*
X129550409Y-84624171D01*
X131372891Y-84624171D01*
X131468145Y-84854703D01*
X131644369Y-85031235D01*
X131874735Y-85126891D01*
X131952379Y-85126959D01*
X133162710Y-86337290D01*
X133317459Y-86440691D01*
X133500000Y-86477000D01*
X138225315Y-86477000D01*
X138261012Y-86532474D01*
X138370286Y-86607138D01*
X138500000Y-86633406D01*
X138523000Y-86633406D01*
X138523000Y-86802420D01*
X138102420Y-87223000D01*
X137578406Y-87223000D01*
X137578406Y-86950000D01*
X137555605Y-86828821D01*
X137483988Y-86717526D01*
X137374714Y-86642862D01*
X137245000Y-86616594D01*
X136645000Y-86616594D01*
X136523821Y-86639395D01*
X136412526Y-86711012D01*
X136337862Y-86820286D01*
X136311594Y-86950000D01*
X136311594Y-88450000D01*
X136334395Y-88571179D01*
X136406012Y-88682474D01*
X136515286Y-88757138D01*
X136645000Y-88783406D01*
X137245000Y-88783406D01*
X137366179Y-88760605D01*
X137477474Y-88688988D01*
X137552138Y-88579714D01*
X137578406Y-88450000D01*
X137578406Y-88177000D01*
X138300000Y-88177000D01*
X138482540Y-88140691D01*
X138637290Y-88037290D01*
X139337290Y-87337290D01*
X139440691Y-87182541D01*
X139477000Y-87000000D01*
X139477000Y-86633406D01*
X139500000Y-86633406D01*
X139621179Y-86610605D01*
X139732474Y-86538988D01*
X139807138Y-86429714D01*
X139833406Y-86300000D01*
X139833406Y-85500000D01*
X139810605Y-85378821D01*
X139738988Y-85267526D01*
X139629714Y-85192862D01*
X139500000Y-85166594D01*
X138500000Y-85166594D01*
X138378821Y-85189395D01*
X138267526Y-85261012D01*
X138192862Y-85370286D01*
X138166594Y-85500000D01*
X138166594Y-85523000D01*
X133697580Y-85523000D01*
X132627042Y-84452462D01*
X132627109Y-84375829D01*
X132531855Y-84145297D01*
X132355631Y-83968765D01*
X132125265Y-83873109D01*
X131875829Y-83872891D01*
X131645297Y-83968145D01*
X131468765Y-84144369D01*
X131373109Y-84374735D01*
X131372891Y-84624171D01*
X129550409Y-84624171D01*
X129662290Y-84512290D01*
X129765691Y-84357540D01*
X129802000Y-84175000D01*
X129802000Y-83324685D01*
X129857474Y-83288988D01*
X129932138Y-83179714D01*
X129958406Y-83050000D01*
X129958406Y-81550000D01*
X129935605Y-81428821D01*
X129863988Y-81317526D01*
X129754714Y-81242862D01*
X129625000Y-81216594D01*
X129025000Y-81216594D01*
X128903821Y-81239395D01*
X128792526Y-81311012D01*
X128717862Y-81420286D01*
X128691594Y-81550000D01*
X128691594Y-83050000D01*
X128714395Y-83171179D01*
X128786012Y-83282474D01*
X128848000Y-83324829D01*
X128848000Y-83977420D01*
X127152420Y-85673000D01*
X126833406Y-85673000D01*
X126833406Y-85500000D01*
X126829078Y-85477000D01*
X127000000Y-85477000D01*
X127182540Y-85440691D01*
X127337290Y-85337290D01*
X128392290Y-84282290D01*
X128495691Y-84127541D01*
X128532000Y-83945000D01*
X128532000Y-83324685D01*
X128587474Y-83288988D01*
X128662138Y-83179714D01*
X128688406Y-83050000D01*
X128688406Y-81550000D01*
X128665605Y-81428821D01*
X128593988Y-81317526D01*
X128484714Y-81242862D01*
X128355000Y-81216594D01*
X127755000Y-81216594D01*
X127633821Y-81239395D01*
X127522526Y-81311012D01*
X127447862Y-81420286D01*
X127421594Y-81550000D01*
X127421594Y-83050000D01*
X127444395Y-83171179D01*
X127516012Y-83282474D01*
X127578000Y-83324829D01*
X127578000Y-83747420D01*
X127135000Y-84190420D01*
X127135000Y-84135750D01*
X126976250Y-83977000D01*
X126077000Y-83977000D01*
X126077000Y-83997000D01*
X125823000Y-83997000D01*
X125823000Y-83977000D01*
X125803000Y-83977000D01*
X125803000Y-83723000D01*
X125823000Y-83723000D01*
X125823000Y-82723750D01*
X125773000Y-82673750D01*
X125773000Y-82127000D01*
X126027000Y-82127000D01*
X126027000Y-82976250D01*
X126077000Y-83026250D01*
X126077000Y-83723000D01*
X126976250Y-83723000D01*
X127135000Y-83564250D01*
X127135000Y-83073691D01*
X127038327Y-82840302D01*
X126902587Y-82704561D01*
X126935000Y-82626310D01*
X126935000Y-82285750D01*
X126776250Y-82127000D01*
X126027000Y-82127000D01*
X125773000Y-82127000D01*
X125023750Y-82127000D01*
X124865000Y-82285750D01*
X124865000Y-82626310D01*
X124926702Y-82775272D01*
X124861673Y-82840302D01*
X124815596Y-82951543D01*
X124729714Y-82892862D01*
X124600000Y-82866594D01*
X124527000Y-82866594D01*
X124527000Y-82828326D01*
X124621179Y-82810605D01*
X124732474Y-82738988D01*
X124807138Y-82629714D01*
X124833406Y-82500000D01*
X124833406Y-81500000D01*
X124810605Y-81378821D01*
X124807304Y-81373690D01*
X124865000Y-81373690D01*
X124865000Y-81714250D01*
X125023750Y-81873000D01*
X125773000Y-81873000D01*
X125773000Y-81023750D01*
X126027000Y-81023750D01*
X126027000Y-81873000D01*
X126776250Y-81873000D01*
X126935000Y-81714250D01*
X126935000Y-81373690D01*
X126838327Y-81140301D01*
X126659698Y-80961673D01*
X126426309Y-80865000D01*
X126185750Y-80865000D01*
X126027000Y-81023750D01*
X125773000Y-81023750D01*
X125614250Y-80865000D01*
X125373691Y-80865000D01*
X125140302Y-80961673D01*
X124961673Y-81140301D01*
X124865000Y-81373690D01*
X124807304Y-81373690D01*
X124738988Y-81267526D01*
X124629714Y-81192862D01*
X124500000Y-81166594D01*
X123700000Y-81166594D01*
X123578821Y-81189395D01*
X123467526Y-81261012D01*
X123392862Y-81370286D01*
X123366594Y-81500000D01*
X123366594Y-82500000D01*
X123389395Y-82621179D01*
X123461012Y-82732474D01*
X123570286Y-82807138D01*
X123573000Y-82807688D01*
X123573000Y-82866594D01*
X123500000Y-82866594D01*
X123378821Y-82889395D01*
X123267526Y-82961012D01*
X123192862Y-83070286D01*
X123166594Y-83200000D01*
X120025615Y-83200000D01*
X120163769Y-82800231D01*
X120015103Y-82626100D01*
X119189540Y-82626100D01*
X118935540Y-82626100D01*
X118109977Y-82626100D01*
X117961311Y-82800231D01*
X117536731Y-82800231D01*
X117529908Y-82786337D01*
X117189218Y-82499098D01*
X116764540Y-82364100D01*
X116489540Y-82364100D01*
X116235540Y-82364100D01*
X115960540Y-82364100D01*
X115535862Y-82499098D01*
X115377000Y-82633036D01*
X115377000Y-81557850D01*
X117752540Y-81557850D01*
X117752540Y-81625410D01*
X117849213Y-81858799D01*
X118019630Y-82029215D01*
X117961311Y-82197969D01*
X118109977Y-82372100D01*
X118935540Y-82372100D01*
X118935540Y-81399100D01*
X119189540Y-81399100D01*
X119189540Y-82372100D01*
X120015103Y-82372100D01*
X120163769Y-82197969D01*
X120105450Y-82029215D01*
X120275867Y-81858799D01*
X120372540Y-81625410D01*
X120372540Y-81557850D01*
X120213790Y-81399100D01*
X119603202Y-81399100D01*
X119360478Y-81279832D01*
X119199356Y-81399100D01*
X119189540Y-81399100D01*
X118935540Y-81399100D01*
X118925724Y-81399100D01*
X118764602Y-81279832D01*
X118521878Y-81399100D01*
X117911290Y-81399100D01*
X117752540Y-81557850D01*
X115377000Y-81557850D01*
X115377000Y-80972790D01*
X117752540Y-80972790D01*
X117752540Y-81040350D01*
X117911290Y-81199100D01*
X118935540Y-81199100D01*
X118935540Y-81182506D01*
X119189540Y-81182506D01*
X119189540Y-81199100D01*
X120213790Y-81199100D01*
X120372540Y-81040350D01*
X120372540Y-80972790D01*
X120275867Y-80739401D01*
X120097238Y-80560773D01*
X120070946Y-80549882D01*
X120070946Y-80476100D01*
X128589330Y-80476100D01*
X128644369Y-80531235D01*
X128874735Y-80626891D01*
X129124171Y-80627109D01*
X129354703Y-80531855D01*
X129531235Y-80355631D01*
X129575192Y-80249772D01*
X130118000Y-80792580D01*
X130118000Y-81275315D01*
X130062526Y-81311012D01*
X129987862Y-81420286D01*
X129961594Y-81550000D01*
X129961594Y-83050000D01*
X129984395Y-83171179D01*
X130056012Y-83282474D01*
X130165286Y-83357138D01*
X130295000Y-83383406D01*
X130895000Y-83383406D01*
X131016179Y-83360605D01*
X131127474Y-83288988D01*
X131202138Y-83179714D01*
X131228406Y-83050000D01*
X131228406Y-81550000D01*
X131205605Y-81428821D01*
X131133988Y-81317526D01*
X131072000Y-81275171D01*
X131072000Y-80595000D01*
X131038152Y-80424832D01*
X131144369Y-80531235D01*
X131374735Y-80626891D01*
X131388000Y-80626903D01*
X131388000Y-81275315D01*
X131332526Y-81311012D01*
X131257862Y-81420286D01*
X131231594Y-81550000D01*
X131231594Y-83050000D01*
X131254395Y-83171179D01*
X131326012Y-83282474D01*
X131435286Y-83357138D01*
X131565000Y-83383406D01*
X132165000Y-83383406D01*
X132286179Y-83360605D01*
X132397474Y-83288988D01*
X132472138Y-83179714D01*
X132498406Y-83050000D01*
X132498406Y-81550000D01*
X132475605Y-81428821D01*
X132403988Y-81317526D01*
X132342000Y-81275171D01*
X132342000Y-80902929D01*
X132361012Y-80932474D01*
X132470286Y-81007138D01*
X132600000Y-81033406D01*
X132658000Y-81033406D01*
X132658000Y-81275315D01*
X132602526Y-81311012D01*
X132527862Y-81420286D01*
X132501594Y-81550000D01*
X132501594Y-83050000D01*
X132524395Y-83171179D01*
X132596012Y-83282474D01*
X132658000Y-83324829D01*
X132658000Y-83670294D01*
X132573109Y-83874735D01*
X132572891Y-84124171D01*
X132668145Y-84354703D01*
X132844369Y-84531235D01*
X133074735Y-84626891D01*
X133324171Y-84627109D01*
X133554703Y-84531855D01*
X133701063Y-84385750D01*
X137865000Y-84385750D01*
X137865000Y-84626309D01*
X137961673Y-84859698D01*
X138140301Y-85038327D01*
X138373690Y-85135000D01*
X138714250Y-85135000D01*
X138873000Y-84976250D01*
X138873000Y-84227000D01*
X139127000Y-84227000D01*
X139127000Y-84976250D01*
X139285750Y-85135000D01*
X139626310Y-85135000D01*
X139859699Y-85038327D01*
X139918999Y-84979026D01*
X145892642Y-84979026D01*
X145895291Y-84994791D01*
X146149268Y-85522036D01*
X146585680Y-85911954D01*
X147138087Y-86105184D01*
X147373000Y-85960924D01*
X147373000Y-84747000D01*
X147627000Y-84747000D01*
X147627000Y-85960924D01*
X147861913Y-86105184D01*
X148414320Y-85911954D01*
X148850732Y-85522036D01*
X149104709Y-84994791D01*
X149107358Y-84979026D01*
X148986217Y-84747000D01*
X147627000Y-84747000D01*
X147373000Y-84747000D01*
X146013783Y-84747000D01*
X145892642Y-84979026D01*
X139918999Y-84979026D01*
X140038327Y-84859698D01*
X140135000Y-84626309D01*
X140135000Y-84385750D01*
X140010224Y-84260974D01*
X145892642Y-84260974D01*
X146013783Y-84493000D01*
X147373000Y-84493000D01*
X147373000Y-84473000D01*
X147627000Y-84473000D01*
X147627000Y-84493000D01*
X148986217Y-84493000D01*
X149107358Y-84260974D01*
X149104709Y-84245209D01*
X148850732Y-83717964D01*
X148414320Y-83328046D01*
X148042961Y-83198146D01*
X148134334Y-83179971D01*
X148520592Y-82921881D01*
X148778682Y-82535623D01*
X148869311Y-82080000D01*
X148778682Y-81624377D01*
X148520592Y-81238119D01*
X148134334Y-80980029D01*
X147678711Y-80889400D01*
X147321289Y-80889400D01*
X146865666Y-80980029D01*
X146479408Y-81238119D01*
X146221318Y-81624377D01*
X146130689Y-82080000D01*
X146221318Y-82535623D01*
X146479408Y-82921881D01*
X146865666Y-83179971D01*
X146957039Y-83198146D01*
X146585680Y-83328046D01*
X146149268Y-83717964D01*
X145895291Y-84245209D01*
X145892642Y-84260974D01*
X140010224Y-84260974D01*
X139976250Y-84227000D01*
X139127000Y-84227000D01*
X138873000Y-84227000D01*
X138023750Y-84227000D01*
X137865000Y-84385750D01*
X133701063Y-84385750D01*
X133731235Y-84355631D01*
X133826891Y-84125265D01*
X133827109Y-83875829D01*
X133731855Y-83645297D01*
X133612000Y-83525233D01*
X133612000Y-83324685D01*
X133667474Y-83288988D01*
X133742138Y-83179714D01*
X133768406Y-83050000D01*
X133768406Y-81550000D01*
X133745605Y-81428821D01*
X133673988Y-81317526D01*
X133612000Y-81275171D01*
X133612000Y-81031148D01*
X133721179Y-81010605D01*
X133832474Y-80938988D01*
X133907138Y-80829714D01*
X133928000Y-80726695D01*
X133928000Y-81275315D01*
X133872526Y-81311012D01*
X133797862Y-81420286D01*
X133771594Y-81550000D01*
X133771594Y-83050000D01*
X133794395Y-83171179D01*
X133866012Y-83282474D01*
X133975286Y-83357138D01*
X134105000Y-83383406D01*
X134705000Y-83383406D01*
X134826179Y-83360605D01*
X134937474Y-83288988D01*
X135012138Y-83179714D01*
X135038406Y-83050000D01*
X135038406Y-81550000D01*
X135041594Y-81550000D01*
X135041594Y-83050000D01*
X135064395Y-83171179D01*
X135136012Y-83282474D01*
X135245286Y-83357138D01*
X135375000Y-83383406D01*
X135975000Y-83383406D01*
X136087050Y-83362323D01*
X136106673Y-83409698D01*
X136285301Y-83588327D01*
X136518690Y-83685000D01*
X136659250Y-83685000D01*
X136818000Y-83526250D01*
X136818000Y-82427000D01*
X137072000Y-82427000D01*
X137072000Y-83526250D01*
X137230750Y-83685000D01*
X137371310Y-83685000D01*
X137604699Y-83588327D01*
X137619334Y-83573691D01*
X137865000Y-83573691D01*
X137865000Y-83814250D01*
X138023750Y-83973000D01*
X138873000Y-83973000D01*
X138873000Y-83223750D01*
X139127000Y-83223750D01*
X139127000Y-83973000D01*
X139976250Y-83973000D01*
X140135000Y-83814250D01*
X140135000Y-83573691D01*
X140038327Y-83340302D01*
X139859699Y-83161673D01*
X139626310Y-83065000D01*
X139285750Y-83065000D01*
X139127000Y-83223750D01*
X138873000Y-83223750D01*
X138714250Y-83065000D01*
X138373690Y-83065000D01*
X138140301Y-83161673D01*
X137961673Y-83340302D01*
X137865000Y-83573691D01*
X137619334Y-83573691D01*
X137783327Y-83409698D01*
X137880000Y-83176309D01*
X137880000Y-82585750D01*
X137721250Y-82427000D01*
X137072000Y-82427000D01*
X136818000Y-82427000D01*
X136798000Y-82427000D01*
X136798000Y-82173000D01*
X136818000Y-82173000D01*
X136818000Y-82153000D01*
X137072000Y-82153000D01*
X137072000Y-82173000D01*
X137721250Y-82173000D01*
X137880000Y-82014250D01*
X137880000Y-81423691D01*
X137783327Y-81190302D01*
X137604699Y-81011673D01*
X137520991Y-80977000D01*
X138302420Y-80977000D01*
X139162710Y-81837290D01*
X139317460Y-81940691D01*
X139500000Y-81977000D01*
X140136427Y-81977000D01*
X139968765Y-82144369D01*
X139873109Y-82374735D01*
X139872891Y-82624171D01*
X139968145Y-82854703D01*
X140144369Y-83031235D01*
X140374735Y-83126891D01*
X140624171Y-83127109D01*
X140795754Y-83056212D01*
X140870286Y-83107138D01*
X141000000Y-83133406D01*
X141458826Y-83133406D01*
X141662710Y-83337290D01*
X141817460Y-83440691D01*
X142000000Y-83477000D01*
X142366594Y-83477000D01*
X142366594Y-83500000D01*
X142389395Y-83621179D01*
X142461012Y-83732474D01*
X142570286Y-83807138D01*
X142700000Y-83833406D01*
X143500000Y-83833406D01*
X143621179Y-83810605D01*
X143732474Y-83738988D01*
X143807138Y-83629714D01*
X143833406Y-83500000D01*
X143833406Y-82500000D01*
X143810605Y-82378821D01*
X143738988Y-82267526D01*
X143701057Y-82241609D01*
X143782894Y-82188948D01*
X143857558Y-82079674D01*
X143883826Y-81949960D01*
X143883826Y-81350520D01*
X143861025Y-81229341D01*
X143789408Y-81118046D01*
X143680134Y-81043382D01*
X143550420Y-81017114D01*
X142549660Y-81017114D01*
X142518378Y-81023000D01*
X142328748Y-81023000D01*
X142333406Y-81000000D01*
X142333406Y-80977000D01*
X142520594Y-80977000D01*
X142549660Y-80982886D01*
X143550420Y-80982886D01*
X143671599Y-80960085D01*
X143782894Y-80888468D01*
X143857558Y-80779194D01*
X143883826Y-80649480D01*
X143883826Y-80050040D01*
X143861025Y-79928861D01*
X143789408Y-79817566D01*
X143702569Y-79758231D01*
X143732474Y-79738988D01*
X143807138Y-79629714D01*
X143833406Y-79500000D01*
X143833406Y-78500000D01*
X143810605Y-78378821D01*
X143738988Y-78267526D01*
X143629714Y-78192862D01*
X143500000Y-78166594D01*
X142700000Y-78166594D01*
X142578821Y-78189395D01*
X142467526Y-78261012D01*
X142392862Y-78370286D01*
X142366594Y-78500000D01*
X142366594Y-78523000D01*
X142333406Y-78523000D01*
X142333406Y-78500000D01*
X142310605Y-78378821D01*
X142238988Y-78267526D01*
X142129714Y-78192862D01*
X142000000Y-78166594D01*
X141000000Y-78166594D01*
X140878821Y-78189395D01*
X140767526Y-78261012D01*
X140692862Y-78370286D01*
X140666594Y-78500000D01*
X140666594Y-78523000D01*
X138887579Y-78523000D01*
X138723631Y-78358765D01*
X138493265Y-78263109D01*
X138243829Y-78262891D01*
X138013297Y-78358145D01*
X137836765Y-78534369D01*
X137741109Y-78764735D01*
X137740891Y-79014171D01*
X137836145Y-79244703D01*
X138012369Y-79421235D01*
X138242735Y-79516891D01*
X138492171Y-79517109D01*
X138589242Y-79477000D01*
X140725315Y-79477000D01*
X140761012Y-79532474D01*
X140870286Y-79607138D01*
X141000000Y-79633406D01*
X142000000Y-79633406D01*
X142121179Y-79610605D01*
X142232474Y-79538988D01*
X142274829Y-79477000D01*
X142366594Y-79477000D01*
X142366594Y-79500000D01*
X142389395Y-79621179D01*
X142461012Y-79732474D01*
X142461976Y-79733133D01*
X142428481Y-79739435D01*
X142317186Y-79811052D01*
X142242522Y-79920326D01*
X142233696Y-79963910D01*
X142129714Y-79892862D01*
X142000000Y-79866594D01*
X141000000Y-79866594D01*
X140878821Y-79889395D01*
X140767526Y-79961012D01*
X140692862Y-80070286D01*
X140666594Y-80200000D01*
X140666594Y-81000000D01*
X140670922Y-81023000D01*
X139697580Y-81023000D01*
X138837290Y-80162710D01*
X138682540Y-80059309D01*
X138500000Y-80023000D01*
X136000000Y-80023000D01*
X135817459Y-80059309D01*
X135662710Y-80162710D01*
X135337710Y-80487710D01*
X135234309Y-80642460D01*
X135198000Y-80825000D01*
X135198000Y-81275315D01*
X135142526Y-81311012D01*
X135067862Y-81420286D01*
X135041594Y-81550000D01*
X135038406Y-81550000D01*
X135015605Y-81428821D01*
X134943988Y-81317526D01*
X134882000Y-81275171D01*
X134882000Y-79792580D01*
X137197580Y-77477000D01*
X140666594Y-77477000D01*
X140666594Y-77500000D01*
X140689395Y-77621179D01*
X140761012Y-77732474D01*
X140870286Y-77807138D01*
X141000000Y-77833406D01*
X142000000Y-77833406D01*
X142121179Y-77810605D01*
X142232474Y-77738988D01*
X142307138Y-77629714D01*
X142324916Y-77541926D01*
X142419946Y-77606858D01*
X142549660Y-77633126D01*
X143550420Y-77633126D01*
X143671599Y-77610325D01*
X143782894Y-77538708D01*
X143857558Y-77429434D01*
X143883826Y-77299720D01*
X143883826Y-76700280D01*
X143861025Y-76579101D01*
X143789408Y-76467806D01*
X143680134Y-76393142D01*
X143550420Y-76366874D01*
X142549660Y-76366874D01*
X142428481Y-76389675D01*
X142317186Y-76461292D01*
X142275023Y-76523000D01*
X142274685Y-76523000D01*
X142238988Y-76467526D01*
X142129714Y-76392862D01*
X142000000Y-76366594D01*
X141000000Y-76366594D01*
X140878821Y-76389395D01*
X140767526Y-76461012D01*
X140725171Y-76523000D01*
X137000000Y-76523000D01*
X136817460Y-76559309D01*
X136662710Y-76662710D01*
X134189667Y-79135753D01*
X134235000Y-79026309D01*
X134235000Y-78785750D01*
X134076250Y-78627000D01*
X133227000Y-78627000D01*
X133227000Y-79376250D01*
X133385750Y-79535000D01*
X133726310Y-79535000D01*
X133959116Y-79438569D01*
X133928000Y-79595000D01*
X133928000Y-79871269D01*
X133910605Y-79778821D01*
X133838988Y-79667526D01*
X133729714Y-79592862D01*
X133600000Y-79566594D01*
X132600000Y-79566594D01*
X132478821Y-79589395D01*
X132367526Y-79661012D01*
X132292862Y-79770286D01*
X132266594Y-79900000D01*
X132266594Y-80123947D01*
X132202290Y-80027710D01*
X132127042Y-79952462D01*
X132127109Y-79875829D01*
X132031855Y-79645297D01*
X131855631Y-79468765D01*
X131625265Y-79373109D01*
X131375829Y-79372891D01*
X131145297Y-79468145D01*
X130968765Y-79644369D01*
X130873109Y-79874735D01*
X130872891Y-80124171D01*
X130925096Y-80250516D01*
X129686390Y-79011810D01*
X129531640Y-78908409D01*
X129349100Y-78872100D01*
X126802480Y-78872100D01*
X126888830Y-78785750D01*
X131965000Y-78785750D01*
X131965000Y-79026309D01*
X132061673Y-79259698D01*
X132240301Y-79438327D01*
X132473690Y-79535000D01*
X132814250Y-79535000D01*
X132973000Y-79376250D01*
X132973000Y-78627000D01*
X132123750Y-78627000D01*
X131965000Y-78785750D01*
X126888830Y-78785750D01*
X127162290Y-78512290D01*
X127265691Y-78357541D01*
X127302000Y-78175000D01*
X127302000Y-77973691D01*
X131965000Y-77973691D01*
X131965000Y-78214250D01*
X132123750Y-78373000D01*
X132973000Y-78373000D01*
X132973000Y-78353000D01*
X133227000Y-78353000D01*
X133227000Y-78373000D01*
X134076250Y-78373000D01*
X134235000Y-78214250D01*
X134235000Y-77973691D01*
X134138327Y-77740302D01*
X133959699Y-77561673D01*
X133778113Y-77486458D01*
X133867679Y-77469605D01*
X133978974Y-77397988D01*
X134053638Y-77288714D01*
X134079906Y-77159000D01*
X134079906Y-76651000D01*
X134057105Y-76529821D01*
X133985488Y-76418526D01*
X133876214Y-76343862D01*
X133746500Y-76317594D01*
X132603500Y-76317594D01*
X132482321Y-76340395D01*
X132371026Y-76412012D01*
X132296362Y-76521286D01*
X132270094Y-76651000D01*
X132270094Y-77159000D01*
X132292895Y-77280179D01*
X132364512Y-77391474D01*
X132472713Y-77465405D01*
X132240301Y-77561673D01*
X132061673Y-77740302D01*
X131965000Y-77973691D01*
X127302000Y-77973691D01*
X127302000Y-77492406D01*
X127396500Y-77492406D01*
X127517679Y-77469605D01*
X127628974Y-77397988D01*
X127639898Y-77382000D01*
X128095000Y-77382000D01*
X128277540Y-77345691D01*
X128432290Y-77242290D01*
X131023830Y-74650750D01*
X131968500Y-74650750D01*
X131968500Y-74745309D01*
X132065173Y-74978698D01*
X132243801Y-75157327D01*
X132334805Y-75195022D01*
X132296362Y-75251286D01*
X132270094Y-75381000D01*
X132270094Y-75889000D01*
X132292895Y-76010179D01*
X132364512Y-76121474D01*
X132473786Y-76196138D01*
X132603500Y-76222406D01*
X133746500Y-76222406D01*
X133867679Y-76199605D01*
X133978974Y-76127988D01*
X133989898Y-76112000D01*
X134037420Y-76112000D01*
X134262710Y-76337290D01*
X134417460Y-76440691D01*
X134600000Y-76477000D01*
X134725315Y-76477000D01*
X134761012Y-76532474D01*
X134870286Y-76607138D01*
X135000000Y-76633406D01*
X136000000Y-76633406D01*
X136121179Y-76610605D01*
X136232474Y-76538988D01*
X136307138Y-76429714D01*
X136333406Y-76300000D01*
X136333406Y-76050040D01*
X144116174Y-76050040D01*
X144116174Y-76649480D01*
X144138975Y-76770659D01*
X144210592Y-76881954D01*
X144319866Y-76956618D01*
X144449580Y-76982886D01*
X144908506Y-76982886D01*
X144942734Y-77017114D01*
X144449580Y-77017114D01*
X144328401Y-77039915D01*
X144217106Y-77111532D01*
X144142442Y-77220806D01*
X144116174Y-77350520D01*
X144116174Y-77949960D01*
X144138975Y-78071139D01*
X144210592Y-78182434D01*
X144297431Y-78241769D01*
X144267526Y-78261012D01*
X144192862Y-78370286D01*
X144166594Y-78500000D01*
X144166594Y-79500000D01*
X144189395Y-79621179D01*
X144261012Y-79732474D01*
X144370286Y-79807138D01*
X144500000Y-79833406D01*
X144992014Y-79833406D01*
X144612670Y-80212750D01*
X144509687Y-80366874D01*
X144449580Y-80366874D01*
X144328401Y-80389675D01*
X144217106Y-80461292D01*
X144142442Y-80570566D01*
X144116174Y-80700280D01*
X144116174Y-81299720D01*
X144138975Y-81420899D01*
X144210592Y-81532194D01*
X144319866Y-81606858D01*
X144449580Y-81633126D01*
X144523000Y-81633126D01*
X144523000Y-82166594D01*
X144500000Y-82166594D01*
X144378821Y-82189395D01*
X144267526Y-82261012D01*
X144192862Y-82370286D01*
X144166594Y-82500000D01*
X144166594Y-83500000D01*
X144189395Y-83621179D01*
X144261012Y-83732474D01*
X144370286Y-83807138D01*
X144500000Y-83833406D01*
X145300000Y-83833406D01*
X145421179Y-83810605D01*
X145532474Y-83738988D01*
X145607138Y-83629714D01*
X145633406Y-83500000D01*
X145633406Y-82500000D01*
X145610605Y-82378821D01*
X145538988Y-82267526D01*
X145477000Y-82225171D01*
X145477000Y-81628110D01*
X145571519Y-81610325D01*
X145682814Y-81538708D01*
X145757478Y-81429434D01*
X145783746Y-81299720D01*
X145783746Y-80700280D01*
X145760945Y-80579101D01*
X145696159Y-80478421D01*
X146157580Y-80017000D01*
X146235602Y-80017000D01*
X146479408Y-80381881D01*
X146865666Y-80639971D01*
X147321289Y-80730600D01*
X147678711Y-80730600D01*
X148134334Y-80639971D01*
X148520592Y-80381881D01*
X148778682Y-79995623D01*
X148869311Y-79540000D01*
X148778682Y-79084377D01*
X148520592Y-78698119D01*
X148134334Y-78440029D01*
X147678711Y-78349400D01*
X147321289Y-78349400D01*
X146865666Y-78440029D01*
X146479408Y-78698119D01*
X146235602Y-79063000D01*
X145960000Y-79063000D01*
X145777459Y-79099309D01*
X145633406Y-79195563D01*
X145633406Y-78500000D01*
X145610605Y-78378821D01*
X145538988Y-78267526D01*
X145538024Y-78266867D01*
X145571519Y-78260565D01*
X145682814Y-78188948D01*
X145757478Y-78079674D01*
X145783746Y-77949960D01*
X145783746Y-77477000D01*
X146235602Y-77477000D01*
X146479408Y-77841881D01*
X146865666Y-78099971D01*
X147321289Y-78190600D01*
X147678711Y-78190600D01*
X148134334Y-78099971D01*
X148520592Y-77841881D01*
X148778682Y-77455623D01*
X148869311Y-77000000D01*
X148778682Y-76544377D01*
X148520592Y-76158119D01*
X148134334Y-75900029D01*
X147678711Y-75809400D01*
X147321289Y-75809400D01*
X146865666Y-75900029D01*
X146479408Y-76158119D01*
X146235602Y-76523000D01*
X145797780Y-76523000D01*
X145783746Y-76508966D01*
X145783746Y-76050040D01*
X145760945Y-75928861D01*
X145689328Y-75817566D01*
X145580054Y-75742902D01*
X145450340Y-75716634D01*
X144449580Y-75716634D01*
X144328401Y-75739435D01*
X144217106Y-75811052D01*
X144142442Y-75920326D01*
X144116174Y-76050040D01*
X136333406Y-76050040D01*
X136333406Y-75500000D01*
X136310605Y-75378821D01*
X136238988Y-75267526D01*
X136129714Y-75192862D01*
X136000000Y-75166594D01*
X135000000Y-75166594D01*
X134878821Y-75189395D01*
X134767526Y-75261012D01*
X134692862Y-75370286D01*
X134684779Y-75410199D01*
X134572290Y-75297710D01*
X134417540Y-75194309D01*
X134235000Y-75158000D01*
X134104574Y-75158000D01*
X134106199Y-75157327D01*
X134284827Y-74978698D01*
X134381500Y-74745309D01*
X134381500Y-74666143D01*
X134461673Y-74859698D01*
X134640301Y-75038327D01*
X134873690Y-75135000D01*
X135214250Y-75135000D01*
X135373000Y-74976250D01*
X135373000Y-74227000D01*
X135627000Y-74227000D01*
X135627000Y-74976250D01*
X135785750Y-75135000D01*
X136126310Y-75135000D01*
X136359699Y-75038327D01*
X136538327Y-74859698D01*
X136635000Y-74626309D01*
X136635000Y-74385750D01*
X136476250Y-74227000D01*
X135627000Y-74227000D01*
X135373000Y-74227000D01*
X134523750Y-74227000D01*
X134365000Y-74385750D01*
X134365000Y-74626309D01*
X134370615Y-74639865D01*
X134222750Y-74492000D01*
X133302000Y-74492000D01*
X133302000Y-74512000D01*
X133048000Y-74512000D01*
X133048000Y-74492000D01*
X132127250Y-74492000D01*
X131968500Y-74650750D01*
X131023830Y-74650750D01*
X132102580Y-73572000D01*
X132245426Y-73572000D01*
X132243801Y-73572673D01*
X132065173Y-73751302D01*
X131968500Y-73984691D01*
X131968500Y-74079250D01*
X132127250Y-74238000D01*
X133048000Y-74238000D01*
X133048000Y-74218000D01*
X133302000Y-74218000D01*
X133302000Y-74238000D01*
X134222750Y-74238000D01*
X134381500Y-74079250D01*
X134381500Y-73984691D01*
X134303965Y-73797505D01*
X134374735Y-73826891D01*
X134377644Y-73826894D01*
X134523750Y-73973000D01*
X135373000Y-73973000D01*
X135373000Y-73223750D01*
X135627000Y-73223750D01*
X135627000Y-73973000D01*
X136476250Y-73973000D01*
X136635000Y-73814250D01*
X136635000Y-73573691D01*
X136538327Y-73340302D01*
X136359699Y-73161673D01*
X136126310Y-73065000D01*
X135785750Y-73065000D01*
X135627000Y-73223750D01*
X135373000Y-73223750D01*
X135214250Y-73065000D01*
X135122635Y-73065000D01*
X135118818Y-73055762D01*
X136197580Y-71977000D01*
X136666594Y-71977000D01*
X136666594Y-72000000D01*
X136689395Y-72121179D01*
X136761012Y-72232474D01*
X136870286Y-72307138D01*
X137000000Y-72333406D01*
X138000000Y-72333406D01*
X138121179Y-72310605D01*
X138232474Y-72238988D01*
X138273000Y-72179676D01*
X138273000Y-72340229D01*
X138218765Y-72394369D01*
X138123109Y-72624735D01*
X138123051Y-72691513D01*
X138000000Y-72666594D01*
X137000000Y-72666594D01*
X136878821Y-72689395D01*
X136767526Y-72761012D01*
X136692862Y-72870286D01*
X136666594Y-73000000D01*
X136666594Y-73800000D01*
X136689395Y-73921179D01*
X136761012Y-74032474D01*
X136870286Y-74107138D01*
X137000000Y-74133406D01*
X138000000Y-74133406D01*
X138121179Y-74110605D01*
X138232474Y-74038988D01*
X138274829Y-73977000D01*
X139225315Y-73977000D01*
X139261012Y-74032474D01*
X139370286Y-74107138D01*
X139483163Y-74129996D01*
X139468765Y-74144369D01*
X139373109Y-74374735D01*
X139372891Y-74624171D01*
X139468145Y-74854703D01*
X139644369Y-75031235D01*
X139874735Y-75126891D01*
X140124171Y-75127109D01*
X140354703Y-75031855D01*
X140531235Y-74855631D01*
X140626891Y-74625265D01*
X140627109Y-74375829D01*
X140531855Y-74145297D01*
X140516825Y-74130240D01*
X140621179Y-74110605D01*
X140732474Y-74038988D01*
X140774829Y-73977000D01*
X141725315Y-73977000D01*
X141761012Y-74032474D01*
X141870286Y-74107138D01*
X142000000Y-74133406D01*
X143000000Y-74133406D01*
X143121179Y-74110605D01*
X143232474Y-74038988D01*
X143307138Y-73929714D01*
X143333406Y-73800000D01*
X143333406Y-73596400D01*
X146150594Y-73596400D01*
X146150594Y-75323600D01*
X146173395Y-75444779D01*
X146245012Y-75556074D01*
X146354286Y-75630738D01*
X146484000Y-75657006D01*
X148516000Y-75657006D01*
X148637179Y-75634205D01*
X148748474Y-75562588D01*
X148823138Y-75453314D01*
X148849406Y-75323600D01*
X148849406Y-73596400D01*
X148826605Y-73475221D01*
X148754988Y-73363926D01*
X148645714Y-73289262D01*
X148516000Y-73262994D01*
X146484000Y-73262994D01*
X146362821Y-73285795D01*
X146251526Y-73357412D01*
X146176862Y-73466686D01*
X146150594Y-73596400D01*
X143333406Y-73596400D01*
X143333406Y-73000000D01*
X143310605Y-72878821D01*
X143238988Y-72767526D01*
X143129714Y-72692862D01*
X143000000Y-72666594D01*
X142000000Y-72666594D01*
X141878821Y-72689395D01*
X141767526Y-72761012D01*
X141692862Y-72870286D01*
X141666594Y-73000000D01*
X141666594Y-73023000D01*
X140833406Y-73023000D01*
X140833406Y-73000000D01*
X140810605Y-72878821D01*
X140738988Y-72767526D01*
X140629714Y-72692862D01*
X140500000Y-72666594D01*
X139500000Y-72666594D01*
X139378821Y-72689395D01*
X139377052Y-72690533D01*
X139377109Y-72625829D01*
X139281855Y-72395297D01*
X139227000Y-72340346D01*
X139227000Y-72197580D01*
X139234033Y-72190547D01*
X139261012Y-72232474D01*
X139370286Y-72307138D01*
X139500000Y-72333406D01*
X140500000Y-72333406D01*
X140621179Y-72310605D01*
X140732474Y-72238988D01*
X140807138Y-72129714D01*
X140833406Y-72000000D01*
X140833406Y-71200000D01*
X141666594Y-71200000D01*
X141666594Y-72000000D01*
X141689395Y-72121179D01*
X141761012Y-72232474D01*
X141870286Y-72307138D01*
X142000000Y-72333406D01*
X143000000Y-72333406D01*
X143121179Y-72310605D01*
X143232474Y-72238988D01*
X143307138Y-72129714D01*
X143327951Y-72026938D01*
X143524171Y-72027109D01*
X143754703Y-71931855D01*
X143931235Y-71755631D01*
X144026891Y-71525265D01*
X144027109Y-71275829D01*
X143931855Y-71045297D01*
X143755631Y-70868765D01*
X143525265Y-70773109D01*
X143275829Y-70772891D01*
X143045297Y-70868145D01*
X143038949Y-70874482D01*
X143000000Y-70866594D01*
X142000000Y-70866594D01*
X141878821Y-70889395D01*
X141767526Y-70961012D01*
X141692862Y-71070286D01*
X141666594Y-71200000D01*
X140833406Y-71200000D01*
X140810605Y-71078821D01*
X140738988Y-70967526D01*
X140629714Y-70892862D01*
X140500000Y-70866594D01*
X139500000Y-70866594D01*
X139378821Y-70889395D01*
X139267526Y-70961012D01*
X139221266Y-71028715D01*
X139067460Y-71059309D01*
X138912710Y-71162710D01*
X138412710Y-71662710D01*
X138333406Y-71781396D01*
X138333406Y-71200000D01*
X138310605Y-71078821D01*
X138238988Y-70967526D01*
X138129714Y-70892862D01*
X138000000Y-70866594D01*
X137000000Y-70866594D01*
X136878821Y-70889395D01*
X136767526Y-70961012D01*
X136725171Y-71023000D01*
X136000000Y-71023000D01*
X135817460Y-71059309D01*
X135662710Y-71162710D01*
X134207420Y-72618000D01*
X133991584Y-72618000D01*
X133985488Y-72608526D01*
X133876214Y-72533862D01*
X133746500Y-72507594D01*
X132603500Y-72507594D01*
X132482321Y-72530395D01*
X132371026Y-72602012D01*
X132360102Y-72618000D01*
X131905000Y-72618000D01*
X131722460Y-72654309D01*
X131567710Y-72757710D01*
X127897420Y-76428000D01*
X127641584Y-76428000D01*
X127635488Y-76418526D01*
X127526214Y-76343862D01*
X127396500Y-76317594D01*
X126253500Y-76317594D01*
X126132321Y-76340395D01*
X126021026Y-76412012D01*
X125946362Y-76521286D01*
X125946015Y-76523000D01*
X125633406Y-76523000D01*
X125633406Y-76500000D01*
X125610605Y-76378821D01*
X125538988Y-76267526D01*
X125514319Y-76250670D01*
X125532474Y-76238988D01*
X125607138Y-76129714D01*
X125617813Y-76077000D01*
X125985894Y-76077000D01*
X126014512Y-76121474D01*
X126123786Y-76196138D01*
X126253500Y-76222406D01*
X127396500Y-76222406D01*
X127517679Y-76199605D01*
X127628974Y-76127988D01*
X127703638Y-76018714D01*
X127729906Y-75889000D01*
X127729906Y-75381000D01*
X127707105Y-75259821D01*
X127635488Y-75148526D01*
X127526214Y-75073862D01*
X127396500Y-75047594D01*
X126253500Y-75047594D01*
X126132321Y-75070395D01*
X126050571Y-75123000D01*
X125633406Y-75123000D01*
X125633406Y-75000000D01*
X125610605Y-74878821D01*
X125538988Y-74767526D01*
X125429714Y-74692862D01*
X125300000Y-74666594D01*
X124500000Y-74666594D01*
X124378821Y-74689395D01*
X124267526Y-74761012D01*
X124192862Y-74870286D01*
X124166594Y-75000000D01*
X124166594Y-76000000D01*
X124189395Y-76121179D01*
X124261012Y-76232474D01*
X124285681Y-76249330D01*
X124267526Y-76261012D01*
X124192862Y-76370286D01*
X124166594Y-76500000D01*
X124166594Y-77500000D01*
X124189395Y-77621179D01*
X124261012Y-77732474D01*
X124370286Y-77807138D01*
X124500000Y-77833406D01*
X125300000Y-77833406D01*
X125421179Y-77810605D01*
X125532474Y-77738988D01*
X125607138Y-77629714D01*
X125633406Y-77500000D01*
X125633406Y-77477000D01*
X126177424Y-77477000D01*
X126253500Y-77492406D01*
X126348000Y-77492406D01*
X126348000Y-77977420D01*
X126103320Y-78222100D01*
X120011511Y-78222100D01*
X120022108Y-78210149D01*
X120163769Y-77800231D01*
X120015103Y-77626100D01*
X119189540Y-77626100D01*
X119189540Y-77646100D01*
X118935540Y-77646100D01*
X118935540Y-77626100D01*
X118109977Y-77626100D01*
X117961311Y-77800231D01*
X118102972Y-78210149D01*
X118151676Y-78265074D01*
X118080402Y-78369386D01*
X118054134Y-78499100D01*
X118054134Y-78899100D01*
X118076935Y-79020279D01*
X118079435Y-79024163D01*
X118054134Y-79149100D01*
X118054134Y-79549100D01*
X118076935Y-79670279D01*
X118079435Y-79674163D01*
X118054134Y-79799100D01*
X118054134Y-80199100D01*
X118076935Y-80320279D01*
X118079435Y-80324163D01*
X118054134Y-80449100D01*
X118054134Y-80549882D01*
X118027842Y-80560773D01*
X117849213Y-80739401D01*
X117752540Y-80972790D01*
X115377000Y-80972790D01*
X115377000Y-77365164D01*
X115535862Y-77499102D01*
X115960540Y-77634100D01*
X116235540Y-77634100D01*
X116235540Y-76626100D01*
X116489540Y-76626100D01*
X116489540Y-77634100D01*
X116764540Y-77634100D01*
X117189218Y-77499102D01*
X117529908Y-77211863D01*
X117536730Y-77197969D01*
X117961311Y-77197969D01*
X118109977Y-77372100D01*
X118935540Y-77372100D01*
X118935540Y-76406366D01*
X119189540Y-76406366D01*
X119189540Y-77372100D01*
X120015103Y-77372100D01*
X120163769Y-77197969D01*
X120022108Y-76788051D01*
X119734361Y-76463548D01*
X119360478Y-76279832D01*
X119189540Y-76406366D01*
X118935540Y-76406366D01*
X118764602Y-76279832D01*
X118390719Y-76463548D01*
X118102972Y-76788051D01*
X117961311Y-77197969D01*
X117536730Y-77197969D01*
X117731659Y-76800974D01*
X117605494Y-76626100D01*
X116489540Y-76626100D01*
X116235540Y-76626100D01*
X116215540Y-76626100D01*
X116215540Y-76372100D01*
X116235540Y-76372100D01*
X116235540Y-75364100D01*
X116489540Y-75364100D01*
X116489540Y-76372100D01*
X117605494Y-76372100D01*
X117731659Y-76197226D01*
X117529908Y-75786337D01*
X117189218Y-75499098D01*
X116764540Y-75364100D01*
X116489540Y-75364100D01*
X116235540Y-75364100D01*
X115960540Y-75364100D01*
X115535862Y-75499098D01*
X115377000Y-75633036D01*
X115377000Y-75000000D01*
X122366594Y-75000000D01*
X122366594Y-76000000D01*
X122389395Y-76121179D01*
X122461012Y-76232474D01*
X122485681Y-76249330D01*
X122467526Y-76261012D01*
X122392862Y-76370286D01*
X122366594Y-76500000D01*
X122366594Y-77500000D01*
X122389395Y-77621179D01*
X122461012Y-77732474D01*
X122570286Y-77807138D01*
X122700000Y-77833406D01*
X123500000Y-77833406D01*
X123621179Y-77810605D01*
X123732474Y-77738988D01*
X123807138Y-77629714D01*
X123833406Y-77500000D01*
X123833406Y-76500000D01*
X123810605Y-76378821D01*
X123738988Y-76267526D01*
X123714319Y-76250670D01*
X123732474Y-76238988D01*
X123807138Y-76129714D01*
X123833406Y-76000000D01*
X123833406Y-75000000D01*
X123810605Y-74878821D01*
X123738988Y-74767526D01*
X123629714Y-74692862D01*
X123500000Y-74666594D01*
X122700000Y-74666594D01*
X122578821Y-74689395D01*
X122467526Y-74761012D01*
X122392862Y-74870286D01*
X122366594Y-75000000D01*
X115377000Y-75000000D01*
X115377000Y-72922946D01*
X115934017Y-72922946D01*
X116202812Y-73508379D01*
X116675182Y-73946385D01*
X117157056Y-74145975D01*
X117413000Y-74026836D01*
X117413000Y-72667000D01*
X116052633Y-72667000D01*
X115934017Y-72922946D01*
X115377000Y-72922946D01*
X115377000Y-72157054D01*
X115934017Y-72157054D01*
X116052633Y-72413000D01*
X117413000Y-72413000D01*
X117413000Y-71053164D01*
X117667000Y-71053164D01*
X117667000Y-72413000D01*
X117687000Y-72413000D01*
X117687000Y-72667000D01*
X117667000Y-72667000D01*
X117667000Y-74026836D01*
X117922944Y-74145975D01*
X118007384Y-74111000D01*
X125920094Y-74111000D01*
X125920094Y-74619000D01*
X125942895Y-74740179D01*
X126014512Y-74851474D01*
X126123786Y-74926138D01*
X126253500Y-74952406D01*
X127396500Y-74952406D01*
X127517679Y-74929605D01*
X127628974Y-74857988D01*
X127703638Y-74748714D01*
X127729906Y-74619000D01*
X127729906Y-74111000D01*
X127707105Y-73989821D01*
X127635488Y-73878526D01*
X127526214Y-73803862D01*
X127396500Y-73777594D01*
X126253500Y-73777594D01*
X126132321Y-73800395D01*
X126021026Y-73872012D01*
X125946362Y-73981286D01*
X125920094Y-74111000D01*
X118007384Y-74111000D01*
X118404818Y-73946385D01*
X118744742Y-73631190D01*
X118753395Y-73677179D01*
X118825012Y-73788474D01*
X118934286Y-73863138D01*
X119064000Y-73889406D01*
X121096000Y-73889406D01*
X121217179Y-73866605D01*
X121328474Y-73794988D01*
X121403138Y-73685714D01*
X121429406Y-73556000D01*
X121429406Y-72841000D01*
X125920094Y-72841000D01*
X125920094Y-73349000D01*
X125942895Y-73470179D01*
X126014512Y-73581474D01*
X126123786Y-73656138D01*
X126253500Y-73682406D01*
X127396500Y-73682406D01*
X127517679Y-73659605D01*
X127628974Y-73587988D01*
X127703638Y-73478714D01*
X127729906Y-73349000D01*
X127729906Y-72841000D01*
X127707105Y-72719821D01*
X127635488Y-72608526D01*
X127526214Y-72533862D01*
X127402000Y-72508708D01*
X127402000Y-71785209D01*
X127426891Y-71725265D01*
X127427109Y-71475829D01*
X127331855Y-71245297D01*
X127155631Y-71068765D01*
X126925265Y-70973109D01*
X126675829Y-70972891D01*
X126445297Y-71068145D01*
X126268765Y-71244369D01*
X126173109Y-71474735D01*
X126172891Y-71724171D01*
X126248000Y-71905948D01*
X126248000Y-72508629D01*
X126132321Y-72530395D01*
X126021026Y-72602012D01*
X125946362Y-72711286D01*
X125920094Y-72841000D01*
X121429406Y-72841000D01*
X121429406Y-71524000D01*
X121406605Y-71402821D01*
X121334988Y-71291526D01*
X121225714Y-71216862D01*
X121096000Y-71190594D01*
X119064000Y-71190594D01*
X118942821Y-71213395D01*
X118831526Y-71285012D01*
X118756862Y-71394286D01*
X118745650Y-71449652D01*
X118404818Y-71133615D01*
X117922944Y-70934025D01*
X117667000Y-71053164D01*
X117413000Y-71053164D01*
X117157056Y-70934025D01*
X116675182Y-71133615D01*
X116202812Y-71571621D01*
X115934017Y-72157054D01*
X115377000Y-72157054D01*
X115377000Y-70377000D01*
X149623000Y-70377000D01*
X149623000Y-89623000D01*
M02*
