G04 #@! TF.FileFunction,Legend,Bot*
%FSLAX46Y46*%
G04 Gerber Fmt 4.6, Leading zero omitted, Abs format (unit mm)*
G04 Created by KiCad (PCBNEW 4.0.2+dfsg1-stable) date Thu 01 Sep 2016 11:14:53 PM EEST*
%MOMM*%
G01*
G04 APERTURE LIST*
%ADD10C,0.100000*%
%ADD11C,0.010000*%
G04 APERTURE END LIST*
D10*
D11*
G36*
X126169580Y-79949602D02*
X126217015Y-79383411D01*
X126286564Y-78958381D01*
X126511473Y-78197540D01*
X126821803Y-77512018D01*
X127202586Y-76925064D01*
X127638857Y-76459929D01*
X128093934Y-76150621D01*
X128677847Y-75933587D01*
X129355906Y-75807272D01*
X130078522Y-75772867D01*
X130796110Y-75831562D01*
X131459084Y-75984547D01*
X131678807Y-76064551D01*
X131871235Y-76054991D01*
X132018529Y-75950848D01*
X132376502Y-75694887D01*
X132834698Y-75514455D01*
X133414382Y-75403085D01*
X133960898Y-75360153D01*
X134558985Y-75352331D01*
X135045131Y-75392043D01*
X135472364Y-75488624D01*
X135893710Y-75651405D01*
X136056000Y-75728921D01*
X136391313Y-75929263D01*
X136737086Y-76190525D01*
X137045516Y-76471670D01*
X137268798Y-76731659D01*
X137320226Y-76814213D01*
X137384160Y-76921187D01*
X137460839Y-76983423D01*
X137589441Y-77008765D01*
X137809142Y-77005051D01*
X138151930Y-76980677D01*
X138865204Y-76925851D01*
X138836435Y-77129426D01*
X138805587Y-77240741D01*
X138725731Y-77307484D01*
X138556857Y-77346643D01*
X138258956Y-77375209D01*
X138257333Y-77375334D01*
X137960276Y-77403851D01*
X137796913Y-77441062D01*
X137731695Y-77501171D01*
X137727581Y-77587000D01*
X137749243Y-77750979D01*
X137787295Y-78026498D01*
X137833983Y-78357493D01*
X137839849Y-78398636D01*
X137874433Y-78828129D01*
X137871650Y-79312336D01*
X137835470Y-79792166D01*
X137769865Y-80208528D01*
X137702149Y-80447778D01*
X137689441Y-80528667D01*
X137742438Y-80589822D01*
X137888931Y-80642724D01*
X138156712Y-80698854D01*
X138420013Y-80744350D01*
X138701790Y-80818887D01*
X138825627Y-80919554D01*
X138786816Y-81041543D01*
X138746986Y-81078203D01*
X138613078Y-81110964D01*
X138373553Y-81114151D01*
X138088546Y-81092821D01*
X137818195Y-81052031D01*
X137622636Y-80996836D01*
X137592012Y-80981092D01*
X137500099Y-81012310D01*
X137373552Y-81152942D01*
X137338368Y-81205973D01*
X137077306Y-81546547D01*
X136723729Y-81904126D01*
X136337704Y-82222275D01*
X136071563Y-82396275D01*
X135861214Y-82528926D01*
X135795749Y-82612560D01*
X135838729Y-82653135D01*
X135960352Y-82755296D01*
X135936505Y-82887714D01*
X135778844Y-83017504D01*
X135696166Y-83055452D01*
X135421000Y-83164136D01*
X135689861Y-83195629D01*
X135916328Y-83258862D01*
X136073326Y-83368195D01*
X136123797Y-83490521D01*
X136090511Y-83553552D01*
X135959724Y-83611594D01*
X135743042Y-83653187D01*
X135717333Y-83655797D01*
X135421000Y-83683000D01*
X135675000Y-83811141D01*
X135868497Y-83951454D01*
X135920646Y-84086619D01*
X135829000Y-84186559D01*
X135707990Y-84216650D01*
X135512905Y-84181372D01*
X135286686Y-84064644D01*
X135085917Y-83906058D01*
X134967184Y-83745208D01*
X134955333Y-83690016D01*
X134880074Y-83614099D01*
X134743173Y-83555532D01*
X134743173Y-83109357D01*
X134886829Y-83106574D01*
X135014346Y-83025273D01*
X135083428Y-82962305D01*
X135224687Y-82824770D01*
X135292868Y-82748897D01*
X135294000Y-82745908D01*
X135220908Y-82750116D01*
X135039148Y-82783594D01*
X134976500Y-82796969D01*
X134688056Y-82853265D01*
X134419398Y-82895279D01*
X134405000Y-82897053D01*
X134258168Y-82918561D01*
X134239411Y-82945241D01*
X134361499Y-82994623D01*
X134511928Y-83043813D01*
X134743173Y-83109357D01*
X134743173Y-83555532D01*
X134686705Y-83531374D01*
X134515910Y-83483652D01*
X134204072Y-83384512D01*
X133917238Y-83249502D01*
X133816564Y-83183968D01*
X133571060Y-83033922D01*
X133423490Y-82975058D01*
X133423490Y-82539050D01*
X133649641Y-82530248D01*
X133976697Y-82505297D01*
X134794949Y-82390878D01*
X135485574Y-82185387D01*
X136069479Y-81879065D01*
X136567571Y-81462153D01*
X136813351Y-81181120D01*
X137166025Y-80602286D01*
X137391925Y-79931199D01*
X137485924Y-79193406D01*
X137442891Y-78414452D01*
X137409389Y-78212390D01*
X137234572Y-77620903D01*
X136954060Y-77074490D01*
X136596553Y-76625803D01*
X136492182Y-76529638D01*
X136277888Y-76353536D01*
X136144930Y-76276202D01*
X136049240Y-76282617D01*
X135958395Y-76347724D01*
X135868297Y-76458727D01*
X135884690Y-76513897D01*
X135957000Y-76611155D01*
X135971333Y-76705056D01*
X135908070Y-76833394D01*
X135748615Y-76872697D01*
X135538473Y-76826646D01*
X135323145Y-76698925D01*
X135267162Y-76648072D01*
X135084364Y-76500868D01*
X134904147Y-76467792D01*
X134768783Y-76489071D01*
X134449666Y-76588233D01*
X134128345Y-76735966D01*
X133869950Y-76899558D01*
X133775135Y-76988146D01*
X133607317Y-77093351D01*
X133457411Y-77121334D01*
X133304601Y-77090665D01*
X133272893Y-76969355D01*
X133277278Y-76931318D01*
X133373406Y-76765820D01*
X133594176Y-76578477D01*
X133900923Y-76392229D01*
X134254986Y-76230015D01*
X134617700Y-76114776D01*
X134675030Y-76102006D01*
X134964927Y-76020089D01*
X135086290Y-75934416D01*
X135039575Y-75851978D01*
X134825241Y-75779766D01*
X134651957Y-75749188D01*
X134160149Y-75724320D01*
X133628256Y-75772945D01*
X133110392Y-75884081D01*
X132660672Y-76046748D01*
X132382122Y-76209801D01*
X132293339Y-76291891D01*
X132298402Y-76367223D01*
X132414411Y-76477703D01*
X132527123Y-76565140D01*
X132958672Y-76994742D01*
X133314855Y-77557592D01*
X133585390Y-78230608D01*
X133759992Y-78990711D01*
X133812322Y-79449667D01*
X133824484Y-80254247D01*
X133730164Y-81024917D01*
X133520291Y-81814008D01*
X133300072Y-82404610D01*
X133278278Y-82480632D01*
X133309560Y-82523978D01*
X133423490Y-82539050D01*
X133423490Y-82975058D01*
X133322002Y-82934574D01*
X133302234Y-82929837D01*
X133162799Y-82914323D01*
X133031808Y-82950441D01*
X132872080Y-83059357D01*
X132646433Y-83262238D01*
X132541080Y-83363147D01*
X131886113Y-83889762D01*
X131166238Y-84264112D01*
X130372047Y-84489863D01*
X129732040Y-84548777D01*
X129732040Y-84179694D01*
X130429405Y-84061208D01*
X131135038Y-83811136D01*
X131317018Y-83724147D01*
X131952479Y-83311813D01*
X132484140Y-82778244D01*
X132904769Y-82141307D01*
X133207130Y-81418866D01*
X133383990Y-80628788D01*
X133428114Y-79788939D01*
X133332270Y-78917183D01*
X133309392Y-78803570D01*
X133079889Y-78053664D01*
X132736853Y-77429019D01*
X132282081Y-76930915D01*
X131717375Y-76560629D01*
X131044534Y-76319441D01*
X130265357Y-76208627D01*
X129657347Y-76209330D01*
X128931999Y-76305831D01*
X128324079Y-76518754D01*
X127820229Y-76856960D01*
X127407094Y-77329309D01*
X127083608Y-77916789D01*
X126742042Y-78885573D01*
X126555485Y-79893347D01*
X126525661Y-80914175D01*
X126654293Y-81922120D01*
X126783737Y-82430431D01*
X127033146Y-82987786D01*
X127404637Y-83446034D01*
X127879241Y-83799762D01*
X128437988Y-84043557D01*
X129061911Y-84172006D01*
X129732040Y-84179694D01*
X129732040Y-84548777D01*
X129494132Y-84570677D01*
X129439751Y-84570996D01*
X128639870Y-84510249D01*
X127953915Y-84324590D01*
X127379768Y-84012425D01*
X126915310Y-83572160D01*
X126558420Y-83002200D01*
X126306980Y-82300950D01*
X126280495Y-82193999D01*
X126207462Y-81745655D01*
X126164701Y-81185575D01*
X126152108Y-80568607D01*
X126169580Y-79949602D01*
X126169580Y-79949602D01*
G37*
X126169580Y-79949602D02*
X126217015Y-79383411D01*
X126286564Y-78958381D01*
X126511473Y-78197540D01*
X126821803Y-77512018D01*
X127202586Y-76925064D01*
X127638857Y-76459929D01*
X128093934Y-76150621D01*
X128677847Y-75933587D01*
X129355906Y-75807272D01*
X130078522Y-75772867D01*
X130796110Y-75831562D01*
X131459084Y-75984547D01*
X131678807Y-76064551D01*
X131871235Y-76054991D01*
X132018529Y-75950848D01*
X132376502Y-75694887D01*
X132834698Y-75514455D01*
X133414382Y-75403085D01*
X133960898Y-75360153D01*
X134558985Y-75352331D01*
X135045131Y-75392043D01*
X135472364Y-75488624D01*
X135893710Y-75651405D01*
X136056000Y-75728921D01*
X136391313Y-75929263D01*
X136737086Y-76190525D01*
X137045516Y-76471670D01*
X137268798Y-76731659D01*
X137320226Y-76814213D01*
X137384160Y-76921187D01*
X137460839Y-76983423D01*
X137589441Y-77008765D01*
X137809142Y-77005051D01*
X138151930Y-76980677D01*
X138865204Y-76925851D01*
X138836435Y-77129426D01*
X138805587Y-77240741D01*
X138725731Y-77307484D01*
X138556857Y-77346643D01*
X138258956Y-77375209D01*
X138257333Y-77375334D01*
X137960276Y-77403851D01*
X137796913Y-77441062D01*
X137731695Y-77501171D01*
X137727581Y-77587000D01*
X137749243Y-77750979D01*
X137787295Y-78026498D01*
X137833983Y-78357493D01*
X137839849Y-78398636D01*
X137874433Y-78828129D01*
X137871650Y-79312336D01*
X137835470Y-79792166D01*
X137769865Y-80208528D01*
X137702149Y-80447778D01*
X137689441Y-80528667D01*
X137742438Y-80589822D01*
X137888931Y-80642724D01*
X138156712Y-80698854D01*
X138420013Y-80744350D01*
X138701790Y-80818887D01*
X138825627Y-80919554D01*
X138786816Y-81041543D01*
X138746986Y-81078203D01*
X138613078Y-81110964D01*
X138373553Y-81114151D01*
X138088546Y-81092821D01*
X137818195Y-81052031D01*
X137622636Y-80996836D01*
X137592012Y-80981092D01*
X137500099Y-81012310D01*
X137373552Y-81152942D01*
X137338368Y-81205973D01*
X137077306Y-81546547D01*
X136723729Y-81904126D01*
X136337704Y-82222275D01*
X136071563Y-82396275D01*
X135861214Y-82528926D01*
X135795749Y-82612560D01*
X135838729Y-82653135D01*
X135960352Y-82755296D01*
X135936505Y-82887714D01*
X135778844Y-83017504D01*
X135696166Y-83055452D01*
X135421000Y-83164136D01*
X135689861Y-83195629D01*
X135916328Y-83258862D01*
X136073326Y-83368195D01*
X136123797Y-83490521D01*
X136090511Y-83553552D01*
X135959724Y-83611594D01*
X135743042Y-83653187D01*
X135717333Y-83655797D01*
X135421000Y-83683000D01*
X135675000Y-83811141D01*
X135868497Y-83951454D01*
X135920646Y-84086619D01*
X135829000Y-84186559D01*
X135707990Y-84216650D01*
X135512905Y-84181372D01*
X135286686Y-84064644D01*
X135085917Y-83906058D01*
X134967184Y-83745208D01*
X134955333Y-83690016D01*
X134880074Y-83614099D01*
X134743173Y-83555532D01*
X134743173Y-83109357D01*
X134886829Y-83106574D01*
X135014346Y-83025273D01*
X135083428Y-82962305D01*
X135224687Y-82824770D01*
X135292868Y-82748897D01*
X135294000Y-82745908D01*
X135220908Y-82750116D01*
X135039148Y-82783594D01*
X134976500Y-82796969D01*
X134688056Y-82853265D01*
X134419398Y-82895279D01*
X134405000Y-82897053D01*
X134258168Y-82918561D01*
X134239411Y-82945241D01*
X134361499Y-82994623D01*
X134511928Y-83043813D01*
X134743173Y-83109357D01*
X134743173Y-83555532D01*
X134686705Y-83531374D01*
X134515910Y-83483652D01*
X134204072Y-83384512D01*
X133917238Y-83249502D01*
X133816564Y-83183968D01*
X133571060Y-83033922D01*
X133423490Y-82975058D01*
X133423490Y-82539050D01*
X133649641Y-82530248D01*
X133976697Y-82505297D01*
X134794949Y-82390878D01*
X135485574Y-82185387D01*
X136069479Y-81879065D01*
X136567571Y-81462153D01*
X136813351Y-81181120D01*
X137166025Y-80602286D01*
X137391925Y-79931199D01*
X137485924Y-79193406D01*
X137442891Y-78414452D01*
X137409389Y-78212390D01*
X137234572Y-77620903D01*
X136954060Y-77074490D01*
X136596553Y-76625803D01*
X136492182Y-76529638D01*
X136277888Y-76353536D01*
X136144930Y-76276202D01*
X136049240Y-76282617D01*
X135958395Y-76347724D01*
X135868297Y-76458727D01*
X135884690Y-76513897D01*
X135957000Y-76611155D01*
X135971333Y-76705056D01*
X135908070Y-76833394D01*
X135748615Y-76872697D01*
X135538473Y-76826646D01*
X135323145Y-76698925D01*
X135267162Y-76648072D01*
X135084364Y-76500868D01*
X134904147Y-76467792D01*
X134768783Y-76489071D01*
X134449666Y-76588233D01*
X134128345Y-76735966D01*
X133869950Y-76899558D01*
X133775135Y-76988146D01*
X133607317Y-77093351D01*
X133457411Y-77121334D01*
X133304601Y-77090665D01*
X133272893Y-76969355D01*
X133277278Y-76931318D01*
X133373406Y-76765820D01*
X133594176Y-76578477D01*
X133900923Y-76392229D01*
X134254986Y-76230015D01*
X134617700Y-76114776D01*
X134675030Y-76102006D01*
X134964927Y-76020089D01*
X135086290Y-75934416D01*
X135039575Y-75851978D01*
X134825241Y-75779766D01*
X134651957Y-75749188D01*
X134160149Y-75724320D01*
X133628256Y-75772945D01*
X133110392Y-75884081D01*
X132660672Y-76046748D01*
X132382122Y-76209801D01*
X132293339Y-76291891D01*
X132298402Y-76367223D01*
X132414411Y-76477703D01*
X132527123Y-76565140D01*
X132958672Y-76994742D01*
X133314855Y-77557592D01*
X133585390Y-78230608D01*
X133759992Y-78990711D01*
X133812322Y-79449667D01*
X133824484Y-80254247D01*
X133730164Y-81024917D01*
X133520291Y-81814008D01*
X133300072Y-82404610D01*
X133278278Y-82480632D01*
X133309560Y-82523978D01*
X133423490Y-82539050D01*
X133423490Y-82975058D01*
X133322002Y-82934574D01*
X133302234Y-82929837D01*
X133162799Y-82914323D01*
X133031808Y-82950441D01*
X132872080Y-83059357D01*
X132646433Y-83262238D01*
X132541080Y-83363147D01*
X131886113Y-83889762D01*
X131166238Y-84264112D01*
X130372047Y-84489863D01*
X129732040Y-84548777D01*
X129732040Y-84179694D01*
X130429405Y-84061208D01*
X131135038Y-83811136D01*
X131317018Y-83724147D01*
X131952479Y-83311813D01*
X132484140Y-82778244D01*
X132904769Y-82141307D01*
X133207130Y-81418866D01*
X133383990Y-80628788D01*
X133428114Y-79788939D01*
X133332270Y-78917183D01*
X133309392Y-78803570D01*
X133079889Y-78053664D01*
X132736853Y-77429019D01*
X132282081Y-76930915D01*
X131717375Y-76560629D01*
X131044534Y-76319441D01*
X130265357Y-76208627D01*
X129657347Y-76209330D01*
X128931999Y-76305831D01*
X128324079Y-76518754D01*
X127820229Y-76856960D01*
X127407094Y-77329309D01*
X127083608Y-77916789D01*
X126742042Y-78885573D01*
X126555485Y-79893347D01*
X126525661Y-80914175D01*
X126654293Y-81922120D01*
X126783737Y-82430431D01*
X127033146Y-82987786D01*
X127404637Y-83446034D01*
X127879241Y-83799762D01*
X128437988Y-84043557D01*
X129061911Y-84172006D01*
X129732040Y-84179694D01*
X129732040Y-84548777D01*
X129494132Y-84570677D01*
X129439751Y-84570996D01*
X128639870Y-84510249D01*
X127953915Y-84324590D01*
X127379768Y-84012425D01*
X126915310Y-83572160D01*
X126558420Y-83002200D01*
X126306980Y-82300950D01*
X126280495Y-82193999D01*
X126207462Y-81745655D01*
X126164701Y-81185575D01*
X126152108Y-80568607D01*
X126169580Y-79949602D01*
G36*
X130545652Y-81223971D02*
X130600902Y-80927331D01*
X130668267Y-80549630D01*
X130690265Y-80262875D01*
X130668526Y-79995329D01*
X130627043Y-79775883D01*
X130532016Y-79224411D01*
X130516387Y-78802177D01*
X130581599Y-78488099D01*
X130729096Y-78261093D01*
X130730843Y-78259339D01*
X131050703Y-78049058D01*
X131414167Y-77988003D01*
X131777718Y-78080203D01*
X131899548Y-78151214D01*
X132129810Y-78335626D01*
X132321109Y-78532065D01*
X132343244Y-78560667D01*
X132493840Y-78872566D01*
X132596864Y-79310779D01*
X132648899Y-79838149D01*
X132646530Y-80417515D01*
X132586340Y-81011717D01*
X132575062Y-81082297D01*
X132442394Y-81576867D01*
X132233229Y-81997922D01*
X131967588Y-82332482D01*
X131665491Y-82567567D01*
X131346962Y-82690196D01*
X131271006Y-82689520D01*
X131271006Y-82269822D01*
X131491306Y-82193591D01*
X131713403Y-82006617D01*
X131917032Y-81724431D01*
X132081926Y-81362566D01*
X132162845Y-81073032D01*
X132211230Y-80708619D01*
X132225053Y-80276031D01*
X132207524Y-79824748D01*
X132161848Y-79404253D01*
X132091234Y-79064025D01*
X132021119Y-78886565D01*
X131848315Y-78661111D01*
X131647038Y-78488182D01*
X131627927Y-78476868D01*
X131445934Y-78396505D01*
X131295327Y-78415073D01*
X131166500Y-78480264D01*
X131078976Y-78528329D01*
X131016640Y-78575852D01*
X130977179Y-78648460D01*
X130958279Y-78771778D01*
X130957626Y-78971432D01*
X130972906Y-79273048D01*
X131001805Y-79702253D01*
X131025454Y-80042334D01*
X131043499Y-80555080D01*
X131014315Y-80970106D01*
X130945926Y-81308262D01*
X130874996Y-81621225D01*
X130861414Y-81832034D01*
X130902904Y-81997026D01*
X130916866Y-82027929D01*
X131072771Y-82219779D01*
X131271006Y-82269822D01*
X131271006Y-82689520D01*
X131032019Y-82687389D01*
X130740686Y-82546166D01*
X130576526Y-82378004D01*
X130491358Y-82142678D01*
X130481077Y-81757373D01*
X130545652Y-81223971D01*
X130545652Y-81223971D01*
G37*
X130545652Y-81223971D02*
X130600902Y-80927331D01*
X130668267Y-80549630D01*
X130690265Y-80262875D01*
X130668526Y-79995329D01*
X130627043Y-79775883D01*
X130532016Y-79224411D01*
X130516387Y-78802177D01*
X130581599Y-78488099D01*
X130729096Y-78261093D01*
X130730843Y-78259339D01*
X131050703Y-78049058D01*
X131414167Y-77988003D01*
X131777718Y-78080203D01*
X131899548Y-78151214D01*
X132129810Y-78335626D01*
X132321109Y-78532065D01*
X132343244Y-78560667D01*
X132493840Y-78872566D01*
X132596864Y-79310779D01*
X132648899Y-79838149D01*
X132646530Y-80417515D01*
X132586340Y-81011717D01*
X132575062Y-81082297D01*
X132442394Y-81576867D01*
X132233229Y-81997922D01*
X131967588Y-82332482D01*
X131665491Y-82567567D01*
X131346962Y-82690196D01*
X131271006Y-82689520D01*
X131271006Y-82269822D01*
X131491306Y-82193591D01*
X131713403Y-82006617D01*
X131917032Y-81724431D01*
X132081926Y-81362566D01*
X132162845Y-81073032D01*
X132211230Y-80708619D01*
X132225053Y-80276031D01*
X132207524Y-79824748D01*
X132161848Y-79404253D01*
X132091234Y-79064025D01*
X132021119Y-78886565D01*
X131848315Y-78661111D01*
X131647038Y-78488182D01*
X131627927Y-78476868D01*
X131445934Y-78396505D01*
X131295327Y-78415073D01*
X131166500Y-78480264D01*
X131078976Y-78528329D01*
X131016640Y-78575852D01*
X130977179Y-78648460D01*
X130958279Y-78771778D01*
X130957626Y-78971432D01*
X130972906Y-79273048D01*
X131001805Y-79702253D01*
X131025454Y-80042334D01*
X131043499Y-80555080D01*
X131014315Y-80970106D01*
X130945926Y-81308262D01*
X130874996Y-81621225D01*
X130861414Y-81832034D01*
X130902904Y-81997026D01*
X130916866Y-82027929D01*
X131072771Y-82219779D01*
X131271006Y-82269822D01*
X131271006Y-82689520D01*
X131032019Y-82687389D01*
X130740686Y-82546166D01*
X130576526Y-82378004D01*
X130491358Y-82142678D01*
X130481077Y-81757373D01*
X130545652Y-81223971D01*
G36*
X128120652Y-78327661D02*
X128287884Y-78088533D01*
X128612739Y-77827598D01*
X128953116Y-77724006D01*
X129288922Y-77780475D01*
X129517159Y-77922245D01*
X129759850Y-78212756D01*
X129906129Y-78566028D01*
X129935642Y-78921865D01*
X129904791Y-79068667D01*
X129706656Y-79461009D01*
X129428335Y-79716899D01*
X129091694Y-79827403D01*
X128980188Y-79814308D01*
X128980188Y-79407334D01*
X129190181Y-79333800D01*
X129384053Y-79151008D01*
X129512104Y-78915669D01*
X129536666Y-78772334D01*
X129485370Y-78574029D01*
X129361947Y-78361386D01*
X129361188Y-78360419D01*
X129146657Y-78177047D01*
X128920102Y-78161613D01*
X128676119Y-78314001D01*
X128643818Y-78345152D01*
X128484314Y-78597430D01*
X128448679Y-78873197D01*
X128523134Y-79128947D01*
X128693901Y-79321172D01*
X128947204Y-79406365D01*
X128980188Y-79407334D01*
X128980188Y-79814308D01*
X128718600Y-79783587D01*
X128455056Y-79660978D01*
X128178848Y-79402864D01*
X128028147Y-79067345D01*
X128007299Y-78695313D01*
X128120652Y-78327661D01*
X128120652Y-78327661D01*
G37*
X128120652Y-78327661D02*
X128287884Y-78088533D01*
X128612739Y-77827598D01*
X128953116Y-77724006D01*
X129288922Y-77780475D01*
X129517159Y-77922245D01*
X129759850Y-78212756D01*
X129906129Y-78566028D01*
X129935642Y-78921865D01*
X129904791Y-79068667D01*
X129706656Y-79461009D01*
X129428335Y-79716899D01*
X129091694Y-79827403D01*
X128980188Y-79814308D01*
X128980188Y-79407334D01*
X129190181Y-79333800D01*
X129384053Y-79151008D01*
X129512104Y-78915669D01*
X129536666Y-78772334D01*
X129485370Y-78574029D01*
X129361947Y-78361386D01*
X129361188Y-78360419D01*
X129146657Y-78177047D01*
X128920102Y-78161613D01*
X128676119Y-78314001D01*
X128643818Y-78345152D01*
X128484314Y-78597430D01*
X128448679Y-78873197D01*
X128523134Y-79128947D01*
X128693901Y-79321172D01*
X128947204Y-79406365D01*
X128980188Y-79407334D01*
X128980188Y-79814308D01*
X128718600Y-79783587D01*
X128455056Y-79660978D01*
X128178848Y-79402864D01*
X128028147Y-79067345D01*
X128007299Y-78695313D01*
X128120652Y-78327661D01*
G36*
X127999513Y-81806843D02*
X128146260Y-81475630D01*
X128392271Y-81213688D01*
X128726391Y-81059019D01*
X128791753Y-81046030D01*
X129154168Y-81061042D01*
X129461382Y-81210106D01*
X129695993Y-81462212D01*
X129840602Y-81786353D01*
X129877807Y-82151518D01*
X129790207Y-82526699D01*
X129710214Y-82682764D01*
X129548447Y-82892901D01*
X129374632Y-83043545D01*
X129359658Y-83052108D01*
X129076104Y-83120337D01*
X128977683Y-83109262D01*
X128977683Y-82709334D01*
X129197820Y-82636061D01*
X129356809Y-82447948D01*
X129441474Y-82192550D01*
X129438638Y-81917422D01*
X129335123Y-81670121D01*
X129282666Y-81608667D01*
X129096800Y-81481703D01*
X128940151Y-81439334D01*
X128729667Y-81511413D01*
X128527158Y-81689513D01*
X128385666Y-81916430D01*
X128351333Y-82074334D01*
X128423758Y-82315666D01*
X128604137Y-82536965D01*
X128837128Y-82682123D01*
X128977683Y-82709334D01*
X128977683Y-83109262D01*
X128740587Y-83082581D01*
X128421182Y-82952294D01*
X128266392Y-82836071D01*
X128048426Y-82525067D01*
X127963184Y-82169323D01*
X127999513Y-81806843D01*
X127999513Y-81806843D01*
G37*
X127999513Y-81806843D02*
X128146260Y-81475630D01*
X128392271Y-81213688D01*
X128726391Y-81059019D01*
X128791753Y-81046030D01*
X129154168Y-81061042D01*
X129461382Y-81210106D01*
X129695993Y-81462212D01*
X129840602Y-81786353D01*
X129877807Y-82151518D01*
X129790207Y-82526699D01*
X129710214Y-82682764D01*
X129548447Y-82892901D01*
X129374632Y-83043545D01*
X129359658Y-83052108D01*
X129076104Y-83120337D01*
X128977683Y-83109262D01*
X128977683Y-82709334D01*
X129197820Y-82636061D01*
X129356809Y-82447948D01*
X129441474Y-82192550D01*
X129438638Y-81917422D01*
X129335123Y-81670121D01*
X129282666Y-81608667D01*
X129096800Y-81481703D01*
X128940151Y-81439334D01*
X128729667Y-81511413D01*
X128527158Y-81689513D01*
X128385666Y-81916430D01*
X128351333Y-82074334D01*
X128423758Y-82315666D01*
X128604137Y-82536965D01*
X128837128Y-82682123D01*
X128977683Y-82709334D01*
X128977683Y-83109262D01*
X128740587Y-83082581D01*
X128421182Y-82952294D01*
X128266392Y-82836071D01*
X128048426Y-82525067D01*
X127963184Y-82169323D01*
X127999513Y-81806843D01*
M02*
