M48
;DRILL file {KiCad 4.0.2+dfsg1-stable} date Thu 01 Sep 2016 11:14:50 PM EEST
;FORMAT={-:-/ absolute / inch / decimal}
FMAT,2
INCH,TZ
T1C0.016
T2C0.020
T3C0.022
T4C0.024
T5C0.040
%
G90
G05
M72
T1
X4.9921Y-2.8189
X5.0787Y-3.1496
X5.1772Y-3.1496
X5.1969Y-3.3268
X5.2441Y-3.3071
X5.2953Y-2.8819
X5.4476Y-3.1059
X5.4626Y-2.8642
X5.5118Y-2.9331
X5.5315Y-3.248
X5.6457Y-2.811
T4
X5.0843Y-2.8919
X5.1276Y-3.3559
X5.1476Y-3.0217
X5.4026Y-2.9559
X5.4526Y-3.2309
X5.4976Y-3.0709
X5.6026Y-2.9559
X5.7576Y-3.1809
T5
X4.6276Y-2.8559
X4.7276Y-2.8559
X5.8071Y-2.9315
X5.8071Y-3.0315
X5.8071Y-3.1315
X5.8071Y-3.2315
X5.8071Y-3.3315
T2
X4.5684Y-3.0118G85X4.594Y-3.0118
G05
X4.5684Y-3.2874G85X4.594Y-3.2874
G05
T3
X4.6875Y-3.0452G85X4.6875Y-3.0571
G05
X4.6875Y-3.2421G85X4.6875Y-3.2539
G05
T0
M30
